<mxfile host="Electron" agent="Mozilla/5.0 (Macintosh; Intel Mac OS X 10_15_7) AppleWebKit/537.36 (KHTML, like Gecko) draw.io/26.2.15 Chrome/134.0.6998.205 Electron/35.2.1 Safari/537.36" version="26.2.15">
  <diagram name="Page-1" id="fEp65sk12kXVYu2AtMCM">
    <mxGraphModel dx="622" dy="418" grid="1" gridSize="10" guides="1" tooltips="1" connect="1" arrows="1" fold="1" page="1" pageScale="1" pageWidth="850" pageHeight="1100" math="0" shadow="0">
      <root>
        <mxCell id="0" />
        <mxCell id="1" parent="0" />
        <mxCell id="_vOoaH_lG-h0drPXKQmU-2" value="&lt;span style=&quot;background-color: light-dark(rgb(252, 252, 252), rgb(20, 20, 20));&quot;&gt;/new-game request&lt;/span&gt;" style="edgeStyle=orthogonalEdgeStyle;rounded=0;orthogonalLoop=1;jettySize=auto;html=1;labelBackgroundColor=#FCFCFC;" parent="1" source="_vOoaH_lG-h0drPXKQmU-3" edge="1">
          <mxGeometry x="-0.1146" relative="1" as="geometry">
            <mxPoint as="offset" />
            <mxPoint x="411" y="119.5" as="targetPoint" />
          </mxGeometry>
        </mxCell>
        <mxCell id="_vOoaH_lG-h0drPXKQmU-3" value="" style="sketch=0;points=[[0,0,0],[0.25,0,0],[0.5,0,0],[0.75,0,0],[1,0,0],[0,1,0],[0.25,1,0],[0.5,1,0],[0.75,1,0],[1,1,0],[0,0.25,0],[0,0.5,0],[0,0.75,0],[1,0.25,0],[1,0.5,0],[1,0.75,0]];outlineConnect=0;fontColor=#232F3E;fillColor=#E7157B;strokeColor=#ffffff;dashed=0;verticalLabelPosition=bottom;verticalAlign=top;align=center;html=1;fontSize=12;fontStyle=0;aspect=fixed;shape=mxgraph.aws4.resourceIcon;resIcon=mxgraph.aws4.api_gateway;" parent="1" vertex="1">
          <mxGeometry x="40" y="80.5" width="78" height="78" as="geometry" />
        </mxCell>
        <mxCell id="_vOoaH_lG-h0drPXKQmU-4" value="&lt;span style=&quot;font-size: 8px;&quot;&gt;token: str&amp;lt;GoogleJWT&amp;gt;&lt;/span&gt;" style="rounded=1;whiteSpace=wrap;html=1;align=left;" parent="1" vertex="1">
          <mxGeometry x="200.26" y="80.5" width="98.16" height="30" as="geometry" />
        </mxCell>
        <mxCell id="_vOoaH_lG-h0drPXKQmU-34" value="200 response" style="edgeStyle=orthogonalEdgeStyle;rounded=0;orthogonalLoop=1;jettySize=auto;html=1;entryX=0.005;entryY=0.723;entryDx=0;entryDy=0;exitX=1;exitY=0.75;exitDx=0;exitDy=0;entryPerimeter=0;" parent="1" source="_vOoaH_lG-h0drPXKQmU-8" target="_vOoaH_lG-h0drPXKQmU-32" edge="1">
          <mxGeometry relative="1" as="geometry" />
        </mxCell>
        <mxCell id="OQrLplNJzSCJj79ujB7T-38" style="edgeStyle=orthogonalEdgeStyle;rounded=0;orthogonalLoop=1;jettySize=auto;html=1;" edge="1" parent="1" source="_vOoaH_lG-h0drPXKQmU-6" target="OQrLplNJzSCJj79ujB7T-21">
          <mxGeometry relative="1" as="geometry" />
        </mxCell>
        <mxCell id="_vOoaH_lG-h0drPXKQmU-6" value="" style="rounded=1;whiteSpace=wrap;html=1;" parent="1" vertex="1">
          <mxGeometry x="411" y="19.75" width="439" height="200.5" as="geometry" />
        </mxCell>
        <mxCell id="_vOoaH_lG-h0drPXKQmU-7" value="" style="sketch=0;points=[[0,0,0],[0.25,0,0],[0.5,0,0],[0.75,0,0],[1,0,0],[0,1,0],[0.25,1,0],[0.5,1,0],[0.75,1,0],[1,1,0],[0,0.25,0],[0,0.5,0],[0,0.75,0],[1,0.25,0],[1,0.5,0],[1,0.75,0]];outlineConnect=0;fontColor=#232F3E;fillColor=#ED7100;strokeColor=#ffffff;dashed=0;verticalLabelPosition=bottom;verticalAlign=top;align=center;html=1;fontSize=12;fontStyle=0;aspect=fixed;shape=mxgraph.aws4.resourceIcon;resIcon=mxgraph.aws4.lambda;" parent="1" vertex="1">
          <mxGeometry x="421" y="80.5" width="78" height="78" as="geometry" />
        </mxCell>
        <mxCell id="_vOoaH_lG-h0drPXKQmU-8" value="&lt;ol&gt;&lt;li&gt;Validate &lt;b&gt;google token&lt;/b&gt; with google oauth (400 response)&lt;/li&gt;&lt;li&gt;Decodes &lt;b&gt;google token&lt;/b&gt; and gets data (sub, email, name, picture)&lt;/li&gt;&lt;li&gt;Generates a &lt;b&gt;refresh token&lt;/b&gt; (UUID) + refresh cookie.&lt;/li&gt;&lt;li&gt;Checks if sub is in &lt;b&gt;kim-player-table&lt;/b&gt;:&lt;/li&gt;&lt;ol&gt;&lt;li&gt;Missing: Add row with data from google + refresh_token, refresh_token_expiry (7 days from generation).&lt;/li&gt;&lt;li&gt;Exists: Updates refresh_token, refresh_token_expiry.&lt;/li&gt;&lt;/ol&gt;&lt;li&gt;Generates custom JWT with player_id by using secret from AWS secret manager with expiry of 900s. (200 response)&lt;/li&gt;&lt;/ol&gt;" style="text;html=1;align=left;verticalAlign=middle;whiteSpace=wrap;rounded=0;" parent="1" vertex="1">
          <mxGeometry x="481" y="49.5" width="369" height="140" as="geometry" />
        </mxCell>
        <mxCell id="_vOoaH_lG-h0drPXKQmU-9" value="400/500 response" style="edgeStyle=orthogonalEdgeStyle;rounded=0;orthogonalLoop=1;jettySize=auto;html=1;entryX=0;entryY=0.25;entryDx=0;entryDy=0;exitX=1;exitY=0.25;exitDx=0;exitDy=0;" parent="1" source="_vOoaH_lG-h0drPXKQmU-6" target="_vOoaH_lG-h0drPXKQmU-32" edge="1">
          <mxGeometry relative="1" as="geometry">
            <mxPoint x="1120" y="79.5" as="targetPoint" />
            <mxPoint x="809" y="79.5" as="sourcePoint" />
          </mxGeometry>
        </mxCell>
        <mxCell id="_vOoaH_lG-h0drPXKQmU-10" value="&lt;span style=&quot;font-size: 8px;&quot;&gt;&quot;&amp;lt;error message&amp;gt;&quot;&lt;/span&gt;" style="rounded=1;whiteSpace=wrap;html=1;align=center;" parent="1" vertex="1">
          <mxGeometry x="910.62" y="39.5" width="77.5" height="20.5" as="geometry" />
        </mxCell>
        <mxCell id="_vOoaH_lG-h0drPXKQmU-32" value="" style="rounded=0;whiteSpace=wrap;html=1;" parent="1" vertex="1">
          <mxGeometry x="1038.13" y="39.5" width="130" height="161" as="geometry" />
        </mxCell>
        <mxCell id="_vOoaH_lG-h0drPXKQmU-33" value="Client" style="outlineConnect=0;dashed=0;verticalLabelPosition=bottom;verticalAlign=top;align=center;html=1;shape=mxgraph.aws3.management_console;fillColor=#D2D3D3;gradientColor=none;" parent="1" vertex="1">
          <mxGeometry x="1071.63" y="88.5" width="63" height="63" as="geometry" />
        </mxCell>
        <mxCell id="OQrLplNJzSCJj79ujB7T-1" value="Mapping Template" style="shape=image;verticalLabelPosition=bottom;labelBackgroundColor=default;verticalAlign=top;aspect=fixed;imageAspect=0;image=data:image/png,iVBORw0KGgoAAAANSUhEUgAAArIAAADiCAYAAACyaCReAAAMQWlDQ1BJQ0MgUHJvZmlsZQAASImVVwdYU8kWnluSkJCEEkBASuhNEJASQEoILYD0ItgISYBQQgwEFTu6qODaxQI2dFVEsQNiR+wsig37YkFFWRcLduVNCui6r3xvvm/u/PefM/85c+7MvXcA0DjBk0hyUU0A8sSF0rjQQObolFQmqRtggA6oQAe48PgFEnZMTCSAZaD9e3l3AyDy9qqjXOuf/f+1aAmEBXwAkBiI0wUF/DyIDwCAV/El0kIAiHLeYlKhRI5hBTpSGCDE8+U4U4mr5DhdifcobBLiOBC3AKBG5fGkmQDQL0OeWcTPhBr0XoidxQKRGAANJsR+eXn5AojTILaFNhKI5fqs9B90Mv+mmT6oyeNlDmLlXBRFLUhUIMnlTfk/0/G/S16ubMCHNazULGlYnHzOMG83c/Ij5JgKcY84PSoaYm2IP4gECnuIUUqWLCxRaY8a8Qs4MGdAD2JnAS8oAmIjiEPEuVGRKj49QxTChRiuEHSyqJCbALE+xPOFBcHxKpuN0vw4lS+0PkPKYav4czypwq/c131ZTiJbpf86S8hV6WP04qyEZIgpEFsWiZKiIKZD7FSQEx+hshlZnMWJGrCRyuLk8VtCHCcUhwYq9bGiDGlInMq+LK9gYL7YxiwRN0qF9xVmJYQp84O18HmK+OFcsMtCMTtxQEdYMDpyYC4CYVCwcu7YM6E4MV6l80FSGBinHItTJLkxKnvcXJgbKufNIXYrKIpXjcWTCuGCVOrjGZLCmARlnHhxNi88RhkPvgREAg4IAkwggzUd5INsIGrraeiBd8qeEMADUpAJhMBRxQyMSFb0iOE1HhSDPyESgoLBcYGKXiEogvzXQVZ5dQQZit4ixYgc8ATiPBABcuG9TDFKPOgtCTyGjOgf3nmw8mG8ubDK+/89P8B+Z9iQiVQxsgGPTI0BS2IwMYgYRgwh2uGGuB/ug0fCawCsrjgL9xqYx3d7whNCO+Eh4Tqhk3BrgqhE+lOUo0An1A9R5SL9x1zg1lDTHQ/EfaE6VMb1cEPgiLtBP2zcH3p2hyxHFbc8K8yftP82gx+ehsqO7ExGyUPIAWTbn0fS7enugyryXP+YH2Ws6YP55gz2/Oyf80P2BbCN+NkSm4/tx85iJ7Hz2BGsATCx41gj1oodlePB1fVYsboGvMUp4smBOqJ/+Bt4svJMFjjXOnc7f1H2FQony9/RgJMvmSIVZWYVMtnwiyBkcsV8p2FMV2dXdwDk3xfl6+tNrOK7gei1fufm/AGA7/H+/v7D37nw4wDs9YTb/9B3zpYFPx3qAJw7xJdJi5QcLr8Q4FtCA+40A2ACLIAtnI8r8AA+IAAEg3AQDRJAChgPo8+C61wKJoFpYDYoBeVgCVgJ1oINYDPYDnaBfaABHAEnwRlwEVwG18EduHq6wAvQC96BzwiCkBAawkAMEFPECnFAXBEW4ocEI5FIHJKCpCGZiBiRIdOQOUg5sgxZi2xCapC9yCHkJHIeaUduIQ+QbuQ18gnFUCqqgxqj1uhwlIWy0Qg0AR2HZqIT0WJ0LroIXY1WozvRevQkehG9jnaiL9A+DGDqmB5mhjliLIyDRWOpWAYmxWZgZVgFVo3VYU3wOV/FOrEe7CNOxBk4E3eEKzgMT8T5+ER8Br4QX4tvx+vxFvwq/gDvxb8RaAQjggPBm8AljCZkEiYRSgkVhK2Eg4TTcC91Ed4RiUQ9og3RE+7FFGI2cSpxIXEdcTfxBLGd+IjYRyKRDEgOJF9SNIlHKiSVktaQdpKOk66Qukgf1NTVTNVc1ULUUtXEaiVqFWo71I6pXVF7qvaZrEm2InuTo8kC8hTyYvIWchP5ErmL/JmiRbGh+FISKNmU2ZTVlDrKacpdyht1dXVzdS/1WHWR+iz11ep71M+pP1D/SNWm2lM51LFUGXURdRv1BPUW9Q2NRrOmBdBSaYW0RbQa2inafdoHOoPuROfSBfSZ9Ep6Pf0K/aUGWcNKg60xXqNYo0Jjv8YljR5Nsqa1JkeTpzlDs1LzkGaHZp8WQ8tFK1orT2uh1g6t81rPtEna1trB2gLtudqbtU9pP2JgDAsGh8FnzGFsYZxmdOkQdWx0uDrZOuU6u3TadHp1tXXddJN0J+tW6h7V7dTD9Kz1uHq5eov19und0Ps0xHgIe4hwyIIhdUOuDHmvP1Q/QF+oX6a/W/+6/icDpkGwQY7BUoMGg3uGuKG9YazhJMP1hqcNe4bqDPUZyh9aNnTf0NtGqJG9UZzRVKPNRq1GfcYmxqHGEuM1xqeMe0z0TAJMsk1WmBwz6TZlmPqZikxXmB43fc7UZbKZuczVzBZmr5mRWZiZzGyTWZvZZ3Mb80TzEvPd5vcsKBYsiwyLFRbNFr2WppajLKdZ1lretiJbsayyrFZZnbV6b21jnWw9z7rB+pmNvg3Xptim1uauLc3W33aibbXtNTuiHcsux26d3WV71N7dPsu+0v6SA+rg4SByWOfQPowwzGuYeFj1sA5HqiPbscix1vGBk55TpFOJU4PTy+GWw1OHLx1+dvg3Z3fnXOctzndctF3CXUpcmlxeu9q78l0rXa+NoI0IGTFzROOIV24ObkK39W433Rnuo9znuTe7f/Xw9JB61Hl0e1p6pnlWeXawdFgxrIWsc14Er0CvmV5HvD56e3gXeu/z/svH0SfHZ4fPs5E2I4Ujt4x85Gvuy/Pd5Nvpx/RL89vo1+lv5s/zr/Z/GGARIAjYGvCUbcfOZu9kvwx0DpQGHgx8z/HmTOecCMKCQoPKgtqCtYMTg9cG3w8xD8kMqQ3pDXUPnRp6IowQFhG2NKyDa8zlc2u4veGe4dPDWyKoEfERayMeRtpHSiObRqGjwkctH3U3yipKHNUQDaK50cuj78XYxEyMORxLjI2JrYx9EucSNy3ubDwjfkL8jvh3CYEJixPuJNomyhKbkzSSxibVJL1PDkpeltw5evjo6aMvphimiFIaU0mpSalbU/vGBI9ZOaZrrPvY0rE3xtmMmzzu/HjD8bnjj07QmMCbsD+NkJactiPtCy+aV83rS+emV6X38jn8VfwXggDBCkG30Fe4TPg0wzdjWcazTN/M5ZndWf5ZFVk9Io5orehVdlj2huz3OdE523L6c5Nzd+ep5aXlHRJri3PELfkm+ZPz2yUOklJJ50TviSsn9kojpFsLkIJxBY2FOvBHvlVmK/tF9qDIr6iy6MOkpEn7J2tNFk9unWI/ZcGUp8Uhxb9NxafypzZPM5s2e9qD6ezpm2YgM9JnNM+0mDl3Ztes0FnbZ1Nm58z+vcS5ZFnJ2znJc5rmGs+dNffRL6G/1JbSS6WlHfN85m2Yj88XzW9bMGLBmgXfygRlF8qdyyvKvyzkL7zwq8uvq3/tX5SxqG2xx+L1S4hLxEtuLPVfun2Z1rLiZY+Wj1pev4K5omzF25UTVp6vcKvYsIqySraqc3Xk6sY1lmuWrPmyNmvt9crAyt1VRlULqt6vE6y7sj5gfd0G4w3lGz5tFG28uSl0U321dXXFZuLmos1PtiRtOfsb67earYZby7d+3Sbe1rk9bntLjWdNzQ6jHYtr0VpZbffOsTsv7wra1VjnWLdpt97u8j1gj2zP871pe2/si9jXvJ+1v+6A1YGqg4yDZfVI/ZT63oashs7GlMb2Q+GHmpt8mg4edjq87YjZkcqjukcXH6Mcm3us/3jx8b4TkhM9JzNPPmqe0Hzn1OhT11piW9pOR5w+dybkzKmz7LPHz/meO3Le+/yhC6wLDRc9Lta3urce/N3994NtHm31lzwvNV72utzUPrL92BX/KyevBl09c4177eL1qOvtNxJv3OwY29F5U3Dz2a3cW69uF93+fGfWXcLdsnua9yruG92v/sPuj92dHp1HHwQ9aH0Y//DOI/6jF48LHn/pmvuE9qTiqenTmmeuz450h3Rffj7medcLyYvPPaV/av1Z9dL25YG/Av5q7R3d2/VK+qr/9cI3Bm+2vXV729wX03f/Xd67z+/LPhh82P6R9fHsp+RPTz9P+kL6svqr3dembxHf7vbn9fdLeFKe4lcAgxXNyADg9TYAaCkAMOD5jDJGef5TFER5ZlUg8J+w8oyoKB4A1MH/99ge+HfTAcCeLfD4BfU1xgIQQwMgwQugI0YM1oGzmuJcKS9EeA7YGP01PS8d/JuiPHP+EPfPLZCruoGf238BoIF8bwqzkqAAAACWZVhJZk1NACoAAAAIAAUBEgADAAAAAQABAAABGgAFAAAAAQAAAEoBGwAFAAAAAQAAAFIBKAADAAAAAQACAACHaQAEAAAAAQAAAFoAAAAAAAAAkAAAAAEAAACQAAAAAQADkoYABwAAABIAAACEoAIABAAAAAEAAAKyoAMABAAAAAEAAADiAAAAAEFTQ0lJAAAAU2NyZWVuc2hvdP3mli8AAAAJcEhZcwAAFiUAABYlAUlSJPAAAALbaVRYdFhNTDpjb20uYWRvYmUueG1wAAAAAAA8eDp4bXBtZXRhIHhtbG5zOng9ImFkb2JlOm5zOm1ldGEvIiB4OnhtcHRrPSJYTVAgQ29yZSA2LjAuMCI+CiAgIDxyZGY6UkRGIHhtbG5zOnJkZj0iaHR0cDovL3d3dy53My5vcmcvMTk5OS8wMi8yMi1yZGYtc3ludGF4LW5zIyI+CiAgICAgIDxyZGY6RGVzY3JpcHRpb24gcmRmOmFib3V0PSIiCiAgICAgICAgICAgIHhtbG5zOmV4aWY9Imh0dHA6Ly9ucy5hZG9iZS5jb20vZXhpZi8xLjAvIgogICAgICAgICAgICB4bWxuczp0aWZmPSJodHRwOi8vbnMuYWRvYmUuY29tL3RpZmYvMS4wLyI+CiAgICAgICAgIDxleGlmOlVzZXJDb21tZW50PlNjcmVlbnNob3Q8L2V4aWY6VXNlckNvbW1lbnQ+CiAgICAgICAgIDxleGlmOlBpeGVsWERpbWVuc2lvbj42OTA8L2V4aWY6UGl4ZWxYRGltZW5zaW9uPgogICAgICAgICA8ZXhpZjpQaXhlbFlEaW1lbnNpb24+MjI2PC9leGlmOlBpeGVsWURpbWVuc2lvbj4KICAgICAgICAgPHRpZmY6UmVzb2x1dGlvblVuaXQ+MjwvdGlmZjpSZXNvbHV0aW9uVW5pdD4KICAgICAgICAgPHRpZmY6WFJlc29sdXRpb24+MTQ0LzE8L3RpZmY6WFJlc29sdXRpb24+CiAgICAgICAgIDx0aWZmOllSZXNvbHV0aW9uPjE0NC8xPC90aWZmOllSZXNvbHV0aW9uPgogICAgICAgICA8dGlmZjpPcmllbnRhdGlvbj4xPC90aWZmOk9yaWVudGF0aW9uPgogICAgICA8L3JkZjpEZXNjcmlwdGlvbj4KICAgPC9yZGY6UkRGPgo8L3g6eG1wbWV0YT4KKtfJoAAAQABJREFUeAHtnQecFDUbxkPvXTiqgErvVRRUFDuKDSsKUqQIKIpI711EQClKUewd1A8VRbEjoALSpPcO0o4i/csTLnPZudm93bsts7vPe7+9mclkMpl/prxJ3rzJkFCq3AVBIQESIAESIAESIAESIIEoI5AxyvLL7JIACZAACZAACZAACZCAIkBFljcCCZAACZAACZAACZBAVBKgIhuVxcZMkwAJkAAJkAAJkAAJUJHlPUACJEACJEACJEACJBCVBKjIRmWxMdMkQAIkQAIkQAIkQAJUZHkPkAAJkAAJkAAJkAAJRCUBKrJRWWzMNAmQAAmQAAmQAAmQABVZ3gMkQAIkQAIkQAIkQAJRSYCKbFQWGzNNAiRAAiRAAiRAAiRARZb3AAmQAAmQAAmQAAmQQFQSoCIblcXGTJMACZAACZAACZAACVCR5T1AAiRAAiRAAiRAAiQQlQSoyEZlsTHTJEACJEACJEACJEACVGR5D5AACZAACZAACZAACUQlASqyUVlszDQJkAAJkAAJkAAJkAAVWd4DJEACJEACJEACJEACUUmAimxUFhszTQIkQAIkQAIkQAIkQEWW9wAJkAAJkAAJkAAJkEBUEqAiG5XFxkyTAAmQAAmQAAmQAAlQkeU9QAIkQAIkQAIkQAIkEJUEqMhGZbEx0yRAAiRAAiRAAiRAAlRkeQ+QAAmQAAmQAAmQAAlEJQEqslFZbMw0CZAACZAACZAACZAAFVneAyRAAiRAAiRAAiRAAlFJgIpsVBYbM00CJEACJEACJEACJEBFlvcACZAACZAACZAACZBAVBKgIhuVxcZMkwAJkAAJkAAJkAAJUJHlPUACJEACJEACJEACJBCVBKjIRmWxMdMkQAIkQAIkQAIkQAJUZHkPkAAJkAAJkAAJkAAJRCUBKrJRWWzMNAmQAAmQAAmQAAmQABVZ3gMkQAIkQAIkQAIkQAJRSYCKbFQWGzNNAiRAAiRAAiRAAiRARZb3AAmQAAmQAAmQAAmQQFQSoCIblcXGTJMACZAACZAACZAACVCR5T1AAiRAAiRAAiRAAiQQlQQyuzXXWbJkEUUTEuSviMiTJ4/4c8lScfToUbdml/kiARIgARIgARIgARIIMwHXKbJ1atcST7R+XCQUKeKBYtobM8VXc7/xCOMGCZAACZAACZAACZBA/BJwlSKbN29e0fu57iJTpkwpSuT8+fMpwhhAAiRAAiRAAiRAAiQQvwRcpcjec+cdlhJ77tw58eEnn4q/pEnB/n8PiGPHjsdvKfHKSYAESIAESIAESIAEUhBwlSJ7+eWXWRn8fdFi8fGs2dY2V0iABEiABEiABEiABEjAJOAqrwUF8xew8rZx82ZrnSskQAIkQAIkQAIkQAIkYCfgKkU2Q8YMVv7oocBCwRUSIAESIAESIAESIAEHAq5SZB3yxyASIAESIAESIAESIAEScCRARdYRCwNJgARIgARIgARIgATcTsBViqyT2y23A2T+SIAESIAESIAESIAEIkPAVYosZvDScvw43W1pFlySAAmQAAmQAAmQAAmkJOAaRbZSxQoiZ44cVg5Xrf7HWucKCZAACZAACZAACZAACdgJRMyPbLZs2UTWrFlEQuEiolbNGuKB++618rZ7zx5xjC2yFg+ukAAJkAAJkAAJkAAJpCQQMUV22qSJIk+e3B45Onv2rFi5erUY9/JEj3BukAAJkAAJkAAJkAAJkICdQMRMCzIku4y18nTw0CHxy28LxNHERCuMKyRAAiRAAiRAAiRAAiTgRCBT7nyFBjntCHXYps1bxPKVK8X27TtEzpw5Rf78+UWuXLnElfXqiuLFiomFixeHOgtMnwRIgARIgARIgARIIIoJZEgoVe6CG/LftVNHcUPj61RWLly4IB58rJU4c+aMG7LGPJAACZAACZAACZAACbiQQMRMC+wsJk+dJs6dO6eCM0i7g9KlStmjcJsESIAESIAESIAESIAELAKuUWShxB4+csTKWIkSxa11rpAACZAACZAACZAACZCAnYBrFFlk7NSpU1b+OMuXhYIrJEACJEACJEACJEACDgRcpcg65I9BJEACJEACJEACJEACJOBIwFWK7IXzyePOsmbN6phhBpIACZAACZAACZAACZAACLhKkTVtZBMKF2YJkQAJkAAJkAAJkAAJkIBXAq5SZPft329l9NprGoksWbJY21whARIgARIgARIgARIgAZOAa/zIIlPVqlYRQ/r3s/IHTwZHjh4VJ06cEFNnvCFWrFpl7eMKCZAACZAACZAACZBAfBNwVYvsipWrxJJly6wSgeeCggUKiJIlSohSpUpa4VwhARIgARIgARIgARIggYhNUesN/c+//iaWLvtbCDkpQmJiovhPuuSCW64ffvpZ7Nm719thDCcBEiABEiABEiABEogzAq4yLYgz9rxcEiABEiABEiABEiCBdBBwlWlBOq6Dh5IACZAACZAACZAACcQZASqycVbgvFwSIAESIAESIAESiBUCVGRjpSR5HSRAAiRAAiRAAiQQZwSoyMZZgfNySYAESIAESIAESCBWCFCRjZWS5HWQAAmQAAmQAAmQQJwRoCIbZwXOyyUBEiABEiABEiCBWCFARTZWSpLXQQIkQAIkQAIkQAJxRoCKbJwVOC+XBEiABEiABEiABGKFABXZWClJXgcJkAAJkAAJkAAJxBkBKrJxVuC8XBIgARIgARIgARKIFQJUZGOlJHkdJEACJEACJEACJBBnBKjIxlmB83JJgARIgARIgARIIFYIUJGNlZLkdZAACZAACZAACZBAnBHIHGfXy8slARIgARIggbATmPjSWFG8eDFx/vx58XCr1uLMmTNhzwNPGBsEmlzfWHTu0F5dzOzPvxBvv/9BbFxYGq8i7hXZ9m3biIIFCih8fy5ZIr6b/4OF8qYmN4g6tWqp7QP//iumvzHT2hctKy0efEBUqFBeZXfSq1PF3n37IpL1Xs91Fzlz5hAnTpwUo14cG/I8xEq5Vq5YUTS7o6nihQ/g2Akvi3PnzqntLFmyiGef6ioyZMigtj+fM0f8s2at32x79+gusmfPLgYOHe73MfaI4S5X+/m5TQLRQODaRg1FiRLFVVZXr1kTsBI7oE9vUfiSQur4BQsXifc/+jjgy8Z7okjhwhH7BugMIw9dOnVQm2vXrhPvfviR3hXW5dUNGohbb75RnXPut9+JBQsXhvX8OFlay/WHn34WHaTugm/AXXfeIT6VyuyJEyf8yn+sfBvNi417RfZGWbPBzQDJkye3hyJ7Q+PrRMXyF5VA1J6jUZG9Rr5AE4oUUddXvFjRiL3E6tetoxSuCxcuqLyE+l+slGutGtXFlfXqWrhQGUhMPKa2c+XMKRrUr2ft27ptW0CKbI1q1UTmzOl7BYS7XK2L5QoJRAkBKJAd2rVVucX7b+KU1wLOedXKlazvVPVqVf1WZLNly6Yqu+WvuFzky5fPegf/e/Cg+Hv5CjHx1cDzEnDmbQcUL1ZMVKtSRYXi2xQpRbZ2rRpWPvbvPxARRTat5YpGjVlSeX2w+X0iU6ZM4unOT4qRY160kXbejJVvo3l1tJE1aXCdBEiABAIk8PaMaWL2h++rX948eQI8mtFjncA9dzUTOXPkUJe5cvVqsW///rBcMhpmXn1lgkBlM3/+/FbPDRTrSwoVEuieHj/mBaUIhSVDPElQCXz4yadWy369OrVFfllRiVehIhvjJX/2zFnrCk9H0CYLNUiIXlqZ4krYCRQqVFDc3exO1RqbMWNG0fyeu0Wd2rWsj20gGdLlqZeBHBsrcTPKFhEt4EkhAZPAnbfdam1+8NEn1nooV6CsTp4w3kO5QU/Oho0bxcmTJ61Tl760lFRmR1vb4Vg5ffq0dZozpyNnJ2yeOxrtldG6/8dffymWKO9HH37I4hpvK+nrV4w3WlF4vV2e7e6KXDd/5FFX5COeM1GzenXRrUtn2cWY1wNDi4cetLaPHTumuhsX/fGnFeZrheXqiw73xTuB8ldcoVpDwQEKJOxjwyE33nC9yJ0rl3Wq9z/+RHwkW/C09Himm7i6wZVqs2SJEqJsmdJi85atendIl2Bwz4MPh/Qc/iT+2ozXBX7RLB9+MkuWYwN1CY2uvioipiJu4MfmAzeUAvNAAiEmgJfcwL69Uyix9tPmzp1bftTK2IO5TQIkkAYCDz1wv3XU4j8vtp5ZASFcuatpUyv1jZs2eyix2DFm3Hhx+MgRK84jclAwJfoIbNu+XRxNTFQZhz10g/r1o+8igpBjtsgGAaJOAt2zeCEkFC6iRugj/Nix42LX7t3i1WnTxRY5GCc1eaZrF3H5ZWVVtCEjRgl0w3Rq305gYA5uVMipU6fEqn/+kWnOEPsPHFBh+t9D9zcXdWvX1pseS4x4371nj0eY0wZq8t27PSUuL3uZGgCHUfLwdvD9jz+JhYsWq8EDOA55eOOtt52SEBgRX6jgxVG2ZgSMrBwwdJgZlGIdrQXo8hJyXFifgYNEVTkw4M6mt4kypUuL7JIBuoH27N0rhr8wRuzdGx4vDL17PCeKFU2w8rp7z16/jeutgyK4gsEAWnbs3Cneke5acK9hsNejbXB/VRVNZRdo1cqVdTTHZaTLFaN8ixS+RKBb7dmevUWrR1soG0DY/EEOHz4iVqxaJSZMmuzVjGXs6JEiU8ZM4qAc8DJk5CjH6+zbs4ccJV5YpdGjT1/LUwQiDxs4QLayJduj5ZCeH7SMGjZEnD2bbM6D8J27dsl7ZayOErQl7OJw/ZBfF/wu/lq6VLRt1UqULn2pek7wnti1e490zfO+WLrsb6/nxcCbW266UVSRA4rw7OsBgGhBxPtl+YqVYsabb3k9Xu+48/bbVDrY/vSzz8WPP/+i8gdbTAxMRPcn2OzctVtMlS1hZuskTDIwsh8DbFGRAlMMYkE54x2K5/3b77/3GIyrzwtvAL2lVxTIfDma+/prrxElihdXZbd9xw7Rd+Bg0VBW5Fo8+KCqyCEPfy1d5tN7Cnov2j7eUt4Dl4isWbNag6T+++8/sWXrNjFv/nyBkeOpSTk5yEoLvA2EQ/LmzWt5SMD55v/0k+Np//xriUDLLaRWjRqOcRCYnnLF8bDVHdC7l2SYEZsesmbtWjF95pseYd42OsoBc/jGFipYUEU5dPiwWCmf9fETJ4vB/ftK06ic4tjxY2LQsBGOSeDYh+9PrliYkeZ8/bW6X80wc71ihQqiS8eL7q7+XLJUDbaD1wC8Ly9J8iaB+xT3xdvvvW8eGvL1jRs3iVo1L5bfNQ2vEgsXLw75Od12AiqyQSqRjk+0E7fc2CRFaniIK+QpJ156YZR48513xedzvkwRxwzAR6VAgfwqqLD8YPfo1i1FKxoU2to1a6qPxIvjJ5iHi3rSsP8y+SFwkqIJRVJVZPFRGDN8mMiRNDgB6eCDgpGmj0kbnGpVKluKNkbQe1Nk8WLU3iDMvODDlJqAAbhBbpZMza5vhCHdUiVLiknjXhJQMsLRJVa9ahXlqgrnh2jF6eKWu/+Dp1ZOwL9Hn34CH2QtWIcpAX64t3zZu0a6XCtVrKCUNOS9f++e1qhjfS14dqAQVa5UUSq6vSwPD3o/lvr5gBcPbwJmuuKYTSoyJwy7worSnR2eCSfRHkLMffnzXXyezbBgrJeWFTsobBBcM2ydzXwh/+gy7t+rp5j59jviiy+/SnFatNR3f/qpFOEIwDvg0lKl1K++9JzRs29/j1Y8+0H42Ov8oEu9oezyhPJgCu5DVFJRUW7bMbly9Vy3p8VVV6ZsTYLyi3cBflAK69etqyqQ5nukiFQ29XnxjtICFqj8TpowTuSTyh3SgiAP8ATSrvXjjp5okJeGV13srtVpYYnjwQT3IH6pKbI5pfJudu8v/dt7ZcI8T3rX4bLPlB+9KNxomNCKLFjh2Tl06LB5qFpPT7kigTy584grLk9W6M0ToFxTU2Txvn9x5HB1H5rHwm3mtY0aiaJFi4pyMn2Uj3lfmHGxXrFcOevbZd+H5x0VL29SUn4X9T2GhpQG9eqJBPk9NQXXcq8c2FdGViSHjgyf3THuK63IoqziUVJWkeKRQjqvGS4wTCUWN/rWbdsFmv21z088ZI8/9miKF7uvU3ft2NFSYvGAHjlyVBw/fsLnw7p+w0YB1yr65+vBdjq3XYlFi8yadevUeREfLRX+yOatW608IC9pFa3E4ro3bdni8aLFy7dD27ZpTTpujitX7grrWtGyZSqx1o6kFbTi+Rr44KZyxccHgkEsuEfN+wwVjVFDhyRdVXAX69ZvUL0s6GnBz3zG0HOhw/USPRehlmLyY47nAXlBizueFd0yjHdP65aPqRZXez7MwWl4V4Hh2nXrxYqVqzwqvfD9OVFWHP0VfFi1Eos84flFF6jJykzLzAfuP3BEyzr8IuO9pwWt0IP79dWbjksce+z4cWsfRnODAVpnzYFODZNsRK2IcgXKtKnEIv7ylSvF4j//lC2xWz0qNOZxTuvwFqAF+fH1XOl4wVgmFClsJYNzmpUwa4dcQWuoKcUSvFfsdLxAyxXH4drhh11/k2CHH4gM6tfHQ4m1P++oNKF8U5Pt8rnQecAyreWByhGUWNzL6OHEt15/55EHNDKh4SdcsnDxH9apCkjvFPEocd8iO+KFF0Xu3BeN4nFDmjJl6nT5AJVUQdp3p7kf63iA7pEjwLXg49WtR0/rIcFL9OWxL1otjB3atBHtl3TV0X0u9cPynnQY/cnsz6y4qOVj0A5e2HaBCYMpcL/i1EpkxtHrd8iuQd0Si4f05clTPGqpQwf2T7XrWaeF1htTZn3wnl8vG/MYvf71t/NUV6TeRktK01tvUZvlpZKGj6C9FTG95arPFenlV99+K7bKChHk/PkLHi2MR44elbZuE+T1X3yJe1OYticdjzSKJiSoFu20vsQjXa64BlPQpQ6TGS333n2X6jnANj4mV1x2mdiwaZPeHZQlzF1MeXfm65bHh179BvhstTSPC/Y6yrR7rz5KYUPaeE9A+dSD+55o3Vq+m573OG2iVCpgK/nl13OVX0r7c4RW0NHDhqpnN1eunOL6665NtSUSJ9DvHEwyA7MKnS7elxhdbXa5I/5h2U0MBRzvut+l+ZJd0NL12CMXBwhVlb1CcHOmbQPNuKikdez6tAp6beLLagIAbMBP6FPde6jreHvGdIFrgUsqu+AdqAWNAs/37ac3rSWU6bvuuMPa9raCZ01LYpIdo94OdDl89BjrG7Jt+w6fh6PSoUVXZvS2fYn3vFYCi0rTKdPcwx4X24GWK445Kt9TTzzZBatK0BgCe31/BNditjCjFRzfJS3N771Hmow8oDd9Ln/+9TeBnxZMytCkcWO9GdASFZznevdVlVYcCHOHSeNfsnpxWjz0gHo3p5ZoIOXqLS3TvBBliUlufDVWxMq30eQR94rssuXLTR4e62hRxc+X3CVnXdJdkHgp9JA3t6kk4CMxcNgw8dLoi7Z4MBeALdqq1f610owe+5Lq8jXzgBrusNEvmEFBWW9+991WOn9I+yl7V8uAIcPEx+++7dF9aR0QohXUnGFPZ8oMaVOFFnB0EeLBRZcPWltMSW+5mmlFch1dfVDWnAT3mz+z0SxfuUq1HoAVfpNlV+vHs2Y7JRm2sLSWq5lBtPKZSiz2zZK2mdc2bHjRxlput23dSvTuP9A8LGbXZ0rTJfM5wHti6KhRslv2os0guvRROTbtymE727p9R69MoMxBsdQj3GGKkFqXuk4MSsO4VybqTbXEPetkQ/jq9Bke8ewbcP5+x223qe5v3MMwdTBnYdTxoQxrQcu5VurWrl+ngnH+nbt2ivKymxliV4gLF7pEheMfWmGdBO9G/FIT0/zIbAlO7Tin/X+vWOEU7BhWKMleHDtPGa6unCKjgoGWfIhm5RTPDAukXM3j0rKORgstaJk3lViEfyLfY42leYGeNU3HDfUSNvhotNKC9xkaXO6Ws2xB/G2RDaRc9bmclmgR1uVYVE4y4Ws8Tqx8G00OGc0NrgdOoJJhj7Re+uhz6saBDadpe4SBW/4IHGf76wbJn/RSi5M3bx4rCgYD2QUfgZWrVtuDQ7r9zbzvUqSPfBw8dMgKh71sqAUVj507d1k/b62foc5HWtKHucDX33xrHYoPbCdp040KGFqz0TKBylU4JRjl+uuCBY5ZxsANLSWTbEj1dqwu8SGbKz+kdsGIdbM3yV/TIDOdf4wuaKdWTDOuXkd+pth6h/S+tC53SAVUi9naqcOwNK8VLYFaDhq2n6gAacFsV6ZA+ddy4/XX69U0LTHoSot5Th0WqmU+4z1u+mx1Op9uKcc+eCxJTUJRrr7OCXtTLfPkYD8nmTN3rlNwyMLwPnX6Li83Khv58nreVyHLTFLCZjkWShp8Fupzuin9uG+RTW9hYAS1FrReeJPtO3dYg7hKFPfPfuaPMLprgaE/WjogUBTNlh3zmtZv2CBqVPdPETePS+s67NKcBHZWugVBd506xQtWWChawIOVN3/SmfbGTFVjx+A5Xc44DuvoXsMPL+ipr78h5stBIKGWYJQrWpqdxBxUo01lnOLFUtjRo4lW9739unbv3SO7pa9QwaWkz1AnweAneFyBp5Hs2bNZrTv2uFmTpvO2h9u3YTvoq3vTHh/buBfvk6YhNzdporrRUdEy71XzGHgvcZKTtkGMOo7ZIvqfvM+1wPuE+a5bJWfewgA5CFqv339rprIXRuvsoj/+8FCUdRreluY5s2XL6i1a0MNPnvzPSjNL5izWemorZ1JpvcXxaSnX1M7ra38eY6a8lV56MeFVI5wCcxwn2WN40MmS1X/uTmkFGmY+J+GsNAWaz1DFpyKbTrJmC8VeOZDGm/z7b/KAJ62AeYurw7VtpN4O5VKP5MY5fNXi90uj/XCK+XIwz3tWtvhoyZzUNaa3uXQmgO7bj2fPFnfceqvqmrV3f0Fx6Nqpo8DgidS6ep3P4H9oMMp1jxdXcuazhu42Jxtq/3MaHTETjyV6zSjsT7VAOTMFZf6KtOGHyVMwBTapgQhcDo4cMtjR04ljOkmVbvs+06zrlLQZ1mK+08w4dsX8Dend4RppmqIrx1CYYROLX+cO7dWgtd8XLVKtzWYrmD6PuTR7jXLlvDgOw9wfqnV0c2tJTaGCeZaWfTZXjjrcXAZaruaxaVmHxxAtZou8DsMSA1jDKWarv3le0x7ZHLxoxgnVujYrQPp794WXR6iuKZB0k+/iQI5iXIuA+SIwa/pWhKQV80WKj4c/gq7scEmmTMm3gi8HWWbNLxx5O3/hfDhOEzfngJL35rvvqd8HsrUJPjLf++hj5SsS9oIQ+BT96ddf1YjxUIEJRrmarW++8ol57s0uY19xo3Wf+RH1dQ05sufw2D1q6GAPJRbK12rpZWHvvv0CPp8hFcqXU26vsO7vB9ofpQjpQeBeya7EwsZvoxykB8VJK55wFQXvDJBMIZoKGMpp205PKqX1KunVwN7yi0FiyEedWrVUPPReeRNTocRx4RKzsSGLoag6nd98n/ujEAZSrk7nS0/YubPJjRdmOr7KwIwXrPULcHDuIrH3XJhmjC7KZkizkqy9hPQ0sZt4ouzS074C4c/QmxSUoxq1HDBaZ3WY0/K8j5ekU/z0hG3essU63KwFW4FJK/Hq3sPOIVa28eHGgAn8PnrnLatFDN27cH3kZvHmFxn+O7XgI5cWJdasoOq03Lz0Zd9omleYI5wx0hquhLTArMS0pdbh8DIA/62ByAV5X/krt918k3XfwQYTE104DbLFpAbhEOQBg4rwg+IMl1xX1q9n+SpFHmCKBXeK3vxoI87fy5MHaNltcbE/VLLP8GZjTuZgP5+9Z3CPnOQlNQmkXFNLy5/9aADSDT8Y0GXORqaPt1+HDo+XJSpVWgI159HHRfuSimw6S/DAwX9FsSTH6sV9DCwxu+52G6Md03n6oB2ODxw++qih41eoUEFhdtHqE2n7Mb0dL8vrrmlkzSiDa4ZfRNOVSyxw+OOvv6x5u8sk2Qm6+brgrH/p3ym9jqhZ4ZIy7jRqW9/n3pRVtDqaXXWBMEjLcZhFzD4AFPaYYye84vep8/gYqKNnQkJimGVMi/ZEgG20fDopsdgHzqGUurLbXgueKSclFvsLFUhuDNDxQ72ETSg8JuCHHotxY0YLOOKH1Ja+cn0psrC9RUs57jO8U2G+Bf++oZZNm5PPgfPWq1PH0QNDk+sbW1nBM+HkztGKEKEVVEK1IltJOvt38vaDCUriWeoak454G3sQSj4wV7IPIoU3HW8mGKHIC70WpJMqpoDUUrtWTb3qsYRft9LGx2CbzVWUR+QIbpw4cdI6e8skn41WQNKKr6kM7XFjaRvTI8KPpf5hO9bEfPGcOZ1sX+jW69SzEtnz18yYZx49JnZBixsEH3mz9VbHayynOA1EThuDh+CLM1BBbw26182f2YPjT3podbX7ZsVxMKvQ3fHYNntezGv3ZmOLPNWqUR2HhkyyZ8tupY0KopPAl6i2W3XaH44w+K19S5rlaMGMVanJDqPi0EC27IZDUBEwJx1AJdxJzAkbtkpTjtRsfp3SCHWYWfGCyZOTNGt6u1Nw3ITB9EcLpl4Ot9x+yy0C30PzZ1dsQ50nKrLpJAy/lajNQmBPBQfNdukq3RvhowlBDT0co8LtefBn23Rb1PCqq1K4ZOrSsYPVBehPeozjDgJwJo/R13Ac7q3FEBN3YJ57LQtli6DbpaQcgW93G4ZuRgzM0TL3u5Tu28xR3fYKGxS3lo88og/3a3nQGEwFk4xIyZNyMJJdOsgPjH73wIbf/NCtkx5ItMCFHSrcdun57DPW9Mb2fcHaNn2/NpBd+HaBMo5pY8Mhd8vJbcyBr/ZzYtYmLaayqMPsy+9/+NEKgg/ecInpAxymEfapS/Gsm2YlaHF2o8yY+ZaVLbgNtH9fwbSsbOmOVzErqtBDnFzwxQMbmhaks5Th6xW+VatVraJSgrJwedmycjKBn1WXCOy/zJfIt999bw1eSOepUxyOWlDJkp7udXLnSvYNCOW0hM39znz5otW+bz/6dJaaKxofcyg8Qwf0l9MYrlOOnyuWL++302m8JM3WHmRUf0yxNGfPwT64qTFf+AijBI9ARlmWupKFD/WmzZtl9+0ONdAL5YEJEsxWO7hv+d+XX6XIgBvLFffo53O+FMukiQFaJJvfc7elrGOQ0GyHDzSmHNXTkKKVBwocXHYVlkpws9tvt2ZQSgHASwCef638XNuoocC87GulM349mxPeEeG4v8tceqmcRXCM+Ox/c+RArZNy0F4Tjy4/e5ki39rMAs/8jFcniwW/L1QmM7BHREuXeV94ufx0By+WbgYxYxgECjVmI4Qihilq4acbLrnsg67SfVIvCdzbrJlo1eIR5acaE5HA3SC63KHAYhIGXc44/Ec5IDI1wYxpSA/mBWCJCqOTnWdq6QS6/6NZs0TT225V710848PkrIzwfbpu/XpRvVpV2cpew0oSbvd++W2BtR3MFShaNxgmDEgb96kW2Hbbvwc75aQW2mQIrcvoLtdKN76vjeR3DOWC56yC/C7pb4tO02mJ+8ruNtJUgGFKZc8HbJxN12xO6UY6rJmckElf/4aNm9I0HiDS1xCM81ORDQLFCZMniwljxqhpD5EcWhWcWhZgh4rZd0Il7du29vnhaWJ7oSAf6FLCvOoQdC0NGjZCDO7f17LrqlSxgvyYVFD78Q8fFz3HvRVoW0HLrX64bLvUZttWLT2C8TENx4fe46RxtHFEzi6nBR9UzGqkZzZCuKmsQIntPWCgY2XLbeUKRRUKGGbT0TPq6OvEPQUXYljaZcabb6qZqvQ9iq5Xs/sVJhY5cmT3uyXyTflM39zkBqtF8zJZkcVPC5iG+v7WCik+2HChZhcoYx98/IlHMPh9Kqe+1q1cUDpgrmE32YDyY94vHokEYWPh4sXKdlQriZgG9cHm96mfTh7Xt2vXbr8r0/q4tC5hB+uryxo8wS41Qb6hqGt75Ptljx18OodacA+PevEl0eu5Z9W7GA0TyIPOhz4/7oHn+/bXm0FfXi6niLa/782T4J6z78fMcx2fSm6BHzh0uBg/5gXLDzts4E07eNgdl5WDFvXzbKav1++UlbKb5L3tTXDv6ftPx8HMcZNem6o3Xbk0v+mY3jkS4uSRw/TSFI480bQgCJQxKKp1h45e56nGy+ynX34V7Tt3dVQQzCyYbonOypdMIILzBCp2lyaYa7vLM92lgrtdmUHo9NCKMOerrz3MIry5P0qvrZV5vDe3QhfOJ1+r6VNW5zfYS7sHieSzB/tMwU9v3vfzRct2TyhFBuUKxcq8V7COVsMvZCvsY23beW2FMMslLbk0jw9GuULh1r0JZn7wcR44bLjHvWruh3uaoaNGe9zfej/2PdX9OWHeU+dSGYGP62rZrr2aHtfOFuleSMWF3HnDJ7LOh7bj1dupLVf/s0Z8/+OPHuWqj8E0mJ2e6uZoA/mu/PiZ5lH6GCyRB3izmP3FHCvYLEMrMGnF3Bdo/vsOHCwwXa6TwCRiyIhRYrMxOYqZ/lnDLZNn+FkrOfN+84xz0V5aR4SPWJShN8GxaC1++rnnHVk7Hff6W29ZcaF4+OvCzCmtQMIwiUPfQYMdnxGkA1dreNd7G1ynz5Wecj17LrkMdHqpLc3zIS5sk5/o3EUsWbbMY5IN9OSh1bRXvwGWEmuWs3kep2fM3O+0bj73Zrre0jLzba47pR2MMDQowdwCAldvvqaeDcb5vKUB+3VT4DnBaeYzM06w1zMklCoXTd/kYF9/0NNDzbdq5cryV0mclh9UdGNizm9TcQj6SUOYIEY840UC5QCCrh3dgoORiWPGTQjh2Zl0KAnA3RY+qs0feTSUpwlq2rD11d3Mj7Vpp7rSMGr2WunEHi+yRYv/8KqI2zOC1tzq0iQIz+teqchjxLz2nWqP68ZtPId4HiEYzd1v8BBlVoFR6uhFWbtuvbSJXapmbEst/2gZqyo/jBXKXSFQQV2wcJHHXPKpHR+s/fCWgg80zLO2yy7mhYsWq/dPsNL3Nx2YAFStUlkUleYABeQ6Knpbtm4Ta9at84un/TzdunS2Wv1ROUAFIpwCUy8M7iorWx7hJ3iJrDTod3o48xGMc+FaMAkOvksQTOwyafxLah0V0TYdO6n1WP83ebw0CUvymIRn38mjQzgYzPrgPasigfPBkwcaRcIpNC0IMm3U2NECgl8siOnUG9dT23D1ATtLSvQSQKtBuFqHQkkJXZEfS+UgUMGHHIOfzAFQgabhtvh4/6CrHr9ABC3baMHDL5KC3i20eJqDlSKRH/RAwUY2WIIuathlw7TnLmkK87408whHq53OPypobuCq85Oepb2yeb3hZcSb14v0nM+Nx2JMjlZiMWgzUkosxuWYJh3ozQi3EovyoSLrxrs0gnm6CbZ+0vvCl3O/SfGihVN0bUeEFubvfvghgjnlqUmABEggOgig0jRk5Cg1eC06cuyeXGL64uuvvVZ8+OmnKXyTwp4aFQMt337/vV6N6eXhw0dUZQgX+b205Y2UXNPwao9Tv/Vesns6jx0h3qAiG2LA0ZY83JlUr1pVtHq0hRoItn3HTlnjEtIbQklLicU1YZSr04QJ0Xa9zC8JkAAJhIMABtXqgbXhOF+snAOeCeCB4fZbbxGYoAJ2/idOnhBwtQezIN0iiNZYDNCKB4E3he2fRL5H1Bz4DVMPeGWKhFCRjQT1KDgnbH3to691tjFKdPLUaXqTyygl0L13H5ExA8d7RmnxMdskEFcEoLDCHhY/u8BLw9CRo+3B3A4xAZg1YDIVjDOH+85ICRXZSJF36Xlnf/4/NTANgy0wWxAUWghGDh+So1zhs/Obed+5NPfMViAEdu7cFUh0V8TFPQjXSPK9Kc7IyUXiWQ7LiRjgAxQC134UEohFAn8tWSowMh5T0WIQnv4mwZMAbJlh4/6aF1d7scjDTdf04nh3DPam1wI33RUuzQtqwtHqdcGlSJktEiABEiCBNBLgNymN4GL0MPYrxmjBBvOyqMQGkybTIgESIAESSA8BfpPSQy/2jqUiG3tlyisiARIgARIgARIggbggQEU2LoqZF0kCJEACJEACJEACsUeAimzslSmviARIgARIgARIgATiggAV2bgoZl4kCZAACZAACZAACcQeASqysVemvCISIAESIAESIAESiAsCVGTjoph5kSRAAiRAAiRAAiQQewSoyMZemfKKSIAESIAESIAESCAuCFCRjYti5kWSAAmQAAmQAAmQQOwRoCIbe2XKKyIBEiABEiABEiCBuCCQOS6ukhdJAiRAAiQQVgI1q1cXA/r0Uuf85bcFYtwrE8N6fp6MBOwEXn91isifP584deqUaNmuvThz5ow9CrejkEDcK7Lt27YRBQsUUEX355Il4rv5P1jFeFOTG0SdWrXU9oF//xXT35hp7XPjSsd2bUX5cuVU1ia/NlVs2LTJjdlMNU+xVCZOF/tg8/vElfXqiVEvjhX79u93ipJqWIsHHxAVKpRX8Sa9OlXs3bcv1WMYIbQEbr35JnFzkybqJLM+/1z8uuD30J7Q5ak/3bmTyJAhg8B0ou99+FFAua1ft6547JGH1DHnz58XPfsNEP/9919AaSByMJ61gE/qkgNGDB4ksmfPLs6ePSue79vPJblKfzYee/ghUb9eXZXQnr17xfDRY/xO9LsffhD333uP4tKhXRsxccprfh/LiO4lEPeK7I3XNxZZsmRRJZQnT24PRfaGxteJiuUvKguoubldka1dq6YofMkl6lpKlSoZtYpsLJWJ06OPcipbprTImydPmhXZaxo1FAlFiqjkixcrSkXWCXSYw6pVqazKFaetWKFCXCuyzZreLlu+8qsSWLlqdcD352Vly4iSJUqo4/Eve7ZsaVJkg/GsWZmIspWKsqKLikSsSfVqVa1745Kk752/1/j+Rx8L3JvZ5P10w3XXiXc/+FAcOnTY38MZz6UEaCMb5IJ5e8Y0MfvD99UPigqFBLwRyJAx9j4y3q41FOGD+vaxnrW77mgailMwzTQSeFj2GGh5ZcqrejViy0g8a2gN1d+Cd2e+HrFr54mTCaB34H9ffqUCoOR37dQpeSfXopYAFdkgF13GTJmsFDNmJF4LBldUdxbMVYoULqxo3HrTTaLR1VeJQoUKBkzn7Jmz1jGn49TOK2Om5OcrU+bIdy4dO3ZcdaPjY3n8+HGrfOJt5ZqGV6sWVFz37t17xP4DB8KOAEpksJ61tGY+o9Eaym9BWikG/7hPPvtcPadIuWb1alaPbPDPxBTDRSDyb/9wXSnPQwIRIgBzjz49e4gyl17qkQOYruAHweCDr7+dJ958512PON42ujzb3dsuhkeIwJRp0wV+8S4P3HevhWDuvHnWejhWQvGshSPfPEf4COBdu3nrVnFZmTLK9OLeu5qJDz/5NHwZ4JmCTiC5SSPoSTNBEiABtLZOeXl8CiXWTgY2W1UrV7IHc5sEoopA7ly5LPtFtEx/OfebsOWfz1rYUEf9ib4y7ku03FOimwBbZNNZfsMGDlDuPHQyOWSXlpZRw4aoEaN6G8udu3aJkWPGmkEe63Vq1xKPSPuyhMJFRM6cOdQ+dFnu2r1bvCpbe7Zs2+YRP5ANdG/1793TGhCGke5DR452TKLcFZeLxx97VJQoVlzkzZtH1VxPnDwpMEp02uszxZq1ax2PQ+1WtzLCkH7nrt2i5SMPi3LlrlCDm86dOycOHzki03hDLPrjT8c0gh340P3NxdUNrrSSPX/+gujRp29YXK/079VLZEoyNzl+/IT4eNYscU3DhuLyy8qKnn37i0yZM6mR7g2vamDlz2kF11C3dm2nXWLshJfF7j17HPchEAOPunRsr/b/uWSpwICHDtJbR9XKlcUllxRS4bjH5s2fL95+7321bf/3qBwp3KB+PRU8/Y031XEYNFG8WDF1fcdkV/rWrdvEuIkTxb//HrQfrraf6dpFlJat0hfk34AhQ0Vi4rEU8XDvY8Q6ZMbMN8WKVausOE+0flzUkF2BWrSJBrbvaXanHLxxrd6lllCknn7ueYFR76GQfj2fF0WLJjgm/fGs2eKnX3513GcPvPP228Rdd96hng898BTPyYkTJ8XqNWvE53PmiH/WOD9vOq3mciR242saiUsKFVIDWfRztnHTZjFh4iSBZ9dJgv28NpJmBVr+PXhQIB/hkmA9a2nNb6GCBcXgfn2FSDJ9N80JsmXNKiaOS/nexz2Ce8WbpLVcvaVnhuP56d2ju9W1vmDhIkfvErAlbduqpahZo7rH/XXw0CGxbPkKMWXqNKur3kwf6z2e6Saf+VJCPvKiz8BBomqVKuLOpreJMqVLK/MTDKJWngdeGCP27g2f55Xffl8o34kdVHbhtQjv6HDeq3ZO3E4fASqy6eMnlYTylqJiT0qPKjfD8+e7OJLXDNPrHZ9oJ2658aL7Hh2GJbwpVMhTTrz0wijV9fz5nC/N3X6t4wM5YcwLopgc4Q7BQ/vadOcBCFBgoaTYR7zmzJFDdceMGDxQfDr7M/Gug0udKrJVsUTx4uocULye6Xq19aJEIF4YeOH3eq67eP3Nt8T/vvpaxQ3lv+pVq4pSJUt6nCJ79mxhUWQvld4jtEx89TWxcPFicXWS0nru/Dmxbs0GpaRMmDRZoDXLm9SrW0exd9pfNKGIT0W2ZIniVpngw9FAuv5KkMeYgnsMSk2Z0pc6Vm4wIl+X68MPNLfcvOk0kHeU/ZQJ40V/qaSuXbde77KWtWrUUPcyAvLmzeuoyEJRVR8+GQd5MRXZalWrWHmwEk1awfmd+OF+C5UiW7lSRZFDPhNOUu6KK1JVZJE3tNZrTyNmOtiHMrmyXl1RXqbVpmMnc7e1DlvQ4YMGiMvKlrXCsKKfMzxrM16bIoaOGKWUYo9IciPYzyvyq2XT5s16NSzLYD1rac0s/JOWkM+ak+Bdqp8fc39V+Vw5KbLpLVfzHE7rqIC+NHqkqvRgPyqVc76emyIq4uH+0h4odATcX7hvb7rhelFXuqjsPWCgo2eKalJxxX0MuVl+21o89KBOQi3xXcK7edK4l1TjwuYtWz32h2oDrtxQucM3DWVTX75ff1+0OFSnY7ohJpAxxOnHfPLr1m9QraVoMcUPrUBa0OKpw/Vy1T//6N0eS/g7NJVYKBxbt20X27Zvt2qKeOCgZKLVNhBBtzVeFKYS22fAIA8lQaf3dOcnBUaAayUW9kQbNm4U69avFyeTWnWwDy0FuuVVH2tfYj9eVLgWXIe91fAR20vNfny0b+fPl8/iiPsCSqwvQaumN1m/YaNAC5f+mfeZt2OcwtESAiUWx6M8cI+ZLRG1a9ZUraxOx+ow7asY5Yp7w7zvUd7DBw30qLzo49K7XLFylcfzhPNrATv9jOnljp07Pa5Nxw3W8h/ZK6HPhSWelUCkW5cnPZRY+KpesmyZWLrsb9VzA/+fEPm4eZUh/ft5KLHHjh1TZYJ3j75H4LpqyIB+6qPtNSG5IxjPa9nSZaxToLUuXBLMZy2teT58+IjH/WC+71AW5r2i11f9s8bxdMEsV/sJLi1VSowfM9pSYg8fPiw6PvW0OHr0qEdUeN15eewYDyUW9xUqlxjEp++vAgXyi9HDhnoc67ShlVj0TG3assXD7RUU4w5t2zodFrIwvB+01KtTR69yGYUE4r5FdsQLL4rcuS+2hOGjbsqUqdOFruU7dYMiLrpLTIGbFdTyIL2kE290o6cmUAzRNaoFL7luPXpaLYZ4Sb889kWrZtuhTRvRfklXHd3nEnmZKJVYvGwg+Pg/36efo4kCFJzrZPekFnT9v/DSOKtFC/ns2f1Z1UqEOE+0aa1anUxFSB+rl2BqduNjtp+BfXur3fjAXt2ggViwcKGOrpbpLROPxCK4gbLHyx7c8EMF5C/ZtZ8WgVmJKa++MsHyI2uG+7OOCslzvfuqDyvio9Vu0viXrA9bi4ceEGPGTfCZ1P79B0TnZ5617lGYLwwbKE0l5AcJP5gI+DtwzeeJjJ3T3phpbAmlnKHFBzL7i/+JWXI0cjjFbpbT45mn1f3sbx70ZCuI/8HHn6QYcIJ7BpVKKB5OgnCYAGmZ/+NPwnR1hWetX6/nrTLB84qWf1+SlufVTE+bQyFsx45kRcGM48/6N999J0xF44hNybKnEcxnzZ62v9uoZHbu9qwVHe9e7Xbr1OnTHvusSA4roShXfZorLrtMjBw6WGRO8vIBjxJdn33OsRL2XLen1b2DY/HdGDxipFi1OrkhBj0Fw2RrLSqv+fLlFTB/wn3sSzCgdeqM5J7AdtJcqOmtt6hDykvzM5hjpNaDgglgSpYsoY5J7b7wlZcDB/5VvR2Io02sfMXnPvcSiPsW2WXLlyvH5ZiFZ/uOHR4lhVZEhOP394rQtS7gY4VWUwgUnx5SyTBbm/CSHjhsmJW3woUvUV2CVoCXFXTpTJZdvVqJRYsRFGRvdrbPS3smfDwhiIOZp8yXCvKGMNTgIVBEb7vlZrXu9A/x+8guJ/NawNusMMBW1C5uKBN7ntK6bb5o8WFo1eIRkSVzlrQmF5TjoMygsqQFH2B8YLSgOzE16dm/v0e5wmba7JrELFcU3wTQfazF5K/D8Px89r854uXJU3SQxxIzE2mBU3dTiUU4niPtMxPbcIvlS9L6vJppagUJYWhhTqvgevS7F0vkLTVx47OWWp6d9ge7XPU5KlWsIDBuQ5cRWlWheDv1JGBEP0x5tAwaNsJDiUX4ug0bBMyltNwpzdF8Cd4zphKLuLCDT+55cDa/sKeJb5O+N9BLk1YxW6Dz5smb1mR4nAsIxL0i64IyEJUqVrSysV521ToNzIDtkDkDSY1q1axjnFbQLQQlFjVlCGyCnurew0OBsR9ntvxMm/GGfbe1/c1331vrsJ30Jt6uZaMxdS7sO0Mt6ArbuXOX9UNLz3//BdYNnNY8TpiY3AIGxf9u2fKOWb0grR5toZQLtGCGS/DRchpkt9yoqOXLm89ndqAEm/eijvzpZ5/pVVXJQUsNxTsB/QFHDEy7GahgIKaWubIF00k+/HSWpQTiPitW9KKNvFPcYDyvuiKM9DEYKJzitmctrdce7HJFPtA6D5Mf/a5BYwJc+JmNDGZ+G0r/1lqg8GLQoZP8/OtvVhpogdbpO8X9Zl7KexQVFPM+sY9lcEonWGFmxcfsSQhW+kwnfATi3rQgfKi9n6mIbGHVAltIb7J95w6rdbVEcd+tZrClNWWq9BKwb/9+M8hjHUqHrqljx3A5oMsf8fXi2eNlJD1q5lpy+RjgpOOkd4lR+vhFQtAqhpayju3aprAbRbc4fhjNP1e+5OHJwZ+Wp/RcR6K0oXSSPcaI4SxZfSugW6QPRieB+Q0UZd27UFp2fW8wKi1Ox8RzGEZr6+fnRjloBqYGS//+W9lSw77Um5KhmeXKlVOvSrvaZda6uaIGtUjvBzpuWdnSZtpumnGD8bzi/tXKLAbfObX2mecM5rrbnrW0XpsuKxwfjHJFOgP69LLKRW3LAZlmbxvCTCkrbem1YGwFZijzRzD42TQ/MI/x9t6AXbf2QKIbXszjQrVu9oik9qyFKg9MNzgE2CIbHI7pSsUcEbpXfty8ienWSD/43uLawztJjwg5cyZ/+Oz7y12ebGtn3+dr29uobRwDGyQnOWu45DFd1DjFjYUw2C62aN1WeWlARcVuU4wP/22yK97JPU+wr9+brbfZOphamRzw4l4LeT0pW/61XAq3OxSvBGCHbN4LMAHCgKs+z/cQH73zlpg2eaK4Q7rmchLcM2bFEz0O3uTEiRPWLm3zbwUYK8F4Xs3rge11uMVNz1parj0U5Yp86MqFzhNsW31J0YQEX7u97vNV5mZl2UzA/B5kDmPvVAHpZUKLt/ei3s+luwmwRdYF5WN+kP7zMfL5tBwwoEW3eultpyVs1Arkz6+6ey6OJh8gnnm+l1NU5Q5J70Crir8tmN5ad5DWBZ0gl6p1Da7G8Bs9fKgaZDBHrleVdmh6xi/YpsKG9s133wsZMfhwTa/428qWJ/dFtzvpPV+sHg+b/E5PdRPwFOLkxg8+YeG/s7I0PcKgS1PMdwbCfb03zpxN9u6Qy0dlNv13hhCYLlnnrUiRwsqO0sx3ONbRuuaGZy0t16rZ6WODUa46LXgKgO0rBD0Bj0n/3t78RmfNllXFwz8ct9BP11TLV6y0jrOvnL9w3h4U0W2zAenI0dQHZUc0szy5TwJUZH3iCc/OxKOJlg/MItI3nzcpaLRw+GoVw/EYqAaltZG0dULXNQSulx5+4H5HJXXt+nUqDv6h9u7k29CKwJWgEPjxl1/EDOlLd+yoEZYLpYZXXRVSRTYYGffV6pJVOn7XYo4612GpLbXHj9Tixcp+jBrvN3iIupwK5cuJq668UtSrU9vDBdpVV9YX2Gf65oWyZnbjowXNHMBn8smVM5e1ud1wOWQFBnEFTu21DTic32NQjhskWp61UJUrZlib/sZMOUFBsmcNeMpZ/OefHveVLiu0zuvnHCYnsfg9KFWipL5c8c/a5O+fFciVqCFA04IQFpUvw3fztAcOJnfBF0+aTMDcr9fhrUDLbmPUuQ4zlxjtDBsoGOObLp/ul/5f4YLFLhi8Y9pnak8H9njRuI0WLTj717+75SxK9q62SF7Xp599YZ0+Grg7TfShLwAzGGlBS44pp88k9ygUzF/A3GWtY6KEtEhq5hBOaaLbHl345m/yBM+WT6fjQhUGRXXm2++okeTP9+3nYXZwzdVXpzitacZxWdkyKfbrANPmckuIHc7DxldLJWkv6Tbx91mL5L0RinKFEgt5cfzL4siRi/5i8Q4c2Kd3Ctt9xDM9+BQqeHH2P4THkmACCy2/yO8kJXoJUJENctmdNkwDvE1faT/lLjkqVEvtWjX1qscShukYPKNlm81VmA53Wo6ULrO0s328vAbJaRSdRpSbA4HaPd7KKamoDMP0quhG0z94C9C+g0N9Qf4ozIcOH7KyYdoYWoEuW0E3uNN1wb2TrryhUmT3bIBpcLWUlrN22QVKbCDmCGZ6hWU3fKAC/8x4DswfwtwgsKX+a+lSKyuF5XSidjkiHfBrueM2Z1vaBvXrW139iLvZy0A9nU56l+a0vL48JKT3PE7HO92T9nj+PmvBuDdM7zNmBc+eJ/t2KMsVzyVm3tONFhjjMKhfH3sWxJp166ww+HeFF5xYErgi0/cLzDfMAcixdJ3xci1UZINc0geTfKwi2ZubNPErdThy1y8WuGjCrFl26dqpg/XgYWAOBjX4K1COBg0bbp0DLTT9e/VMcbhpF4suTrRkehPYWvXu8ZyluHiLF8/h+Bh+/O7bqjvPW0sjFL8n2z9hYQq1omGdKB0ryHNLactrClpEUVHQslbOBGeXg4a3Cgxus0u3Lp2te9y+z2nb7Er3VgF0Os4tYfAs4ktxNqedPSBNEOzy5TffWEFQNuCg3hQo6G0fb2kFYUBYqEdnw6RJK3A4v56wwspEiFbc+qxp3lCazOl7fWEIdbmitfU9w4sL3vP2QYXf//CjgDcBCPLeV06s4a3XA+8DfLPu9DIw0de1Rmpfs6ZNrVP7suu1InHF1QRoIxvk4lm5arVlUH9to4YC89yvldPYJiYmqjPBBRZeEqYgDMdpB9Qt5KxIl5ctK378+WflyggffcycpOVb6cdVvyB1WGrLjZs2i1mffyHuu/suFRXngtP6uYYjfKyj2x1dx3h5wQXX0r+XK3dAm2U3MeYKh3eD+vXqCgxEgeBjFQ2tiCqzYf6HFzx+mL0MFYNt23fILrvtoljCRV+ePeQEFPA+oVsGUJnRXYBmVuEDsmTJizPZ6PDcuZIHUsGutkQJz/3z5T2mFQp9TDCXuE9gl/nDTz8rX8W4rzD3upbXps3Qq9Zy3vz5otQuQNgAAA6fSURBVFbNGmobA9teGD5MfPv99+oeuumGGyzbSuuAVFb++Osv637G/Th9yiQ1CcDBg4dUpQ2mNR8ZflRTSS7suzERCn5wS7Rw8R9qGuizZ8/J++VKUVfayepnDBn74suvUuTvy6/niofvv1+51sI9BGf3iIcpbkuVKinubdbMcteHgydNnZoijVAEfDf/B9EsyTl+83vvdpwKO9jnDdazFux8YTCs9s+NWRHhVg3Kvh4wuXL1amF36h+Ocv1k1mz5TqpvfavatHxMuX4zvV+MnzhJzgx3scEDlaS3X58uvpL33Go5+cnZM2dFOVl5qlq5sqguvyXgD3/dGGQXDVLH6Pl86733oiHLzKMPAlRkfcBJyy5My3lzkxuE9lGHVhWzZQXzTNsVWZxnwuTJYsKYMZa/xwb16wn87ILBITPlOdIi77z/gWoVKJmk9LRv01q9vDBAQ8uQEaPEiMGDrIkUatWoLvCjBE4AlQ0op1Ay8Cst3VHhp8W0NUVlYNJrUwUqHHZp37a1T0f2Ta5vbD9Ezp62LcUHMkWkNAboa/J2j6J72Wn2uN/lyGe4ucGMcxBMr2pOsYp04RxdDzJJLXuwKcUPA6EgOK5J48ZqXf9D5S3QSp8+NlxLDMLEz5ug9wVz3DvJK1OmyBb/bkqRwD2mlWN73AULF4l/1qy1B4dk+0M5TSla55CfKpUqqSXKNpQSrGct2HmEMjh21EjrHWB/n8JMx67IIg/hKNeBQ4aJ11+boiqSKKthAweINh06WT13fy1dJqBU3y6nkMV+DMR06i0MNrNQp1e/bl11zTgPnitTeQ/1uZl+aAjQtCDIXNEK1LJdezXvO5RW+wv8ghcXJPAR27pDR68zqCAdKAjtO3f1+mE2z+WtlbTvoCEeUwLC2N8UdNciH/Nkq4qZnhkH67B/xLSaumVB70eLkhbTN6kOw/K8VNq0+HLKreOkd3n23NkUSZw7F3pXMEdlK3zzRx5VCipszjDIwiwX8EUYWuPadHxStW6myKgM8FUOTvERds5LOZjszWPNcjDXzTh6HRUiczCIDkc+3/vwI4GPtzfp3qu3NcWxGQf30fDRL3j4Hjb9S5pxzfVe/QeoaTLRqxEoJ6f7M33qVgYza6muY4pPX0o2JjOAeyT71LNmwpilrfMzz3rMjmTux/326vQZYsy48WawtR6K5xU9AUukEgRBSx08pYRagvWs6XwG697AjIxPdO4iFixc6FjW3p619Jarvg5fS4ybMO8LmGdg4hZTpsspZHv06ev4zOp4YIVKkpNnA/P6nJgijQvnk586f555fd60Lls9mmwWhYYnSvQTyJBQqlzyXRT91xMTV4CXP7psqlaupPwyLl+5UnY7bgj4Qx0MGAlyCtnqVavKlsRLBWwcocCgFQwfDkraCIwZMUxcIU00evbtHxE/m2nJ9WjZbV2+3MWWT4ys/3zOl8plXCM5wAsmBUvkzFKr/1nj1z2K1h2YqNSoXk1kkLa1P/38i9cWx7TkNVLHDBnQz7IJ/VTavUPh90fg0xMt0zDVyCEHde7YtUts3rwl4HsDM2nVlL0n5WQ3MBR7mBiYdsT+5CVYcZCXmdNeU4oslPWHWj7ucyapYJ3Xnk40Pmv2a3BLucKMDC3sGCiVVa7vlI0e8IIRTbP3waRuSP9+CvFO+Zx1eaa7HTe3o5AATQtcWGhoRfl7xQr1i3T2YHYwb+/8SGcjps6ve1mDMTlBJMGgRce0sfY3L2g5RWskfrEk5mx7MO3wV1A5dGrh9vd4HQ/lAb+tbvDdirx8/c23ahARFCDY/b/tp2KvrycYy1h41txSrqiQYBpg/KJVMMOllhflzHqU2CBARTY2ypFXEYUEzC61KMw+s2wQqFO7lhokqYPQgxLv8oZsuUfPDVrd18lenEgKn7VI0nfPuTEYLY90JYap4J3s+N2TU+YkEAJUZAOhxbgkEAQC0d4SGwQEUZ0EBpXB96YcwqeuA+7szOkuMSrd2+CsqL7wADMP+0gnu8kAk0lXdD5r6cIXcwejl4ASewSoyMZemfKKXE7ghbHjRN68eZQ7LpdnldlzIJBPTtygPX/Yd2PQ2tgJr9iDuR0hAnzWIgSepyWBMBKgIhtG2DwVCYAAZpGJtplk9u0/oAb8If+HjEk/sB1vgilETW8dGC2beDRRDXqZOOXVkPrvjTfW6b3eaHzW0nvNPJ4E4o0AvRbEW4nzekmABEiABEiABEggRgjQj2yMFCQvgwRIgARIgARIgATijQAV2XgrcV4vCZAACZAACZAACcQIASqyMVKQvAwSIAESIAESIAESiDcCVGTjrcR5vSRAAiRAAiRAAiQQIwSoyMZIQfIySIAESIAESIAESCDeCFCRjbcS5/WSAAmQAAmQAAmQQIwQoCIbIwXJyyABEiABEiABEiCBeCNARTbeSpzXSwIkQAIkQAIkQAIxQoCKbIwUJC+DBEiABEiABEiABOKNQMSmqM2WLZtoeFUDcezYcbFj506xZ+9ecf78+Xjjz+slARIgARIgARIgARJII4GIKbKVKlQQXTt19Mj20cREMfPtd8QPP/3sEc4NEiABEiABEiABEiABErATiJhpwbnz5+x5EXnz5FHKbZHChVPsYwAJkAAJkAAJkAAJkAAJmAQy5c5XaJAZEK71ffv2i6+++Ub8+POvYtfu3aJalcoiU6ZMIkOGDOKSQoXEb78vDFdWeB4SIAESIAESIAESIIEoJBAx0wKwSkw8pn7btm8X+fPlE/fdfZdCWDQhIQpRMsskQAIkQAIkQAIkQALhJBAx0wL7Ra7fsMEKglJLIQESIAESIAESIAESIAFfBFyjyB4+csTKZ+bMEW0otvLBFRIgARIgARIgARIgAfcScI0ie+H8BfdSYs5IgARIgARIgARIgARcR8A1iqzryDBDJEACJEACJEACJEACribgSkU2Y0ZXZsvVBcnMkQAJkAAJkAAJkEC8EXCNxrhv/36Lffbs2ax1rpAACZAACZAACZAACZCAEwHXKLIY7HXhwkU7WfiTbXztNU75ZRgJkAAJkAAJkAAJkAAJKAIRmxDBiX/lShVFQpEiateV9eqK7Nmzi1OnTotTp0+JzFK5PXP2rNNhDCMBEiABEiABEiABEohDAhkSSpVzjbuAbNmyiU5PtBNXN7hSZMmSxaM4zkol9v4Wj3mEcYMESIAESIAESIAESCB+CbjGtABFcOrUKfH3ihXCtJeN36LhlZMACZAACZAACZAACfgi4KqZB1q1eETc3exOK7979+4Tvy9aJLbv3Cmnsk20wrlCAiRAAiRAAiRAAiRAAq5SZO+4/TarRFasWiUGDBlmbXOFBEiABEiABEiABEiABEwCrjEtyJs3rzCnph0zbryZT66TAAmQAAmQAAmQAAmQgAcB1yiyRZO8FSB3/0lb2cTEYx4Z5QYJkAAJkAAJkAAJkAAJmARco8iamTpz+oy5yXUSIAESIAESIAESIAESSEHAlYpsilwygARIgARIgARIgARIgARsBFyjyGYzpqW9IFzj2taGi5skQAIkQAIkQAIkQAJuIeAaRbZoQoLF5PTp09Y6V0iABEiABEiABEiABEjAiYArFNkMGTKIprfeauVv95491jpXSIAESIAESIAESIAESMCJQMT8yBYvVkz07tFdZM+eXeTPl8/D9daiP/50yivDSIAESIAESIAESIAESMAiEDFFtkjhwqJkiRJWRvTKpi1bxJdfz9WbXJIACZAACZAACZAACZCAI4GIKbL/Hjwo9u7bJ2APe+ToUXHw4CHx9bfzxJq1ax0zykASIAESIAESIAESIAESMAlkSChVji4CTCJcJwESIAESIAESIAESiAoCrhjsFRWkmEkSIAESIAESIAESIAFXEaAi66riYGZIgARIgARIgARIgAT8JUBF1l9SjEcCJEACJEACJEACJOAqAlRkXVUczAwJkAAJkAAJkAAJkIC/BKjI+kuK8UiABEiABEiABEiABFxFgIqsq4qDmSEBEiABEiABEiABEvCXABVZf0kxHgmQAAmQAAmQAAmQgKsIUJF1VXEwMyRAAiRAAiRAAiRAAv4SoCLrLynGIwESIAESIAESIAEScBUBKrKuKg5mhgRIgARIgARIgARIwF8CVGT9JcV4JEACJEACJEACJEACriJARdZVxcHMkAAJkAAJkAAJkAAJ+EuAiqy/pBiPBEiABEiABEiABEjAVQSoyLqqOJgZEiABEiABEiABEiABfwlQkfWXFOORAAmQAAmQAAmQAAm4igAVWVcVBzNDAiRAAiRAAiRAAiTgLwEqsv6SYjwSIAESIAESIAESIAFXEaAi66riYGZIgARIgARIgARIgAT8JUBF1l9SjEcCJEACJEACJEACJOAqAlRkXVUczAwJkAAJkAAJkAAJkIC/BKjI+kuK8UiABEiABEiABEiABFxFgIqsq4qDmSEBEiABEiABEiABEvCXABVZf0kxHgmQAAmQAAmQAAmQgKsIUJF1VXEwMyRAAiRAAiRAAiRAAv4SoCLrLynGIwESIAESIAESIAEScBUBKrKuKg5mhgRIgARIgARIgARIwF8CVGT9JcV4JEACJEACJEACJEACriJARdZVxcHMkAAJkAAJkAAJkAAJ+EuAiqy/pBiPBEiABEiABEiABEjAVQSoyLqqOJgZEiABEiABEiABEiABfwlQkfWXFOORAAmQAAmQAAmQAAm4igAVWVcVBzNDAiRAAiRAAiRAAiTgLwEqsv6SYjwSIAESIAESIAESIAFXEaAi66riYGZIgARIgARIgARIgAT8JUBF1l9SjEcCJEACJEACJEACJOAqAlRkXVUczAwJkAAJkAAJkAAJkIC/BKjI+kuK8UiABEiABEiABEiABFxFgIqsq4qDmSEBEiABEiABEiABEvCXABVZf0kxHgmQAAmQAAmQAAmQgKsIUJF1VXEwMyRAAiRAAiRAAiRAAv4SoCLrLynGIwESIAESIAESIAEScBWB/wM+9znGMwVa3wAAAABJRU5ErkJggg==;fontStyle=1" vertex="1" parent="1">
          <mxGeometry x="157.75" y="129.5" width="183.19" height="60" as="geometry" />
        </mxCell>
        <mxCell id="OQrLplNJzSCJj79ujB7T-20" value="" style="group" vertex="1" connectable="0" parent="1">
          <mxGeometry x="440" y="320" width="720" height="101.5" as="geometry" />
        </mxCell>
        <mxCell id="OQrLplNJzSCJj79ujB7T-21" value="" style="outlineConnect=0;dashed=0;verticalLabelPosition=bottom;verticalAlign=top;align=center;html=1;shape=mxgraph.aws3.dynamo_db;fillColor=#2E73B8;gradientColor=none;" vertex="1" parent="OQrLplNJzSCJj79ujB7T-20">
          <mxGeometry y="20.5" width="72" height="81" as="geometry" />
        </mxCell>
        <mxCell id="OQrLplNJzSCJj79ujB7T-22" value="&lt;b&gt;kim-player-table&lt;/b&gt;" style="text;html=1;align=center;verticalAlign=middle;whiteSpace=wrap;rounded=0;" vertex="1" parent="OQrLplNJzSCJj79ujB7T-20">
          <mxGeometry x="345" width="100" height="30" as="geometry" />
        </mxCell>
        <mxCell id="OQrLplNJzSCJj79ujB7T-23" value="player_id" style="rounded=0;whiteSpace=wrap;html=1;" vertex="1" parent="OQrLplNJzSCJj79ujB7T-20">
          <mxGeometry x="170" y="31.75" width="90" height="29.25" as="geometry" />
        </mxCell>
        <mxCell id="OQrLplNJzSCJj79ujB7T-24" value="picture" style="rounded=0;whiteSpace=wrap;html=1;" vertex="1" parent="OQrLplNJzSCJj79ujB7T-20">
          <mxGeometry x="440" y="31.75" width="80" height="29.25" as="geometry" />
        </mxCell>
        <mxCell id="OQrLplNJzSCJj79ujB7T-25" value="UUID" style="rounded=0;whiteSpace=wrap;html=1;" vertex="1" parent="OQrLplNJzSCJj79ujB7T-20">
          <mxGeometry x="170" y="60.5" width="90" height="30" as="geometry" />
        </mxCell>
        <mxCell id="OQrLplNJzSCJj79ujB7T-26" value="URL" style="rounded=0;whiteSpace=wrap;html=1;" vertex="1" parent="OQrLplNJzSCJj79ujB7T-20">
          <mxGeometry x="440" y="61" width="80" height="29.5" as="geometry" />
        </mxCell>
        <mxCell id="OQrLplNJzSCJj79ujB7T-27" value="sub" style="rounded=0;whiteSpace=wrap;html=1;" vertex="1" parent="OQrLplNJzSCJj79ujB7T-20">
          <mxGeometry x="80" y="31.75" width="90" height="29.25" as="geometry" />
        </mxCell>
        <mxCell id="OQrLplNJzSCJj79ujB7T-28" value="string" style="rounded=0;whiteSpace=wrap;html=1;" vertex="1" parent="OQrLplNJzSCJj79ujB7T-20">
          <mxGeometry x="80" y="60.5" width="90" height="30" as="geometry" />
        </mxCell>
        <mxCell id="OQrLplNJzSCJj79ujB7T-29" value="name" style="rounded=0;whiteSpace=wrap;html=1;" vertex="1" parent="OQrLplNJzSCJj79ujB7T-20">
          <mxGeometry x="350" y="31.75" width="90" height="29.25" as="geometry" />
        </mxCell>
        <mxCell id="OQrLplNJzSCJj79ujB7T-30" value="string" style="rounded=0;whiteSpace=wrap;html=1;" vertex="1" parent="OQrLplNJzSCJj79ujB7T-20">
          <mxGeometry x="350" y="61" width="90" height="29.5" as="geometry" />
        </mxCell>
        <mxCell id="OQrLplNJzSCJj79ujB7T-31" value="email" style="rounded=0;whiteSpace=wrap;html=1;" vertex="1" parent="OQrLplNJzSCJj79ujB7T-20">
          <mxGeometry x="260" y="31.75" width="90" height="29.25" as="geometry" />
        </mxCell>
        <mxCell id="OQrLplNJzSCJj79ujB7T-32" value="string" style="rounded=0;whiteSpace=wrap;html=1;" vertex="1" parent="OQrLplNJzSCJj79ujB7T-20">
          <mxGeometry x="260" y="61" width="90" height="29.5" as="geometry" />
        </mxCell>
        <mxCell id="OQrLplNJzSCJj79ujB7T-33" value="refresh_token" style="rounded=0;whiteSpace=wrap;html=1;" vertex="1" parent="OQrLplNJzSCJj79ujB7T-20">
          <mxGeometry x="520" y="31.75" width="80" height="29.25" as="geometry" />
        </mxCell>
        <mxCell id="OQrLplNJzSCJj79ujB7T-34" value="UUID" style="rounded=0;whiteSpace=wrap;html=1;" vertex="1" parent="OQrLplNJzSCJj79ujB7T-20">
          <mxGeometry x="520" y="61" width="80" height="29.5" as="geometry" />
        </mxCell>
        <mxCell id="OQrLplNJzSCJj79ujB7T-35" value="refresh_token_expiry" style="rounded=0;whiteSpace=wrap;html=1;" vertex="1" parent="OQrLplNJzSCJj79ujB7T-20">
          <mxGeometry x="600" y="31.75" width="120" height="29.25" as="geometry" />
        </mxCell>
        <mxCell id="OQrLplNJzSCJj79ujB7T-36" value="timestamp" style="rounded=0;whiteSpace=wrap;html=1;" vertex="1" parent="OQrLplNJzSCJj79ujB7T-20">
          <mxGeometry x="600" y="61" width="120" height="29.5" as="geometry" />
        </mxCell>
        <mxCell id="OQrLplNJzSCJj79ujB7T-37" value="" style="shape=image;verticalLabelPosition=bottom;labelBackgroundColor=default;verticalAlign=top;aspect=fixed;imageAspect=0;image=data:image/png,iVBORw0KGgoAAAANSUhEUgAAAvQAAAGCCAYAAACPT1dXAAAMQWlDQ1BJQ0MgUHJvZmlsZQAASImVVwdYU8kWnluSkJCEEkBASuhNEJASQEoILYD0ItgISYBQQgwEFTu6qODaxQI2dFVEsQNiR+wsig37YkFFWRcLduVNCui6r3xvvm/u/PefM/85c+7MvXcA0DjBk0hyUU0A8sSF0rjQQObolFQmqRtggA6oQAe48PgFEnZMTCSAZaD9e3l3AyDy9qqjXOuf/f+1aAmEBXwAkBiI0wUF/DyIDwCAV/El0kIAiHLeYlKhRI5hBTpSGCDE8+U4U4mr5DhdifcobBLiOBC3AKBG5fGkmQDQL0OeWcTPhBr0XoidxQKRGAANJsR+eXn5AojTILaFNhKI5fqs9B90Mv+mmT6oyeNlDmLlXBRFLUhUIMnlTfk/0/G/S16ubMCHNazULGlYnHzOMG83c/Ij5JgKcY84PSoaYm2IP4gECnuIUUqWLCxRaY8a8Qs4MGdAD2JnAS8oAmIjiEPEuVGRKj49QxTChRiuEHSyqJCbALE+xPOFBcHxKpuN0vw4lS+0PkPKYav4czypwq/c131ZTiJbpf86S8hV6WP04qyEZIgpEFsWiZKiIKZD7FSQEx+hshlZnMWJGrCRyuLk8VtCHCcUhwYq9bGiDGlInMq+LK9gYL7YxiwRN0qF9xVmJYQp84O18HmK+OFcsMtCMTtxQEdYMDpyYC4CYVCwcu7YM6E4MV6l80FSGBinHItTJLkxKnvcXJgbKufNIXYrKIpXjcWTCuGCVOrjGZLCmARlnHhxNi88RhkPvgREAg4IAkwggzUd5INsIGrraeiBd8qeEMADUpAJhMBRxQyMSFb0iOE1HhSDPyESgoLBcYGKXiEogvzXQVZ5dQQZit4ixYgc8ATiPBABcuG9TDFKPOgtCTyGjOgf3nmw8mG8ubDK+/89P8B+Z9iQiVQxsgGPTI0BS2IwMYgYRgwh2uGGuB/ug0fCawCsrjgL9xqYx3d7whNCO+Eh4Tqhk3BrgqhE+lOUo0An1A9R5SL9x1zg1lDTHQ/EfaE6VMb1cEPgiLtBP2zcH3p2hyxHFbc8K8yftP82gx+ehsqO7ExGyUPIAWTbn0fS7enugyryXP+YH2Ws6YP55gz2/Oyf80P2BbCN+NkSm4/tx85iJ7Hz2BGsATCx41gj1oodlePB1fVYsboGvMUp4smBOqJ/+Bt4svJMFjjXOnc7f1H2FQony9/RgJMvmSIVZWYVMtnwiyBkcsV8p2FMV2dXdwDk3xfl6+tNrOK7gei1fufm/AGA7/H+/v7D37nw4wDs9YTb/9B3zpYFPx3qAJw7xJdJi5QcLr8Q4FtCA+40A2ACLIAtnI8r8AA+IAAEg3AQDRJAChgPo8+C61wKJoFpYDYoBeVgCVgJ1oINYDPYDnaBfaABHAEnwRlwEVwG18EduHq6wAvQC96BzwiCkBAawkAMEFPECnFAXBEW4ocEI5FIHJKCpCGZiBiRIdOQOUg5sgxZi2xCapC9yCHkJHIeaUduIQ+QbuQ18gnFUCqqgxqj1uhwlIWy0Qg0AR2HZqIT0WJ0LroIXY1WozvRevQkehG9jnaiL9A+DGDqmB5mhjliLIyDRWOpWAYmxWZgZVgFVo3VYU3wOV/FOrEe7CNOxBk4E3eEKzgMT8T5+ER8Br4QX4tvx+vxFvwq/gDvxb8RaAQjggPBm8AljCZkEiYRSgkVhK2Eg4TTcC91Ed4RiUQ9og3RE+7FFGI2cSpxIXEdcTfxBLGd+IjYRyKRDEgOJF9SNIlHKiSVktaQdpKOk66Qukgf1NTVTNVc1ULUUtXEaiVqFWo71I6pXVF7qvaZrEm2InuTo8kC8hTyYvIWchP5ErmL/JmiRbGh+FISKNmU2ZTVlDrKacpdyht1dXVzdS/1WHWR+iz11ep71M+pP1D/SNWm2lM51LFUGXURdRv1BPUW9Q2NRrOmBdBSaYW0RbQa2inafdoHOoPuROfSBfSZ9Ep6Pf0K/aUGWcNKg60xXqNYo0Jjv8YljR5Nsqa1JkeTpzlDs1LzkGaHZp8WQ8tFK1orT2uh1g6t81rPtEna1trB2gLtudqbtU9pP2JgDAsGh8FnzGFsYZxmdOkQdWx0uDrZOuU6u3TadHp1tXXddJN0J+tW6h7V7dTD9Kz1uHq5eov19und0Ps0xHgIe4hwyIIhdUOuDHmvP1Q/QF+oX6a/W/+6/icDpkGwQY7BUoMGg3uGuKG9YazhJMP1hqcNe4bqDPUZyh9aNnTf0NtGqJG9UZzRVKPNRq1GfcYmxqHGEuM1xqeMe0z0TAJMsk1WmBwz6TZlmPqZikxXmB43fc7UZbKZuczVzBZmr5mRWZiZzGyTWZvZZ3Mb80TzEvPd5vcsKBYsiwyLFRbNFr2WppajLKdZ1lretiJbsayyrFZZnbV6b21jnWw9z7rB+pmNvg3Xptim1uauLc3W33aibbXtNTuiHcsux26d3WV71N7dPsu+0v6SA+rg4SByWOfQPowwzGuYeFj1sA5HqiPbscix1vGBk55TpFOJU4PTy+GWw1OHLx1+dvg3Z3fnXOctzndctF3CXUpcmlxeu9q78l0rXa+NoI0IGTFzROOIV24ObkK39W433Rnuo9znuTe7f/Xw9JB61Hl0e1p6pnlWeXawdFgxrIWsc14Er0CvmV5HvD56e3gXeu/z/svH0SfHZ4fPs5E2I4Ujt4x85Gvuy/Pd5Nvpx/RL89vo1+lv5s/zr/Z/GGARIAjYGvCUbcfOZu9kvwx0DpQGHgx8z/HmTOecCMKCQoPKgtqCtYMTg9cG3w8xD8kMqQ3pDXUPnRp6IowQFhG2NKyDa8zlc2u4veGe4dPDWyKoEfERayMeRtpHSiObRqGjwkctH3U3yipKHNUQDaK50cuj78XYxEyMORxLjI2JrYx9EucSNy3ubDwjfkL8jvh3CYEJixPuJNomyhKbkzSSxibVJL1PDkpeltw5evjo6aMvphimiFIaU0mpSalbU/vGBI9ZOaZrrPvY0rE3xtmMmzzu/HjD8bnjj07QmMCbsD+NkJactiPtCy+aV83rS+emV6X38jn8VfwXggDBCkG30Fe4TPg0wzdjWcazTN/M5ZndWf5ZFVk9Io5orehVdlj2huz3OdE523L6c5Nzd+ep5aXlHRJri3PELfkm+ZPz2yUOklJJ50TviSsn9kojpFsLkIJxBY2FOvBHvlVmK/tF9qDIr6iy6MOkpEn7J2tNFk9unWI/ZcGUp8Uhxb9NxafypzZPM5s2e9qD6ezpm2YgM9JnNM+0mDl3Ztes0FnbZ1Nm58z+vcS5ZFnJ2znJc5rmGs+dNffRL6G/1JbSS6WlHfN85m2Yj88XzW9bMGLBmgXfygRlF8qdyyvKvyzkL7zwq8uvq3/tX5SxqG2xx+L1S4hLxEtuLPVfun2Z1rLiZY+Wj1pev4K5omzF25UTVp6vcKvYsIqySraqc3Xk6sY1lmuWrPmyNmvt9crAyt1VRlULqt6vE6y7sj5gfd0G4w3lGz5tFG28uSl0U321dXXFZuLmos1PtiRtOfsb67earYZby7d+3Sbe1rk9bntLjWdNzQ6jHYtr0VpZbffOsTsv7wra1VjnWLdpt97u8j1gj2zP871pe2/si9jXvJ+1v+6A1YGqg4yDZfVI/ZT63oashs7GlMb2Q+GHmpt8mg4edjq87YjZkcqjukcXH6Mcm3us/3jx8b4TkhM9JzNPPmqe0Hzn1OhT11piW9pOR5w+dybkzKmz7LPHz/meO3Le+/yhC6wLDRc9Lta3urce/N3994NtHm31lzwvNV72utzUPrL92BX/KyevBl09c4177eL1qOvtNxJv3OwY29F5U3Dz2a3cW69uF93+fGfWXcLdsnua9yruG92v/sPuj92dHp1HHwQ9aH0Y//DOI/6jF48LHn/pmvuE9qTiqenTmmeuz450h3Rffj7medcLyYvPPaV/av1Z9dL25YG/Av5q7R3d2/VK+qr/9cI3Bm+2vXV729wX03f/Xd67z+/LPhh82P6R9fHsp+RPTz9P+kL6svqr3dembxHf7vbn9fdLeFKe4lcAgxXNyADg9TYAaCkAMOD5jDJGef5TFER5ZlUg8J+w8oyoKB4A1MH/99ge+HfTAcCeLfD4BfU1xgIQQwMgwQugI0YM1oGzmuJcKS9EeA7YGP01PS8d/JuiPHP+EPfPLZCruoGf238BoIF8bwqzkqAAAACWZVhJZk1NACoAAAAIAAUBEgADAAAAAQABAAABGgAFAAAAAQAAAEoBGwAFAAAAAQAAAFIBKAADAAAAAQACAACHaQAEAAAAAQAAAFoAAAAAAAAAkAAAAAEAAACQAAAAAQADkoYABwAAABIAAACEoAIABAAAAAEAAAL0oAMABAAAAAEAAAGCAAAAAEFTQ0lJAAAAU2NyZWVuc2hvdFOji74AAAAJcEhZcwAAFiUAABYlAUlSJPAAAALbaVRYdFhNTDpjb20uYWRvYmUueG1wAAAAAAA8eDp4bXBtZXRhIHhtbG5zOng9ImFkb2JlOm5zOm1ldGEvIiB4OnhtcHRrPSJYTVAgQ29yZSA2LjAuMCI+CiAgIDxyZGY6UkRGIHhtbG5zOnJkZj0iaHR0cDovL3d3dy53My5vcmcvMTk5OS8wMi8yMi1yZGYtc3ludGF4LW5zIyI+CiAgICAgIDxyZGY6RGVzY3JpcHRpb24gcmRmOmFib3V0PSIiCiAgICAgICAgICAgIHhtbG5zOmV4aWY9Imh0dHA6Ly9ucy5hZG9iZS5jb20vZXhpZi8xLjAvIgogICAgICAgICAgICB4bWxuczp0aWZmPSJodHRwOi8vbnMuYWRvYmUuY29tL3RpZmYvMS4wLyI+CiAgICAgICAgIDxleGlmOlVzZXJDb21tZW50PlNjcmVlbnNob3Q8L2V4aWY6VXNlckNvbW1lbnQ+CiAgICAgICAgIDxleGlmOlBpeGVsWERpbWVuc2lvbj43NTY8L2V4aWY6UGl4ZWxYRGltZW5zaW9uPgogICAgICAgICA8ZXhpZjpQaXhlbFlEaW1lbnNpb24+Mzg2PC9leGlmOlBpeGVsWURpbWVuc2lvbj4KICAgICAgICAgPHRpZmY6UmVzb2x1dGlvblVuaXQ+MjwvdGlmZjpSZXNvbHV0aW9uVW5pdD4KICAgICAgICAgPHRpZmY6WFJlc29sdXRpb24+MTQ0LzE8L3RpZmY6WFJlc29sdXRpb24+CiAgICAgICAgIDx0aWZmOllSZXNvbHV0aW9uPjE0NC8xPC90aWZmOllSZXNvbHV0aW9uPgogICAgICAgICA8dGlmZjpPcmllbnRhdGlvbj4xPC90aWZmOk9yaWVudGF0aW9uPgogICAgICA8L3JkZjpEZXNjcmlwdGlvbj4KICAgPC9yZGY6UkRGPgo8L3g6eG1wbWV0YT4KUaQc4QAAQABJREFUeAHsXQd8FVX2PvRAAiEJhFBD6BB6771KV8GGFdd1dW2rq666a/e/rgV1V9cuq4gFkaYoIII06b0TCBBqQu8lwP9+9+XMu28y7+W95KW8cM7vl8zMndvmm3kz3z33nHOLxMfHXyERQUAQEAQEAUFAEBAEBAFBQBAISQSKhmSvpdOCgCAgCAgCgoAgIAgIAoKAIKAREEIvD4IgIAgIAoKAICAICAKCgCAQwggIoQ/hmyddFwQEAUFAEBAEBAFBQBAQBITQyzMgCAgCgoAgIAgIAoKAICAIhDACQuhD+OZJ1wUBQUAQEAQEAUFAEBAEBAEh9PIMCAKCgCAgCAgCgoAgIAgIAiGMgBD6EL550nVBQBAQBAQBQUAQEAQEAUFACL08A4KAICAICAKCgCAgCAgCgkAIIyCEPoRvnnRdEBAEBAFBQBAQBAQBQUAQEEIvz4AgIAgIAoKAICAICAKCgCAQwggIoQ/hmyddFwQEAUFAEBAEBAFBQBAQBITQyzMgCAgCgoAgIAgIAoKAICAIhDACQuhD+OZJ1wUBQUAQEAQEAUFAEBAEBAEh9PIMCAKCgCAgCAgCgoAgIAgIAiGMgBD6EL550nVBQBAQBAQBQUAQEAQEAUFACL08A4KAICAICAKCgCAgCAgCgkAIIyCEPoRvnnRdEBAEBAFBQBAQBAQBQUAQEEIvz4AgIAgIAoKAICAICAKCgCAQwggIoQ/hmyddFwQEAUFAEBAEBAFBQBAQBITQyzMgCAgCgoAgIAgIAoKAICAIhDACxYPZ966Na1OLWlV1lT8u20hJ+w8Fs3qpK4cIRIaH0YnT5+hKDusJtHituBga0LqhLvbJzCV07sLFQKvIMn8oPXtFihShqJhIOnbkBF2+fDnLa7NnQPkrV/L6Ltp7IceCgCAgCAgCgoAgUFAQCCqhb18/nppnEPrNe1JzndCXKxNG+Dt/MZ3Sjp/KE0zzo83sXljJ4sXojt5tqVH1OKoYGU4ggpBzF9Jp2bbd9N3CNXmCW90qFalTwwTd9rfzV+cKoc/rZ09fTAD/mrdNpP7DelCN2tWoRAn3z+6iena3rEuij976ks6cOuu1xsTm9ej62wdTJYUlyl84f5EO7Eulrz6aREmbd3oth3s++qGbqGHTulQ2MkLnO3HsJK1dsYk+f2+C13JyQhAQBAQBQUAQEARCBwE3swidPls9fWBwF0qsEacJ4l1vf22l5+ZOfrSZneupqMjbi6MG6AGPvXxYyeLUJbEWnVWa8rG/LLWfluMgI9CmU3O659FRjrWCnDdu2YDGfPY8vfjYGNqza3+mfC3aNaY/PX67NSBDhpKlSlCNhKr0+Mv305vPfUCb1aDALkWLFqV/vPEIVY2v7HEqMqocdendjqqogd4///Zvj3NyIAgIAoKAICAICAKhh4DY0IfePcuyxxFhpeiN0UMtMr/n0DEaN2cFvfj1TE3gN6YczLIOyZA7COzdfYB+m/k7ff7fCfTjhF/o7JlzuqGixYrSX1+8j0DCTYkoW8aDzK9asp6+/PB7Wr9ys84GDfwj/7jHQ+vP5e/9620WmYf2f+o3M2nq1zPo/LnzOkttNaN2+/0jObtsBQFBQBAQBAQBQSBEEQhpDX2IYp7r3b6xawsqrggiZOX2PfTG93Msu/lNiszPXLWF6leLpfBSJXO9L9IA0dHDx2jz+iQa9/5EOrgvzQOSad/Oore/eIFKqUFYmYjSVF/5oWxau83KM2hEH0szv2zBavrwzXH63NyfF9HfX3+EaigTNwwG+g7rrgcIXBBEv2mG38KlS5fouUdeV/04rk8vU6ZWL/77cb3ftnML+t+733Ix2QoCgoAgIAgIAoJACCKQ74S+SnQkDWrbiOKUGUCksoc/pbSHh06cpqVbd9OKpBRKv+R2GiylzBOGtEu0YK6qHAshJYoXpxGdm1np2Dlw9CTN37DDIw0HNSpGUedGCVRdbWOU9hP297tSj9JWRbQWqPyXbc6GOWkTNuzXtG6k+7B4y07dJ7ND0RFlCM6ckF8ViTuRoa0185RRpHuoMrmoWSmaYsq5+ntUaVvX79xPCzYma7zM/KVLlqBuTeroJGA3ZvJci8yb+bYoHwdvAufZnsrmGrbvMWXDKVX5JyTtT6PZq7dlas+sA9fbV5mPNKpRiWIiwmnTnoOO98Asw/uYVejauJZus1qF8voZSFL3ZIYafJw669Ioc95gbUuXLk233nqrVd3hw4dp4sSJ1nGwdmDj/sY/3nesDmR7ybxV1LVve30+sUV9D0LfrlsrnQ4n2M/+7TYrg9lM9YQqVp3d+3XwIPSdle9EsWLF9Pm1yzdZZB4JQ2/qZ5WD6Q5MeqD5FxEEBAFBQBAQBASB0EQgXwn9Ld1b0cA2LsJrwgci2aFBTVq8ZRe9M3WedQoOqcM7NLWOeadY0SKZ0uEkayf0jw7vQa3qVONi1rZ25QrUs1lduq5jU3p+/Aw6cuqMdS4nbUaGl6aRXZrrus6cv6AI/RarXuwkxEVb57cp8rpBmWOY0rZeDXpoSFdLQ8vnEioRtVTOlcM6NKF73/V0bOysbOOBBwSDokuXA4uGAqfmvyhtL2v4UU/1iuU1bsPaN6F/TfyVoOW3S7QaHL106zVUXl0zC8r1VQR1TfI+TnLcNle24I8M66YGZi4CikwYrDVThHWIIpuvqRmG9Q625Y6VBZAYGxtL/fq5ye358+dzhdBn1SUz0s2ldPcAtrgawMLkBnL86AmCAy3LA0/d5fFclFcDY1NadXAPcBf/tsI6VbN2dWrd0X0OJ9p2aSGE3kJIdgQBQUAQEAQEgdBDIKiE3gylZ+47wdKoeiWLzIN0Jh88TEn7DlF4WEmqXTmGoLkvmhGVhcufVtp7RGdhaaKc/cKURhptLVfafFN2K627XVA3BFFedqYepr0ZJggNqlXSBBKOpK+PHkKjlYMt0+Cctmnvg7/HILcPDHaTefR16940NYNwmapXiFKa7AqOVVWJLmelY1YgEMH1P35dT6vIdhV2FO3WiI2imrHRhNmKZ27oQ39677tMswkvKAdcJvMYTGFwAlKOwRmIuTdpWrMKPX69u83NSqu/O/UYVYkpR43V/QUOfxvRix76cJLW2nurx3zezH1v+QtSet2MCEDo0/JFq62uxapwnyx7d7sHUSDg8WpABzmnZi/CSpfS+xHlwumUmt2ClCvvimiD/TUqhCzLn5+6U+/Cdr+0GiBDyittv4ggIAgIAoKAICAIhC4CQSX0Y6b8RiUypvlhyuJL2taLt06/M20eLVPaZFNA6KOUTbEpZ1SovjGTf7OSnlbkElFu0JaZbmWw7aCN2au30qJNyRZh5yyjerRW5jEN9QChozLJWajMWSA5bZPrD3QLDTxr2jHT8N/pCz2qgIlKk5qe0UuQoVJUWSvf4QxyZyVksXOnMtNg+fzXZfTzCpfjJdIwe3Fdp2ZaK3xrz9b07g8LOKvW3sN8CLJREfmXvpllnRukwjXe3K2ldWzuYB7hvoGddBJI+PNfzVSDFrcpEAZa/7ipr27zvoGd6YWvZpjFPfYDefY8CubzAcJJchQaOKumGLMZsWrmiOXUSRdRh9b+9vtG6uSdahALAo8oOZA4NXhKyrjn4Rn3A7jCrAcy7Kb+BFMdyJgXPqSn/vmg3udwlvpA/gkCgoAgIAgIAoJAyCFQNJg9hs02QiHiz26Lbm8n1tAgQhNsl31HjmcyQbHnCfT4JxV7e6EDmUc93y10a0YbKIfR/BaY+rDsOHCYd60tfA1+37zTOuad2IxY4zhOC5DQsyYdtvwmmUddExetteLHtzMGYzg3sI3br+GDn39HkiU/LN1glbMSM3Y6Ks00X+f3qn6TzCMLtPU8i1K/akVyGRLZa3EdB/LsOdeQ96kg5/c/eYfV8PuvfWHtY6eCmhVhYc37Hx6+WYesvKx+a++89AmdzCD6yFexklujz9p3NueBSc411/fS1S2Zv4qS1eCWZzLKGGZS3J5sBQFBQBAQBAQBQSB0EAiqhj6Qy0YoRV6E6umRfeiLOctpnXL0vJSNlTMDaRd56yjNZ0PluBlXXjniKgdQO1GEI2p+y67UI1YXblAmFheVlnWxIvCYMfAlxYu67dDTMzSzvvLzOZjL8MJTy7d5mi9xnlU79mrfBtjXw/yGZ2GwaBUEAwGnBb64HNfDW/gusCQq8xo4Klv3ImMHjrYQ9C1eEdydBi5cNrvb3bt302OPPWYVP3vW+8JOVqYg7jyuwlQiug1k5e9raf0q94wI0kooczIWaNkT6taglhk+JJPG/0QnT5yiSxdd2nedXzm4snD4S6Wg1/LA0y6be5jofPbO15xNbxElR0QQEAQEAUFAEBAEQheBfCP0U5Xmtn+rhtr5srKy+2bbbTikzlmbRFMWr/OIcBMMiGHG89i1PVREHbdZilO9xWyxwJ3y5HYa7OWhnYYdOhaCultFQcHf6XMXtJPpODUAOnY6MwE9cuo08exHhXIRhIGTP8IRg5D34PGTjkUOHXeZfeBkZWW6weS6XGnXbMJJL9FozHJmxXCaZfFnVgTXxW1yuZxsoaFOTnaZVuWknuyUve+JOyhBOT1DEMry/de/yFTN4TS3H0g5NfNy/9/u1HkOHTxCP0+ao/fDM5xmcXDYGOycUzM4pZTPSDFF1turSDlYhAry4RvjLBMcHsCdPX1On5N/goAgIAgIAoKAIBCaCOQboUcowofVsvV/uqYTwVaa7cVhiw177SHK9vr9nxY5mpVkB2polJ+/pb92ukV5kOGNytEQdubpl11aTo6gY/PFzU5zQSnzxGfTqJ+yj0ZITjj/QuDY27FhTaUpj6cZK7cQbN1NQbhO4AlBWE5/CX1EhmMlyp31Mgtw5sIFnNbCpjI44Ig43mYEzHKu0q7/ZY02pyxeb55y3E9WRLYwyC33XKtDReJajh87Sc8/8oZl/mJeX5phatVarTZbXM1WYBDy1osfWdlMc5mDhunaGTUwjixfVs9s3HbfCJ0fq8muW7lJ77NJDg7YPl+fkH+CgCAgCAgCgoAgEHII5BuhB1JHTp6hl5UDJaLZ1FFRW7qr+OkIVwnyjegmIPtLt+4KOPSi013opBxdOcrNdBWXGxpuU2DawYTeTM/JPtsoow7Whpr1hWeYW5hp5j78EGD3jz9o0NsrbHqp8JpsHtO/VQPt4JtkELn9KrwhS6PqcVmGjOS8qYpYsiAEpZNEhbvTzXbOqqhBZZS5R+mSzqZKZjmzXgw+sC4AZLKakWETHjNPYdtHDPju/Tvqy0Kkmecees0jHKV5vQdV7H8WkHnIHDXINRenisnAD+cOG5GdTqpIQ5UzBnYl1O8pPf0SvffqWGTTUitjdgAHx9V9EBEEBAFBQBAQBASB0EUgXwk9wwbiChMT/H2onCrH3D1MR2uB5rdqTHnabZgecBlsmTA7kWUzH/brV3U7uo6f647LzflMe25Oc9oG0qZp7w5bfbvAbMVfgfnNRLXCJ/5geoO4+RA4spqEfvnWFLqpqyuqDPJ8NW+lX02YBD3eIIlm4RqxbhMZM4LOsdNnFKHPHJWIy5rlOA3bFHVfEWsfAvt4u1OsPpGL/8qVU6Zejz9utZCWlkZvv/22dRzsnT4qDClWfoVcULMgzyoyf0oNar3JGbWAGIg4k3k4xn718SQrO+zkY1RIUch5ZYrFzyaOk1UEnHqJtbGrZfxH3xMGECwderThXdruI7zpqFGjqFatWlbeTz/9lPbs2WMdy44gIAgIAoKAICAI5D8CBdIbbosRutAXWYeGH8IafV9wslkI8mAlUruM6tHKnuR4HEibWEyKSRYcce3Cq8Ta07M6Xp2818pS2nCERCKIOaLDQDAj0T8jpKFOMP7BhAc+BSyIzY8/SFNlb20u8oQ0aOB5UATnVzOKEdYPgKAMOzrrBPUP7XA5TuPtyu1uYpgV/rnh1xAVFUUNGza0/tq1a8ddC/q2Y882NPLOIbredBVm9YVH3/RYvdVbgxtXuxcjW7pgtUe2PsaiY6uWrPM4N33ibOvZg0Ptol/dM1JYQbZZxgrGeD5/UWFjvUn37t2pWbNm1l9CQoK3rJIuCAgCgoAgIAgIAvmEQL4R+r+N6E1YjKiFWpmUI5vA9AZx5Ts1qqXhANnYbTj62TEy7cMfHd6dsDAS12XPy6QT6Xf3a6/zYh9E/+Gh3SjBCPmHdG8SSJuo43iGVhSLJPEqtWjzgcFdMsXZN9scrHwI3r5nuLah50gvOI/ByK0qZj7L2uT9vGttx/7itqu/rVcbQox9YAOBuc41isx9cP8I6tuyvlUGO1OXuOzY4c/wym0DlQmNy24f9vWv3DbIMhtCiElTvp3vJpoPKi00DxRA5l+6dYBVziyDfdjEr1aRcyAY8Dyhwioivj4LBmoww3rrD8PVs9Kfk0Nui1jzd9w/0ur3vFlLKLF5PeqpTMrsf7Xrx1v5sDPFiL3fY0BHy/a+uXo+rrt1oJV3yteeMfqh3d+XsfIwCPxfX/wTYeEp/D3+8n3WYlQ71GrM5gq0VoWyIwgIAoKAICAICAIhg0C+mdxA4wszl79mrEx6TsWuB4EzNfJTl2zItACUiezMVVuUw2hzrRnGiqMgwCypx05pp1s+nr1mq+VcCvKIvNBII4IMBO2z4ymXcdoG0ibK/7B0oyLULu3/o8N7aH8AdgA227e3BRIPEn67IuT4g305Bjym5hw26Gt37rMX1SZKcCj+Y/8OGk8smIU/DJBMfO0Fp+nIQw10bHjY7H/y0I26XdwXlsMq7vkshbspiEw0VzlcgnwDT6y2i/6a5cz85j76+fpdQwiDBpgPffjASLqozEwg5rXuSnU75JrlQ2E/sXl9D9xB4r1Jklon4dWn37VO71azMYgb306FLsW9Q3Qcu8z9eREh8o1dPnxzHD3z+iMEG/rayv9izNjnPbLATOejt8Z7pNkP7M8LzzjZ88mxICAICAKCgCAgCOQfAvmmoUdsctPGHGSayQMIHRYy+kYRGV9yQeV79JMphJVUmQR6y4+8z42fQYeMxZaYzB9V2szHVUQZLE4EUbzXqwTSJir5OWMxK66QyTz8Bd79cQEnW+YRnLB9/2ECUWYBOWaCC1K1WGlWn/78Rz6daTtv/XZ66vPpHtfL+CIz6l6ZtMejHNYAePCD7z0caU1SjpV2H/5wsuMgC74PrOFHpVwOcenN+2gnhDDf+dN73xH6y+dwnXytqGv/kRPKMdgzRjvScyq8gmpO68mqPC/ulFU+nHfK+/GYL2n+L0ssfLge4DVj8lz68sPvOcljuy/lID338OuOdvqIrvPMn1/1CHXpUVgdwEY/MtJtlgW8li1zz/7Y88uxICAICAKCgCAgCOQPAkXi4+N90Nfc7xTCVMKMpIJanOi80pjD+TNFxU7PzQWm0F5CpWi9ou2GXQf0NrevFKYuDatXUiEyL9Pa5H1+R3SB2UtN1Vdo66Gh36fILZxJsRqvv4JBBGZDqleIUpGFTmt8zYGNUz0g1LXjKlCVmHI69CVWq+UBj1N+ToOtO1Z1rahixq9T5kDmoITzeNvCXCpOOQqjr0VVnw8of4CUtGMBXau3ugtLeh21um49ZZK2ad02vdqrv9cVoSIXterYTMegX6EGy6aDrLc62rZtS0888YR1+ueff6aPPnKHzLROyI4gIAgIAoKAICAI5CsC+U7o8/XqpXFBQBDwisAjjzxCnTt31ufT09MJEW8uXvR/IOm1YjkhCAgCgoAgIAgIAkFFIN9MboJ6FVKZICAIBB2BRo0aWXX++OOPQuYtNGRHEBAEBAFBQBAoWAi4vR0LVr+kN4KAIJDPCJQtW1bb7Z87d47GjRuXz72R5gUBQUAQEAQEAUHAGwJicuMNGUkXBAQBQUAQEAQEAUFAEBAEQgABMbkJgZskXRQEBAFBQBAQBAQBQUAQEAS8ISCE3hsyki4ICAKCgCAgCAgCgoAgIAiEAAJC6EPgJkkXBQFBQBAQBAQBQUAQEAQEAW8ICKH3hoykCwKCgCAgCAgCgoAgIAgIAiGAgBD6ELhJ0kVBQBAQBAQBQUAQEAQEAUHAGwJC6L0hI+mCgCAgCAgCgoAgIAgIAoJACCAghD4EbpJ0URAQBAQBQUAQEAQEAUFAEPCGgBB6b8hIuiAgCAgCgoAgIAgIAoKAIBACCAihD4GbJF0UBAQBQUAQEAQEAUFAEBAEvCEghN4bMpIuCAgCgoAgIAgIAoKAICAIhAACQuhD4CZJFwUBQUAQEAQEAUFAEBAEBAFvCBT3dkLSBYFQQ6BY0WLUvWZP6lWrD8WUjqGIkmVpy6FN9MJvz4bapUh/BQFBQBAQBAQBQUAQ8BuBoBL6ro1rU4taVXXjPy7bSEn7D3ntyM3dWlJU2TK0Nnkfzd+ww2u+UDiB625SszIdPXmGxv+2MhS67Fcfb+neiiqUC6crKveHPy+icxfS/SqXX5nubvlH6lu7v0fz4SUjPI7lQBAQBAQBQUAQEAQEgcKGQFAJffv68dQ8g9Bv3pPqk9D3aVGfSpUoThFhpUKe0HdsWJOa1qyiCW9hIvQ9mtalMqVK6Gd+3K/LCzShL0JFLDJ/9OxReuP3f9HeEyl0+uLpwvablesRBAQBQUAQEAQEAUHAA4GgEnqPmuVAEMhDBCpFVLJam7T5O9qUtsE6lh1BQBAQBAQBQUAQEAQKMwLiFFuY7+5VdG2maU3a6bSr6MrlUgUBQUAQEAQEAUHgakdACP3V/gQUwutPv1ywbf0LIeRySYKAICAICAKCgCCQjwgUCJObksWLUQdlh96ydjWqEh1Ju9OO0sxVW2iLssP3JY3jK1OL2lWpdlwFZY9fjJIPHqHl21Jo5fY9XovVqBhFnRslUHW1jVFOuecvptOu1KO0dV8aLVDOuZevwAXUWSpGRlBPZVfesHolKlq0iHbo/XXtNufMttSqMZHUvkFNqlulgmo3nFIOHaPNKQfpl9VbfbbZpl4NqhkbRYeVw+2va7ZR+fDS1EHV065+De2DsDvtGE3+fR3tP3rC1iJR84Sq1KVxLapUviyFlSxOJ86co32HT9D8jTuyxDZTZX4m1K1bl3r06GHl3rBhAy1cuNA6lh1BQBAQBAQBQUAQEAQEgeAikO+EvnixovR/tw+iytHlrCsD+QVp/XjGYnIizBgAPDy0m+WAywXjY6Ope5M6mtC/NeU3Sr90mU/p7aPDe1CrOtU80nBQu3IF6tmsLl3XsSk9P34GHTl1JlMeDB6euL4XFVNEnqWOKjewTSNKPXaKkxy316p6r+/UzOOcJvjKiRjlX/x6Jh064ey8OaRtou7fqbPn6dDx0/TkiF4e9eCaOzZMoFvfGGelo4cv3XYNJVSKsdKwg8FSg2qV9LW+++MCWrgx2eN8MA46dOhA/fr1s6qqVatWnhD6sOKlrTZlRxAQBAQBQUAQEAQEgasJgaCa3FwxtNvmvi9AE2vEaTIPUrxwU7LWznP+W3u2pqJF3ASa01+5faBF5k+fu0ALlMZ53vrtWgONPND03zewM2e3tuFhJfU+wi9u3nOQZq/Zqv/2Hj6u06GBf330EBUvxVPKlQmjvykizWR+6940mrsuidKOn9Ja8uoVy3sWMI5u69XGIvOXLl+hFUl7tFY+RWnWIWjzhVEDMrVpVKF3ERHosWt76P0z5y/qCEKoA3UaYwx9/mYVbpLJ/LkLF2ntzn00fflGWrp1t4VRsaJZ33rzHvqaubD3NT+OW8S1tJo9m37W2pcdQUAQEAQEAUFAEBAECjsCQdXQj1Fa8RLFimnMYMrir4CMv//TIis7tO9tlakJSCzCQa5O3mud65JYS2uakbBh9wH654TZitS6NPEg3C/deg1Ba40QmpOVWQ3Md1iWKUI7W5m4LFIDB7thzagerema1g2VaUoJ6qhMckzt9Y1dW1CRjIHF+Lkr6AcVYx8C4v/0jX2pkTLBcRLEcO+nwnNCYO7y5Ngf6NhpN9lELP5BSgMPM5pB7RJp2hLvkVlKqFkJyLg5KzQ51wfqX2nVX2j5TWlVp7o+BCF/+KPJFonnPM0SqtCBYyf50Ov2/v9+pwYxRTVWGBgUVClWRJlsVe9odS/l+C5rX3YEAUFAEBAEBAFBQBAo7AhkraYNAAGYuJxVxA9//mp0oWH+dNYSj1YmKZtwlrjosryrtzcpEgzBgOFfE3+1yDzSUNf/Zi/HrhbYu5vy04pNehbATuaR57uFq62sDarFWvvY6aRMWiAgtUzmcYx63p/u3T4cfeWBwP+pgYdJ5lF+wsI1us/Y79HEs69IswtmMKBpNwVYf6fqMQUzChBghIGEXdaoxbwOHs2a0F9Iv6TvZUEk883iWtDIxJvo3tb3038HfURxEZX1ZU7c+C2duuDbBMqOhxwLAoKAICAICAKCgCAQyggEVUOfHSBSlaYYxNGU/UdcJjBIi44oY56iyAyyCs3x/cqsBlpySzwOiOooB1Qnge17wxqVKK58OYoMD/OsQxUoU8plmoOyaIe142t37s9UHWzfQdShZbdLvHJmZRneoYlnOxl9vaiuvZhyWIXpTVbypdLO+yOHVZ/KKDMgzDY8omY7pixZTzsOHPanaI7zTJgwgebPn2/Vc/Soe4bESgzCTucaXahnQm+rpkNn0uidJW/RhlT3YNA6KTuCgCAgCAgCgoAgIAgUYgTyndA7OaCaBJ/JNO4BSC9rvOFMC7McX1I+wpNkwykUduhxUZ5af3sdpn05IsSweHNchRbcidBHR4Rz0Sz7CnMh/GGWwUlgPmPX8DvlQ9qXyiyInWcRJQd/qPfgsRM0ceFa+n3zTm9Fc5x+9uxZSk5OznE9WVXwe8pCOnbuGMWGV6J2VdtRhTIV6YUeL9MnKz+k6dt+yKq4nBcEBAFBQBAQBAQBQaDQIJDvhN4eicYXstCms+xTWvxlW1P40HF70LAThz3+87f0J3aMBTneuPsgQZudftk1QzC8Q1Ndj+mHG1Hara2HNt1J4GTrJAilCYET6ywVhtOXXFEGPJe9kHmuw1d58xycYBE5Z3Tfdpa/AQYLGNA8MLgLwdn45W9mETsDm2VDZX/l/hWEP0i5UpHa7CaseBiNbnkPzUmeTeIYGyp3UvopCAgCgoAgIAgIAjlFIN8JfSAXsPeQ2xRnj9r/Zv4qv4t3Uo6uTOanL9+knEvdtvaoBKEwmdCblR4wbM3Lli5lnrL22WbdSsjYOalCTeJc+qVLAfXVXg+OzYgzTuftaZtUjPvHPpmqHYsbx8dRH+Wc20SF3sQMB2YT7h/UmZ7634/2YiF5fOL8cZq/+zfqU8sVLrNy2Sq04+j2kLwW6bQgIAgIAoKAICAICAKBIhBShB4OoNDow9ymihG33p+Lrl/V7eiKSDV2QSx6J4E5Dcg0iHC1CpFOWSjKZtrDmRDWEoQ+PKyUT3Mazp8bWzjGIlQm/iLUgOS/943QfakW4z3UZk760apVKxo+fLhVxYoVK2jSpEnWcW7tLNq9wCL05cPcvgu51Z7UKwgIAoKAICAICAKCQEFBIKhRbvLionamHtHNVKtQXi+45K1N0w4eeTAIYEFZu4zq0cqeZB2znX/dKhX1iqvWCbXTvFZVrQU303h/1Q5XuE2Yuwxt34STHbf2/jpmymEiFqc6dvpMDmvxXTwxMZEaNmxo/bVr1853gSCdPX3ReWGuIFUv1QgCgoAgIAgIAoKAIFBgEXCz3ALbRc+OvadWOGV55oY+1K5+PB/qLcg6zEnGPnKzB+FP2nfIynd3v/ZWVBkQfcS954WYrEzGzoQFa/QRtPQv3DLAIvVo66EhXY2cnrtTFq8jLHwFwSq0N3RpobXjnAvae6R9/OCN1uJTfC4n2/fvH6H7hXj8LGEqkk7/lg0opqzLUTf1eNZhK7lsqG2dFiMLtWuQ/goCgoAgIAgIAoKAIOAvAiFlcoOLgk37RBV3/bpOzbRmHIQaJjEwLYHjK0fBsQOAVWFHdG6mQzkibOXb9wxXceXTLXKOWOsI8+gk89XCVyDkiLIDEv/pQzdZ7Tnl5zRElnlLLbb15IjemsgPbd9Yaeob63YRvQea+9wQhN3EQAd/wOasus4ypTyv7bNZS3Oj6Xyr87QRez6ipDsyUb51SBoWBAQBQUAQEAQEAUEgjxDINw294plasnL25HwmHhMXraXnxs+wFk0CiQcZZzIPco9VYc0oNwiFiTJm6ElorSFHT52lxz+bpu3zcWxvE1197NOptHlPKk5rweABsiIpxWMlW51o/MNqtg+8P5GSDx62UtEuk3lc/9a9qbRc1eMkGTD5vVAX6li/a791LcDEJPPwCXhz8ly9yq5TezlNu5yxai/Xk9X95Xw53R46456B6VC9k4r5nzuDpZz2U8oLAoKAICAICAKCgCAQbASKxMfHM2cMdt15Ul9pReRrxcVQZeUke+TkGUI4SzMyjVMnoGVPqBStV0HdsOuA3jrlc0pDe4kqagxs3rHiaiCrqKIMFpuqqUxhTp+/oFdrTTl0TMWIv+zUVI7TqsZEqpj75Si6bBkXNoeP0/6jJ3Jcb0Gt4NU+b1CdaNeKuycvnKQDJ/fTutS19OXazwtql6VfgoAgIAgIAoKAICAI5BiBkCf0OUZAKig0CFQpW5Ue7fg41SyfYF3T9qNJ9PjMv1jHsiMICAKCgCAgCAgCgkBhQ0AIfWG7o3I9FFEygqJLx1BU6Wg6c+E0bTuyVVARBAQBQUAQEAQEAUGg0CIghL7Q3lq5MEFAEBAEBAFBQBAQBASBqwGBfHOKvRrAlWsUBAQBQUAQEAQEAUFAEBAEchsBIfS5jbDULwgIAoKAICAICAKCgCAgCOQiAkLocxFcqVoQEAQEAUFAEBAEBAFBQBDIbQSE0Oc2wlK/ICAICAKCgCAgCAgCgoAgkIsICKHPRXClakFAEBAEBAFBQBAQBAQBQSC3ERBCn9sIS/2CgCAgCAgCgoAgIAgIAoJALiKQbUKfkJBA+BMRBAQBQUAQEAQEAUFAEBAEBIH8QyDbhD7/uiwtCwKCgCAgCAgCgoAgIAgIAoIAIyCEnpGQrSAgCAgCgoAgIAgIAoKAIBCCCAihD8GbJl0WBAQBQUAQEAQEAUFAEBAEGAEh9IyEbAUBQUAQEAQEAUFAEBAEBIEQREAIfQjeNOmyICAICAKCgCAgCAgCgoAgwAgIoWckZCsICAKCgCAgCAgCgoAgIAiEIALFQ7DPed7lOpUrUMs61XS7q3fso617U/V+uTJh1L9VA72/9/BxWrgxOcu+lShejEqXLEEnzpzLMm9hyBAZHkYnTp+jKwXoYupVjaU+LerpHv3vl2V06tz5bPeuTb0a1Kh6JTqurnHy4nXZrsdbwQ4NalL1iuX16Zkrt9Cx02f1vuczuVc9k2neqrgq07t160aJiYlUoUIF6/rffPNNOnXqlHUcSjvNmzenIUOG6C6/9tprdPas6zkIpWvI7b4+9NBDFBkZSRs2bKCJEydmu7lSpUrR/fffT0WKFKGff/5Z15ftyqSgICAICAJ5hIAQej+Abt8gnq5p3UjnjAgrZRH6KtGRNKx9E51+4OhJr4Q+Lqos3TugI8XHRlOpEm7Iz5y/SOt37adZq7bQht0H/OhJYFnCShanCuUi6MqVK4QBR15ISTVguaN3W0Vy46hiZLj+KKLdcxfSadm23fTdwjWUdjx/SVXD6rHUqaFrDYUpi9fniND3aFKHmteqSucvpucKoR/eoQlVq+Ai9JtTUi1C314R/WtaN9S3tEypkkLoMx7uEiVK0HvvvUfR0dEZKe4NyF6oEvrGjRtTs2bN9MWULVtWCL37tlp7nTp1omLFilFMTEyOCD3wRV2QtLQ0IfQWwrIjCAgCBRkBN7ssyL0M4b51V4Tvnv4dHK+gTKkS1FZpeGtXjqEH3v/eMU9OEns2rUujerTWVfz5vxPpyKkzOakuy7IVIyPoxVEDCDMXdsHgoktiLTp74SKN/WWp/bQcCwJBQeCee+6xyPylS5do7969Fvk9ceJEUNqQSgQBQUAQEAQEgYKGgBD6XLwjlcqXpT/0a2+1sCv1CC3esktrU6srrSs0u/grDIKZizdGD6XixVxuGXsOHaO567ZT8sHDhGttWz9em6YUhms1r2Hp1t10If0SHTslJhAmLvm137RpU900ZqVuuOEGPTuVX32RdkMTgdOnT1taeZjviAgCgoAgEAoICKHPxbs0sE0jy+Tk3R8XeJjkbEo5SDOVqU358NKFgtTf2LWFReZXbt9Db3w/x7Kb52utXy2WwpV5SGGSueuS1MAlqTBdUkhfC8wlIAcPHhQyH9J3Mv86D/+Ef/zjH/nXAWlZEBAEBIFsICCEPhug+VsEpjSQ9EuXPci8WR5Ojr4IYRGVuUvj2tRAkeGEStHKVvsSJe0/RPPWb6fdaUfNqvR+v5YNlMlLKb2fWCPOOj+kfWM6bTh/Xrp8hb5ftNY6n5MdOPl2U6ZFEFzrmMlzLTJv1rtlj8uZ2EzjfVxbR2XXDszCVH3Q8MNmfM7abY51cbliRYtQr2b1CIOFKtHl1DVe0PgsUA7KqCM70qlRgq4LZZds2Z0J5z4t6lMp5StgykmF7W9qRiIrwUxG18a1qG6Vito2/tCJ05S0L41mqMHdqbPZd8711W7dunWpR48eVhZoHRcuXGgdB3unXLlydPPNN+tqf/rpJ0pJSaG2bdvqPtSsWZNOnjxJy5YtowkTJtDly5c9mocjIpw/GzVqRDVq1KALFy7Qjh07aMaMGbR582aPvDjAtfXq1ctKL1nSNWCMiIige++910rHztixY+ncuczO6KNGjSLkX7duncYFdfbt25dgt37x4kVKSkrSZZ1Mdjp27KivLSEhgdD27t276ffff6e5c+d6tG0/qF27No0cOZJiY2N12yCRR44c0WV//fVX3a69jHncsGFDfd3YAqOtW7fSxx9/nGU5s45A9uGbgPtSr149qlatGhUtWlTbl+NacY+9Sc+ePalNmza6DPIwPgsWLPBWRKfDmXnYsGFUp04dKl++vMYG9+H777+nY8cC/10D52uvvVbXjfs4fvx4j/aBI/ppl/nz51NyctbBDrL7HNjbk2NBQBAQBLKLgBD67CLnR7lwFS0BAjOU6IgyAduww2TnqZG9lXNphEdr9apW1A6R38xfRXDqNAWactPxls/1VSTULsEi9J2VbTyINQQmKBgsBCLXdWpG13V0mUpwuZrKgbhzo1o0uG0ivfj1TEfsgMuzN/fT2HI5bBupgQzKfTl3JU1fvtE8leX+Ld1bEWZWIKnHTtG0pZmn3O/o1caaeeEK4RSbFaFvnlCVHhnWjRDpiKVqTCQ1S6hCQ9o1ptfUrAacpIMtHTp0oH79+lnV1qpVK1cJfdWqValPnz66PWjKn3rqKY9oMyBrIMBwXoQDKwsI/HPPPacjlXAatiCQXbt2pR9//JE+/fRT8xS1a9fOass8AYLOfeD0adOmaZt6PuYtiCqcKdFO69atdVt8DltcT4MGDei+++6zksPCwnRfQf5NAXFEHRgQPPvss44E+8EHHyRE4bEL2mnSpAmBHKKsNwFJHjFihMdpYAcs/vjHP9L588EdGLZo0YIee+wxwjWbgmtFJKHrr7+eRo8ebZ7SeV944QXCwMWUKlWqUPv27TU+L774oiM+uNd//vOf9T3hshUrVqT69evr5/iNN96gpUv998MBriiDQQnk888/52qtLe4X2nUSX4Q+J8+BU1uSJggIAoJAdhGQOPR+IKfMcS25bBxc8ak7Jtp3xB1Z5m5lS8/25VZlPnYQueS1u4ZYZB5RdH5ds01pjHdpLTiK3tClBUGbbApIJaLJ4O+gKsMCosjp2MKWP1gCzTjL4i07edevLbTrTOZh97w6eS8t3JRMRzNs0iupCEEv3DogU10YPrxy20CLzEPTPX/DDlq3c782tYCmd1SPVtSufnymst4S7urTziLziAr0+GdTdXQee/7lSSmaeAPTc8rJ1x9pWrMKPX59T4vMb96jTK5UGEom8CD5fxvRS0UlCveoznjcPNLJfPaM59OWKd8PoWUFgce9hWZ1z549BBtlCLS8LNDqv/766xaZP3r0qCZtmE2Acytk4MCB+o/LYLtp0yaPP7QDAam1n3PSsOvMGf8we8CkDtFw0FfWBuN5MuXf//63nh1AGtpas2YNrVixwnLABfl85plnzCJ6HzMVTObR13379hG01atXr9ZaaGSyt2WvBGQeZaGxNvGBudFNN91kz56jY2iucR1M5oEHrnXlypVaQ4/KS5cunakNDMyYzGOWA/3EX3p6us6LgcDf/va3TOUwqEL4SQywIMAHbWFgCClevDg9/vjjejCoE7L4Fx8fTwhXymT+ww8/pClTpmQqtXHjRq2JB3mHI7W/kt3nwN/6JZ8gIAgIAv4iIBp6P5D6et5KyzzlQsYHCcVgQjL67a91Dek20wEk/rhso2UfD+fXzx6+mTalHKCVSXs0oeaY4roC2z840/IA4CvV/rQlbk0xosi8fc9wrYkf3ae9B8kfO9utuUJYQ45y8/70RY5abluz2ToE6WY5rIi1vwKKhBkFCAjK38f9RDsOHNbHRRWB+sdN/QizEZjdADHHYIalpxoIhIe5zCtA4v854ReL4jZUceGfuaGPJka39WzjUY7L27d/uqaTjsKDdDjy/mPcz2qmwdMchMuMmfwb79Lj1/W07rGVaNvBdd430BUGD9f5/FczrdCnyNqgWiV1rX11f+8b2Jle+GqGVcMz46ZT8Qziaw4evvptJU1c6DKZMp9Jq2AB2YGmHCTw6aefpgMHDli96tKli77nnAANMJM4aNLHjh3LpyxNPsjcrbfeSjNnzrQ0uyDR+GP5+uuvNXkDGXci1JzPaQtiisEDBhamBhizCSDiLIMHD7Yi6YAAgpiCtEJwDf/5z3+0KQ1MdqDZN02FcN0sH3zwAc2aNYsP9RYkGNpoX4I+Ai+Yr0Di4uJ0mxgIoH4TO1/1+HPu0UcftbKBCNu129Dew/nYFJBynrmAKRG07TwwwuDunXfeIcR6hwMzZmkOH3b95lEH8rIglrxpGoMIRphpwnUiTjxmAHwJ+vDyyy/re4LfHcj3b7+5f7tmWdwHvhfoI+5NVpKT5yCruuW8ICAICAKBIuBWkQVa8irKDxMShFvEn92chNMvqkgndkFsedMkBmYpjeMr023KZOO9+66nN+8eRq3qVLcXI4SzZM3ydmUvb5J5ZMaiVLOVth6CcJAghPkpscr0hSUtAEIP0xgm5cu2pVhkHnVhJuS/0xdytTQowwyGEwa0bsC79N70BRaZRyKccDmuf1REaR3/38rssPPw0G4Wmd+sBml//+Inr2TeoXiWSfAN4FCeMHPihcm4ILT1vE5AfTWAwQCABc8VP2OmIt7XM8llC8IWROqJJ57wIPPoF2yT2Y4a2nlobCHQyNoJKQjfokWL9HloWp1snfXJIPz75JNPPMg8qgRp/+abb6za2dwF2mYMVJjMIwPINupgwayCKSZZh82+XbZv306LFy+2J3scw/+ByTxOYKC0f7/LVCs83HOGx6NggAcwHYqKitKlMECyk3mcWLVqFT355JMeNcM3gOXbb7+1yDzSDh06RD/88IM+DWJ+3XXXcVa9hc08BAMBk8wjDdp1xhqDJV+CmQWTzGOQ5o3M+6rH17mcPAe+6pVzgoAgIAhkBwHR0GcHtQDKwM596dZddK2yEYfZhWk/jQWnHh3enWas3Ez/m73MqhX24yzRZcMJhNMieRk7ZUuX4izaYZZNN6zEAHceGNwloIEBzI0eULHtQTKLF3XbhKdnmEf40zzsx1nmrs0cKebgsZN6ISVEArL7EUBrD4GdO1ZptQtMjzB4glSrEEkIGeokjyhsK2eYDMHJ+EWlHTeJs1OZQNNqq5WGWRJVn6pXjMp0P7EgFwQkBwuQ7fTSX64nkC2cT0GgWWDOklcCsxCQOF8CLTYLyD00r6Y5Ds6VKeO639iHnTkTfBwHS2A6A+fbrIT7gnsFQm/vq1ke2n1TYM7B2mvYkH/xxRfaEZaJqpnX2/6SJUsynYJDLezTMYsRLIFjMguIub9SqZJbwcDk3Sw7adIki8jDvp0FNvnAFOI02EE6Zjtw/zETghkVEH+7QMMObLmuV155RZvt2PPl9Dgnz0FO25bygoAgIAjYEQje299esxxbCCQfPEJvTJqrj0HWoX3voiKdMClFZBrYjSftcxGfmiriCws0zFh8ypfYya6vvN7O1VAkE21lR46cOk2x5V1aeqxM6290mTjD9h7k3UkwGwFCH66iw5jCjr/eFss6eNxdX+Uot42/WQf2mczrfZWvrDJnQpvBlOoVXSu9ok5EK8pKgGUwCT1Ijy/Hvqz6k5Pz0OxmJYicwgITHdbWc5p9C+KXG3L8uNvnxVv9MCdhoghSmVVfOYwm1zdu3DhtFoOyWM0W9uL4g80+NO+fffaZpYXmMvatE6YcvYf7Zi+TnWPYn7OYZkOc5m3Lq/RitsIexQhl8Dxi5gZ9hckNC5y1Wdhmno95aw4Oa9asqf0k+Bxv2d6fj+GzADv8YEpOn4Ng9kXqEgQEAUEACAihz+PnAEQNf9Dcm3bbg9sk0pgpv+neRJZxE+sVyt4+K4KcU+08Gv1l9VYdFtNfOGASw5psOOyy2U9M2TJZ9pfbMGcZzqjQe07CduMcRQd5iimbciYufN5e9sw5l00z0iOM2Qx7PhwD32pq8SvMnjw9sg89MXaaU7Zsp5nXaZpgeasQA8DCImwK4ut6EJaQZcuWLVk6JZo281wuGFu28/ZVF7S/LNCKw5nVl8CEyBTMjiDKDWzgQUj5OcZABvbhvXv31qTeVyhIhKnMC0GfWAKZ1eHQoewAy3WYWxB9DGpM8h0Z6Z6xY8dpswz2z5w5YyXxwMFKMHZ4xgMmWp07d9azIFmZMhnFs9zN6XOQZQOSQRAQBASBABEQQh8gYMHMPmHBast2u4phfrLXiI6DiDSIOZ/bArOf7Mr+oyesoo2qx9GaZE8SY5207aQaWvkYZVrkZDpTLmNwg7CQLHBWhQ05SH5keBgne2yj1cCCBWY53mTqkvX09bxV9NzN/bUDLrTpI7s0p2/n+yZq3upzSseABzMgkMmL16m1BNzX4pS/MKX5InV8naY9OEjX1KlT+VSebqFRzkpg486Cwcq7777Lh35vYfMOQg9TnWbNmlH//v2pefPm2lwGJPfOO+/Ujr/+9MfvRrOREf1km3Zo6/2d5cFsAwYDTOydmsZ1QsxZEXPmwSTMZnm26Ufarl27zFPWPsg8Bk1wFubwn4888gj94Q9/oKwiHVmVZLETjOcgiybktCAgCAgCASEgTrEBwRXczAi1iIWYIGr22ZKdhoa2hmGuYWXwc0cp0S0ppmLh55Ys35piVd2zWV1rP6ud/UfcZjGmmZFZjs2A7GYwvEhWbKQ7wo5ZDgtVsew3BkicxlssQAX518RfLaI9rH0TqlPFrYnlvNndpijbfBbYx+e1tGrVil566SXrb/jw4XndBZ/tYVEkFrvNOacXlC0WxWKibdqKZ6d/0FLDqfT//u//dKQYniEA2WU7++zUG6wyWNCLBTHu/RU2i8Hsg5N5lHmP09LSrGrNAQPi6juJaXNvn/3g/DDXSU1NpbVr19Ls2bN1MnwL4CQbLAnmcwCncaxMiz+nUJ7B6rPUIwgIAoUbgdxjeYUbN7+urlWdamQ6uNoLgTRyaMrdaces03sPHyOOmtOneX0PR1orU8YOzE+8SdoJt2a6ujIpyS2Bhh6RWiCIWtNf+QQ4CVaArRLtnlbftt/9MR/QqmGmIogAxLbydpvylIxVYNEewlTaBau5svhjwnLm/AW1wq3L5AnlnhrRW0cQ4jpysl253W1Hjtj4vsTX/fRVztc52Hkj6gf/BULOfNUbrHPbtm2zSHKnTp10SENvdXM8cW/n8yKd7buhRUboRW8SaF9NAs2mON7qzot0rObLgsW3vDn/mlpz5Mf9ZOEVg/kYWzNWPtYKYIE5DZvKYECD0JamwGGaiT7s8J3s88382MfCZTzAgNPwHXfcYc+S7eNgPQcIiYqZGvwhspCIICAICALZQcA7G8xObVLGAwGsdPrK7QPpxVEDqGXtapYtN0xFujWpTX+/oa+V34yxDnOSL+Ys1+dg1/3G6KGWyQYSEaMdEXMQp/3Th2606rDvMOlF+l192xGirfAAwp43p8djf3F//BGWE/Hv2VkXTq3XtG5EH9w/gvq2dBNtLHy1da+L1CPizd192+trQ19qxcXQgyryDst4teqrKePmuGOP//XantoGHueBLSL28AJNMP/xFe/frHPtzn00JyPaDgYfjw7vYZ7O9j4GFKt37NXl66h78MT1vSjCcPLFoKV7kzr01h+G0wuj+me7nVAtCI03IvFAoJ1+//33dfx2vh4QSRD9MWPG0JdffsnJ+bbFQkUsiHJjrsKLdJBRaFu/+uqrTIT/tdde0/HQ4ajJpB3Xh9VTEdMdAofRQJxQdaFc+AcN+PLlrvcQyPXHH39MpqMsCPbf//53HQPfbB4hPtnUCvbrZuhOrCqLGSMIogrZzas4FjywQbx6dirGoAH3nzHDWgX+CvoITCGDBg3SA1t/y/rKl5PnwFe9ck4QEAQEgewgIDb02UEtwDIg0o9d6yKHHN3BrAILI5mEHufgpIr45YiKAnL6zzsGabtxaO4Re57FHhef07EFYcZCTSDHiKiDgYUpN7/2hXmYo32EfHz/p0X0x/4d9EcXi1rhz+l6zYY+mbVYrfg6SBNxmOv0aFpHmyGZ4T2xAqw9Cg7CUMJhGLMgwONfdw7WsxpmOZgzjf1lqdlclvufzFxMzWpV0Xglqjj5iEBk+hd8+OeR1sDMrAykfPxfbzWT6LFPplqrBQOb19XKv3DQbZZQhT58YKQ1C2P2eVdq3jg8enS0AByA0Hfs2FFrYEEUYR6BZwfE0NR0MzHLzy7DNAThLUHkYcqBBY9gn42+4phJp1Mf4QQKTTFsvPEHjbS9zJw5cywC6lRHXqaBRGORJdjEw2kVJJZNjtgOHsTcFFwTFoXCglPA4q677tJ+AchjYoM48/b7iVj3PXr00CEpMQOCNQkYV24D5i6BhNGE+Q3WBrj77rt1+yD48FPgfiNuvn1xLG5r6NChhD8W3Hv4P0By8hxwfd5mPfi8bAUBQUAQ8BcB0dD7i1Q28oGUwxTFJN3mBw2Ec6JaaAj2206CFUM/U4SUzW+gfTbJPOzKTbLpVMfL38yiueuS6PS5C5k+nk75c5IG592nPp9O8A1gMa8XISaxSq4pKcrU6C8fT7bKID8TXHzsx89d4bHAlFn2jUlzNH5MCrgc8sAR9eEPJ2UaCODcZTUDwmLu63OqzZe+nmlhdVvP1jpsJucvrjTI/kpRdb9YcK/+9N532sHZ7K/Z5/1HTtBPK7LvnMxt2bd20wRu354vWMdme4G0BcdFaHeZMOpnQUUpYYGZhRlPn9OdtmYfnM47pQVSBoscYdCBPkG4r/y8g4TCnCQlxe1fgnyw62YiiWMMVrgMrhsDBSdHWxNHp37yed6i7mAIwmGC/M6bN8/6TYDIM5lHnxFu0y4g3G+//balqcc18nWC8L/66qvWAlNmWZwD8cb6BSwY8LAAUwyenK7TKY3LIWoQm/dgtgF26yxm/ZzmbWsOLpEnu88B19+yZUve1VtzNWWPE3IgCAgCgkAWCBRRU6hudpNFZvM0OzZBSyHiGwEQ8crKdrySii+OhaKOnDytVwZF9BWEf/RHYLYCTT+iuqAcQi36a0riT/3BzoNrRn+rV4jS1wvzH5PoO7UHM5S6yq8gUl1rklohd68q4w86oM1YrAkzEcdOnaWt+1LpzHl32EqntvIzDf2NUzHvgQ9I/wHlg4CBDVaEFXEhACp2YkgAAEAASURBVGdKrAYKUwtEkwHBg6a1IArMQuCnUL16dYKTJ6KvZPVehEMtIsggEgtIM+zncY0gtAVZYMPOCzuhzyDJPADz1m84siKKDwYicAL2l7SCeKMtmPmgrfXr1xdofLLzHDz88MN6XQLG7plnnrEGHpwmW0FAEBAE/EFACL0/KEkeQUAQEARCCAFo0MPDw7PVY5i0+NJ2Z6tSKeSIwEcffaQXGMNJhO3EImMigoAgIAhkBwH3XGZ2SksZQUAQEAQEgQKHAMxkBgzw9Jnxt5MwlYGJjUjuIoBBlxkh6D//+U/uNii1CwKCQKFGQAh9ob69cnGCgCBwNSLA9urZufaclM1Oe1drGV60C7MhMLcyw31erZjIdQsCgkD2ERCTm+xjJyUFAUFAECiQCMAHIbuLU61Zs4aw2quIICAICAKCQOggIBr60LlX0lNBQBAQBPxCAA7EBdWJ2K8LkEyCgCAgCAgCASEgYSsDgksyCwKCgCAgCAgCgoAgIAgIAgULASH0Bet+SG8EAUFAEBAEBAFBQBAQBASBgBAQQh8QXJJZEBAEBAFBQBAQBAQBQUAQKFgICKEvWPdDeiMICAKCgCAgCAgCgoAgIAgEhIAQ+oDgksyCgCAgCAgCgoAgIAgIAoJAwUJACH3Buh/SG0FAEBAEBAFBQBAQBAQBQSAgBITQBwSXZBYEBAFBQBAQBAQBQUAQEAQKFgJC6AvW/ZDeCAKCgCAgCAgCgoAgIAgIAgEhIIQ+ILgksyAgCAgCgoAgIAgIAoKAIFCwEBBCX7Duh/RGEBAEBAFBQBAQBAQBQUAQCAgBIfQBwSWZBQFBQBAQBAQBQUAQEAQEgYKFQPGC1Z2C2Zs6lStQyzrVdOdW79hHW/em6v1yZcKof6sGen/v4eO0cGOy3xcQGR5GJ06foyt+l5CMgkDeINChQU2qXrG8bmzmyi107PRZve/5O9irfgdpedMhH6149ik4v00fzeXrqdF921HFyAiPPlxRL5Axk+fShfRLHum+DnBvezatq7N8M381nbtw0Vf2kD13tVxn9yZ1KDE+jg4dP03fzF8VsvfL7HgovYPMfsu+IJCfCAih9wP99g3i6ZrWjXTOiLBSFqGvEh1Jw9o30ekHjp70SehLFi9Gd/RuS42qx6mPcjgVKVJElzt3IZ2WbdtN3y1cQ2nHT/nRm7zJAuJQqkRxOnHmnP7Lm1az1woGVvg7fzE9VzCMKF2K/nXn4IA7N3ddEn2rCFOoyfAOTahaBReh35ySahH69oroX9O6ob6cMqVKFghCH4zfZqjcnw4NEqhMqRKZuhtWskRAhL5+1Vjq19KliPh55eYCS+hz+g4Kleu039Ci6tvwqnrfhIeVpM17UumdqfPsWTyOOyfWUt+VSnTm/MVCQ+hD6R3kcTPkQBDIRwSE0OcB+PgwvThqgCad9ubCShanLuqFfFZpycb+stR+Ot+OX71jMKFva3fuo39OmJ1v/fCn4QcGd6HEGnGamNz19tf+FAkoDwZj5cNLB1QGmStHlQu4jBQQBLwhMG7Ocus5bJpQhRpUi/WWtVCkh9I7KJiA91CzJ1VjInWVG3YdCGbVUpcgIAgUYgSE0OfyzYVG/43RQ6l4MZe7wp5Dx2juuu2UfPAwVVda0Lb147V2JZe7IdXnAIEz5y/QvPXbM9XQsnY1gvYesmTLLj1DYGZauX2PeSj7gkCOEMCMD8ulK5ezTeiTDx6hpVt366pOnjnPVRa6bahe54jOzfS9wOztr2u2Znlf8G46pGZ3D504nWVeySAICAKFFwEh9Ll8b2/s2sIi8yB4b3w/x7Kb35RykGau2kL1laYtXJkwiBRMBPBhff+nRZk699TI3tQ4vrJO/0zNrsA8SUQQKOgIbN9/iN6a8ltB72aO+xeK19mmXg1rJnfa0vXWt8IXGCD0TgoHX2XknCAgCBQ+BITQ5+I9La1sW7sphyVI+qXL2nnNyQl2i7KT9CZwnoUDW90qFSmmbDilKk1M0v40mr16G506l1m7Brv3Ie0SdXULN+7UZigdGyVQ81pVtf3tjgOH6fuFa+nIqTMeTcJmuoPyFWApocxMINUrRBFrjPjc2p37yVufMVUMW+u6VSro/qaoGYnNauDyy+qtdBkefDaBLW+5MqVo295DtDHlAHVoWJOg+YZ/wu60o3rAY2/LvEZUx9PTJYoXz9RX+DbM37DD1mreHsLuHPawB4+d8vrhhUfFtR2bUtGiRQj3aEWSS7vfTs3g1FBOjGnK4e33zTupV7O6+l6WVTMDW/ak0fyNOwjExZcEek981eXvubp161KPHj2s7Bs2bKCFCxdaxwVlp0bFKOqsfh/V1TambBk9y7Ir9Sht3ZdGC9Rz4/TM1oqLoVbKSf6yepwnLVpLuEcgYphxw8wb7h1mbJxkUJtGVFrZwW/cfVD/lns0rUNNa1bRNvCb1POP37X9t+lUT6Bprt9UZhMwKBT8cagtVrSoepfVJjghx8dGEY7x28J14rm0C57nJuq6gE2lqLLKVCiMjp06q/A5QuvU+wOmfHYJxjsoJ9eZUCmaOjZMoNqVY5S5YQnCbCp8SOas3eZIrLm/eK1NWbKeqqp3Fpw5G9eMU8/RJWX/fpAmqnftpcuX7Zfq9fjmri31OXwvfli20TEfTPk6JyZkOndU4Yv3bFaCd+ugto0oTtUTqXyP8B2Bdh+zNiuSUvS3yqmOvPoWObUtaYKAIJA1AkLos8Yo2zngrFRMETQIXpaXwAACEJDwvwzrbmn4URSRG0Am4Iz7r4m/ErT8psA5dHiHpjqppCK4fVvUJybnSKwZG01dE2vTM19M14SZy4JUcDlOwzYqonSm9PLhZRwJPQjp9Z1c08VchyaT6qM+UBGZF7+emWlaGDMYIOgbdh+gW3u2psrRbtKBsvhAfjxjMf2qPqos5jVyGrbA2n4NcDTOb0LftXFtRcqj6Ir68uM5cIoq0loRwusysJu8eJ1F6Ie2b6zv2elzF2hou8aaHPE1x6t72bdlfe17AWLmJNm5J071BJrWoUMH6tevn1WsVq1aBY7QPzq8h/4tWZ3M2KmtSGtPNXC6Tj3Pz4+fkYlgt6lbg3BfIPx8ZxTVx50b1dL3+W2lBbf/4m9QhA3PafNah6laTHmP3yZs4ge1SdS/k6QsBmncnr9b/M7Y0dkss0wRuIOKmPuSelUr0mMKKzYv47x4ptuq5/aGLi3o4Y8mcbLefvjADXoQayaCSDZSvi54F4A4vjVlngfZDcY7KLvXid8e7rcpeFfiXg5u67on9oGW2d+TZ8/T7b3amMW1SRT8o/7y8RS66EcUoobKsRWDH8gvytTGWxlEtLG/51AGTrFZEfpburfS+CO/KVAY4V27WA3QnJxw8/JbZPZL9gUBQcB/BCQOvR9YmYplU2N3JdPn2rOyKgY5Xbxlp+fJLI7gSPv4dT0tMg8tLKZVd6Ye0SVBgp+5oY81PetUHT6cIPPblLZx4aZkyyQE9vyIuGPK9gOHdLQdRNzBH8gnBB8JTuPtmuS9ZlG9f5v6mDGZx8AFWkp8XFLSjunzuJ4XlGOwa3iTqbh2agWZT1VabPQV2nkWEH1EfmA5rTRK3BdsmSCjz2Y69gvCVPQPS12aNkQ26tO8Hl+Gx3ZgRvQYJE5fvsnjHA6g4cfHHvcDA5TV6h7wPXJFT6qUqUx274n5vHtWatBTY9czT94emX0N5LeJXgJTCEyqoE2drUgU/hCCFoJn9vXRQ7w+s8jTXg1W+XmHphqRliAgurf0aK33nf4lVIrRv01oueesTbJmWfB7ffbm/nqQ61Quu2kYSK7ftV//BRJNC4PG51R/mMzj97lAzQrhd8W/bT5n9g2O5BBojfGs/rxisy5zShFfSKs61emJ63vqff6X03cQ6snOdfZqVs8i8/hNob94B6HvEPzuXrh1gN739g9kHs/BmuR9ug/QsEMwq8qhjb2V5fRRPVrpXfThuwXeo2PtVLMc5nuO339cj7ctIuHgmwBBXzFoxH3B+2TfEdczb75nuZ68/hahXfN3zf1wbY0Xj7HrmUeOBIGrEwHR0Ptx37+et5K+V1PrkAvprg829mEKMjojqkq6w7Qqa1uQ93CADkt3GoT781+X6Rcv6oFAkwSNEggiyO67PyxwnXD4P0ZpCZepjzkE0+T/vvdaHSkD2kBQZH4n4lpM05ZPH7pJR7mBec+Yyb/p8t7+VSgXTv3UTAAEduRPjv3BCnWItJu7tVRTvIm63UHKHGjakg1IziQgCaat+sNDu2lihMELtGH40EJAas0+Pa0GNohyAzJlpmdqIJ8SFily8Id+7TWB66NwmrbU8/phmgUNGQSx3Zn02LsLgvHoJ1OsAQw+0M/c2Fdnu0WRgac/n24Vyck9eWbcdCqunhWISRa++m2lNiFAuvk7wHF+SXZ/m+gvfhez1aAT94d/B3wdoxQZh6kUTC9gsuZtjQkQo6c+/8EitzBLGHP3MF0Os2PoH5M7rpu30FK/MWkuH2pNNzT/0OBjG8yQpwiLy9JbDSrv6tOOD31uHxrS1To/fu6KTGYg0N5z6F4ro9rBjBows8804J2DkIyYLYD/CQYD/Lzn5B3EbQd6negPtPoQEOm/j/tJm7zhGOT2Hzf1I1xjdEQZbT7kzZQK9/ivn05VZnWu2Y5oZb717z9eq9/RvZrW8/rOQzsQzLxikAf5ffMu/Y7TBw7/gKn5nsM7AO+CrKRtvXgryzvT5lnfBU7EDApmZO2S198itB9K7yA7XnIsCOQXAqKh9wN5fLQRVhJ/2DeF052mR2OVho8lLUBC30yFpYOAIEOLYspENbhgotXOeEmbebAPG1Am8ziGLefsNW7TlRhFxIMhNynCznH1/0+FuOSFiLjuCYpMMG49mtTlZI8tzn86a4lH2qTf11nHcdGuqWgrIYR2oDlmO2MQbZhpmNK7RT0LPzvZN/OBUPF9R/pGZW7F9vMgA4gNz5KTe4JnmZ9r82n39TvgdvN666tPfA1Ov03086cVm7Qm1rxG7v93C90aUl/hIZdu3WWReZQ9rhaL+zFjhgUzYbDJ9iYf/Py7x6kJSivL5J8XfvLIkMcHDapVUnbWrt8dBppONt1Ih+mfXf43e1kmMo88wBr25iy1lT9CfgpMgHimZtm2FIvMo0/43f53utvvA/4P3mTmqs0WmUeeIyfPWHXBRDArudWYzcHvPDcktrz7e8TvDbMdaOlh+miX/PgWhdI7yI6XHAsC+YWAaOhzEfniRV3Tzmgi/ZL/Kzki5jkT5OXqI+Mkq3bs1TaPIA3QYPNUv5nX6eV84OgJKwu0SMEIdQYnORYsCAKtlyUZB3hBF1Nx7TF96ySpSrNld87bnzENjPzQkAVD3lTaU+Dlr+xSJk5OhMXf8pwPdvGwpYcMUbbwJlHo09w1u4F7CK2tN+FBgXkeabD5hlSJKUdJ+w7p/WDcE11RNv9NmDCB5s+fb5U+etRtQmUlFpAdOHo2rKHIa3nlJKg07B7Pr+qjOVCyd3n++h32JG1awvbYcJR0EpiusGaaz4NAblGrUGO2CU7P+S11lHMoC89Q8rE/W+DYqm515UQbTZUUmeRIXpHGmg4I65ufYg6u5yrTJ7tA4w4FBd7J3t5dKLNqe2YzRChx8NssVaKYvVqPYwzyOVoWnIXttvoemXNwAAUPbOEhT4/sQ1/MWa4dlH057YbatygH8EhRQSDkEfCf2YT8peb9BRw5dZpYK1KhXITWmPvTC/Mjc/D4ScciWOabBVEP2Lae07B1spU1Nbwlivn+0Jh1+dqPjnBr+mE77EtgToA/1thzXqePmEnwTcdeLpOdLYgFD5b8KX+F3IMVf/J7ywNbafxB4wm76/eV5g/aSkxz44MO8eW8iwGRaSOuC6h/5swP6mJCH4x7wm1kZ3v2rIpokpycnaJ5VgZ4PXZtD0sL7a1hmKp5EzaxMM8fOen+bZpmdx55bFGm+Bw0uxA8ozD3MX+vnCevtoj8w+L0fuFzTlu8B+7p39FxZVszfzGlkMhPiTP8nJzuJfqGWVIQ23Afgw9EH7ML37us3jeYTWMZNyd3tPOof6oy9evfqqH2y4K/Eny0IHj3wo9jilI68AyRPqH+hdq3iPstW0HgakRACH0u3nUQOExbQxASDxoSf8R0Mjur7MWd5MyFC1aytyld+8vZKhDkHdZAwbZ9lpdoK9wkHIkv28yWcC6v+jpr1VbtG8D9yWrLDpJZ5fPn/I8qDN3ovu20LT0WFIM9LsLHsUw1TBE4jbcXM5zs+Ji3F1V4PJZyhlY3GPeE6y2MW8zSPH9Lf8vcAlpYhJKEr0v6ZRemHElEcWuvArMeu5iDVfO3bOY7dzFzOZw3zYMQUpBJoVk2r/bN94p9NsFXHxAdBrb3TGThPItwnvABuawWxIKmG9FjIL6w9dVGsM6ZMyHmO9Wsn+8BFBHexLxv3vI4pWOGAgN8CMLV+vuNcKorqzTcQ0Qj+tM1nfR3ia8Hs5+YURqi/Jzgw2TOBJrPbyh8i7LCQM4LAoUZASH0uXh39xvmLY2qx+kICP40B/MTFpjFOEmUCh3JYrbDaXm5Rcg2fPxhVvTN/FV52XTAbY2dvTTgMsEqgJU+EZEGH1JEmwChR6g4CAYOvsyfvJkJlVUx/FkOGlrCULon3P+83HZSjq5sO42oQuOU+YEpiNLChN5Mt+/j92n3GQlTpmUs3pzhQdadhPuEc76eB6eywU7bf+QEsf10pfJlyd/3DNatYDL/6nezM7338MwzoQ92nwOtz3zXIiINfCDsUq6My1HUyazRnjfQ4+sNrGACk9uCGaCXv5mlHX7rqLVCuqt1UnA/8H7BLCjIPvxCeFBq4hMK36Lcxk/qFwQKMgLuL09B7mWI9m351hS6KWOhEMS1/kpFvPBHzA9nvDHtbZatEVveOvRGGqwMOdjhaCe+qoBpDwg9pqSdzGl8lQ3GOQ7fyCQiGHXmRh2wVUW4OWjkYLcNm3om6tDe+xLgCoztq9EiFjgLCBhLft+TVq1a0fDhw7k7tGLFCpo0aZJ1nN879avGWl1wckJkvwQrk5cdaKOhWTWlRsVo69D0WbES1U5spMvZ1EzDPsyAIJix8mXbfMGYmYFZhP250JXk8N+uNFeIXFTTVDnpm+8lX1XXyPCpgZ8AwjjaBUQyEPHnHRRIfWbe/UfcypOaamEp+71EXo78EmyMMWhEyEwI1gIwo4zpxFz8B/M9ODTj70PlnI3ITDAPg09WVbU+AocNNu95fn+LAoWjatWqNHr0aKvYzp076fPPP7eOZUcQKGwI5K8BY2FD03Y9eBkivjUEmrf+alVUJ4GtLH/IcR5xsfEHaZpQVWtO9EHGvzJqpUkmJPjIONlWm/mzs3/6vCtetC9HMK4XDroQkM6hasErX+LLHtlXOV/n2O6YtUy+8ub3uclG5J57B3TU3YE2bP6G7Vl2bWBrt3kOZ8bCNRDUYZLH/L4niYmJ1LBhQ+uvXTv/wiTydeX2FsSFxWnBJY4Jznm8bbGwl10GtHL/zjd7WQUa7wM7scWADeELId7subkt0zQDC83lhmzY5Y54MqJzc4+1IMz2TLMMpPNvHETYHtccWuDeGSTWrMNpP5B3kFN5f9K2qbC8LAOUfbldEC+fB92B+hHY67IfD1bO8XhnQr78Lfds5+3tOh3DGZvFVIwUhG8R9yvQbXx8PDVr1sz669atW6BVSH5BIKQQcH/VQqrbodPZsb8sszqLhX4Q35pJMhytrlEk7YP7R+gVP62MaoftqfHCf+W2gYRY5RB8PF+5bZA1pZ2d6BO6oiz+HVTaNQj6ijjTIBveBM5UWMkUAltMrBzJHyqkoSzSPn7wRmvxKaQHS0xy8+jw7rrP3q1dg9Vq9uqB5uuw4TSJWqC15yluX7XC3p7JG4jSnwd1se7LQrXYj+mHkN/3xNd1FIRz7DyMvtyt1gjg3ySIPtY/4JjgWfUVMyRYZ4GfN5gwtMuwiYbJjH0lZ7O+J6/vbbWLQfoLtwywTn89z7fpGjTJPDPVt0UD/fvCNcDBOliRY9B/mIlB0L8xf3BpcbmTiP4DE403Rw/lJL3l3yPIO9ZH4HcXbLVfu3NIJgWFR2HjIJB3kFEsoF1oxqGlhmCm4+6+7a1BSC0VUvPBwV2s+sbP9W+G1SrgYwe/Xw6DCaWMt2hmPqoI+NTfRvTWi/u1UJFu+HlFPxBVqVOGTwOeqd0ZixdyA/n9LeJ+yFYQEAR8IyAmN77xyfFZEDg4Gv2xfwdNwrFYDf7w4jQ1IfaGEI8cKwyCDOND88lDN+rQlKwtQn4Qw6ycUO31+nuMRYReVCu7QkZ2aa7/uOyvKpb9xzMX86Emo2+pBayeVB8Ml5a+sV4YB9odfNRNcm8VCuLOTOWICw0i2sICVG/f4zb1wLS/fVn6IDadrap+Wr5ZDexaWWV/sC00ZZ2w7eB5eXR4D03cgSk/P3DIs5tzYYCQn/fE1vUCd4gVYWHrjdkxmD/hmcHzyvbvcITEuawEv2MsmgafCPh6m8+6fV0Fe10gyWgXttnm7xr+FL7Cl6IeOOPCTAttYxCChajwB0F5LHLE8lcVyadFbWctPkwtTBmvfvfm8zj2l6Xa3AZkHAMG5MfAEdeN3xsEzvCm4N3xslJCQKD1xp+JLQb/pq+AWdbcD+QdhHLZvc5PZi3WShLcO5hG9mhaR18jXx/qRgSqrGZNkM9fweJefM+/9bEqrL/1+ZMPzxtMyf6aEd0Gzzj6wO8R1DFVLfqnHmMPye9vkUdnAjgoUSLr328A1UlWQaDAIyAa+jy4RVgB9Sm1iqfp5Ga+RBE2bGXSHo+ewH72wQ++97BB5Q8AMmLBqIc/nJzp5YsPLYuTKY4ZYcbMy2V4i4VHnhs/Q5sM+aM9Rsz7B96fqKNZcB0gR0xw0NZWNa273BZnnbvrqy+oj/Nx3eYW4S2xgio+utmNNmHW5+++ia+Ja1blQSZZoJ1zstvl87xFPiwoBgGB4+cHg7pHPprs6MyX3XvCbeZke9m2cnJW9zcnbWWnLJ4ZPN/mb5LJPKKxPP7ZNGvGw9ezh5VeQXBxP/hZxzMIx8PVGaZoTv1bqn6/bI5n/q4RhxwrLfsjIN9w5sWzYYoda5OYmvmc9u326sDpwfe/JzgOc714/rhOXKtdqZB88Aj9e9p8j7UxGFtc8yvfzrKa9oVtoO8g7pNVuY8d8zoRhecvH0+2ngXcS64L1wwfC3PdCK6W8cAxonfZha/NzMd5rlcrfUNAqucYi/3x+UC2GVY7WRaBGZ45+MKAld8juI94vzgFNcjvb1GWF+YlQ/PmzT3OLFvmni33OCEHgkAhQaCIsjPL/Cby4+ISEhJ0roIea9qPS8nTLPjoQ0tSvUKUWk3wNKWoUJYmqXDqDD4uteMq6IWDMJ0NAmiaVziVyc802NBiYSM4DJ4+f0E7fOE6fTn55Wd/87rtNipG9yPKrAMyUa2iy0TdqR+v3D5Q4wjSdu+7ExRpLKqnyDFzs37X/kwRVpzqQJrcE2/IEMGGPkE5RELrDbtxp1CUZmmYj7E2/M63vtLEFeWxgFKSGgizyYlZhve/eHSUJv6LVYSjd6bO06YszZSfzIX0dLVK50FN8DhvQdwi2g1mNBA/HteJhde8DfhB/OFoWkO96+DfsUWZthT0dwDMleoqp10sfoV7uVddY7Y+kD5uHqLKPJBhyvPt/NWERedyIv++91oVFjlcD+zwjshKMNuCZ75CZDidV7NSmNHx9/0cSt+iDz74gCpUcDlgp6vf16hRo+iil3CxWWEm5wWBUEBATG7y+C7h48fRBfxtGtoTaLZYo+dvufzKh482Bh3+aJ7zq4/52e4NyoQJAs3dTys2BdQVYAstbqAi98Q7YiCmvki495LuM9BK4y9QgcbUjPsdaPm8zg+zE39NT6B0gK+C6a+Q1/0NtL1T584TO5QHWtbf/Dd2baGzAp8flm3wt5hjPgyaQOYhTovzORVCPn/z2suHyreoqFJ8xMTEWN2fMWOGkHkLDdkprAgIoS+sd1auq0AhAAfoWKXdHKbsnDmiEUL6mVPgBarD0hlBQBDIFQTgU1WqeHFNqgOdaYWDcWS4K0ABVgi/ubvbF2dd8v5c6W8oVtq2bVu3OZHSyv/vf/8LxcuQPgsCASEghD4guCSzIJA9BN6773qPgnAS/HiG27HY46QcCAKCQKFFwFfko6wuGuZeTqFS4Vg9cdGarIpfNecbNWpk+XxMnjyZLqlFD0UEgcKOgBD6wn6H5foKFAKYskY86//8sMCvae9Laloe4s1OuUBd3FXSGdMO3Mnh0RcMrvxFLLLhK6+cEwTsCJiO+DgHIg9Tr7en/qb8MIS0Ml6ffvop4U9EELiaEBCn2Kvpbsu1CgKCgCAgCAgCgoAgIAgUOgQkbGWhu6VyQYKAICAICAKCgCAgCAgCVxMCQuivprst1yoICAKCgCAgCAgCgoAgUOgQEEJf6G6pXJAgIAgIAoKAICAICAKCwNWEgBD6q+luy7UKAoKAICAICAKCgCAgCBQ6BITQF7pbKhckCAgCgoAgIAgIAoKAIHA1ISCE/mq623KtgoAgIAgIAoKAICAICAKFDgEh9IXulsoFCQKCgCAgCAgCgoAgIAhcTQgIob+a7rZcqyAgCAgCgoAgIAgIAoJAoUNACH2hu6VyQYKAICAICAKCgCAgCAgCVxMCQuivprst1yoICAKCgCAgCAgCgoAgUOgQEEJf6G6pXJAgIAgIAoKAICAICAKCwNWEQPGr6WKze611KleglnWq6eKrd+yjrXtT9X65MmHUv1UDvb/38HFauDE5u01IuQKAQETpUnTuwkVKv3S5APQmNLvQp0V9apXxWzGv4LuFayhp3yEzKd/361WNpWs7NsnUj2VbU2j2mq2Z0s2E0X3bUcXICDOJrlwhGjN5Ll1Iv+SRXpgO8Bs5dfZ8nl7S4LaJFF22jHrvptHvm3fmetslihejm7q1pCKqpXnrt1PywSNBb3No+8ZUqkRxuqielUm/r7Pq79CgJlWvWF4fz1y5hY6dPmudC8WdkSNHUuvWrTN1ffz48bR69epM6ZxQpkwZevbZZ6lIEdwFt6SlpdFrr73mTijEe8Dgscce01c4ZcoUWrNmTaG52vr169OgQYP09XzwwQd06tSpXL+2/Ggz1y/K1oAQehsgToftG8TTNa0b6VMRYaUsQl8lOpKGtXcRggNHT2ZJ6B8d3oNqV47R9WzcfZD+88N8p+YkLQ8RAFno1CiBKkeVI3zIISD0GLRNXLSWNqUczMPe+G4KBBIk4MSZc/rPd+78OduidlVqWrNKpsaXbt2d64S+WNEiNOYPw6l4MdfEI4jSrFVbMvWFE+Jjoxz7eknd/6wIfYcGCVSmVAmuytqGlSxR6Ah9l8RaNKRdY4pTvxFgjN/H/iMn1O9jDeG+5rYMVe9YYI37lReEHm31b+lS1Bw+eSZXCP3Izs0tsmoS+ms7NqWqMZEa0s0pqSFP6Fu2bEm1a9fO9IggzRehj4iIoDp16mQqV62aS7GW6UQhTChbtiw1a9ZMX9mOHTsKFaFv2rQpdezYUV/bd999lyeEPj/azOvHUgh9HiEeVrK4h+aygxok/Hf6Arp0Wan1RPIcgZKKvD85ohc1qFYpU9sghI1qxCmtYDj95ePJmc7nV8KrdwwmPEdrd+6jf06YnV/d8Nnuz8s309Y9aToPtKq9m9fzmT+YJ5vXqkoVyoVbVfZVswW+CP06heO3891awhGdm1kky6rEy864OcupfHhpfbZpQhX1HMV6yRnaydAk39ClhcdF4PcBLfLDQ7vR2F+W0kwfgyaPgnJw1SEwbdo0atDANTiKjo6m9u3b+4XB0aNHafr06Vbebt26UXi4+7dtnZAdQUAQsBAQQm9Bkbs77erHezSAqcQWtavR8m0pHulykDcIvHL7QMIMC+T0uQs0a/UW2rDrAEVFlKEmNStTZ6W1FwkcAQw28AfBrEdeEvqujT01gdB0YgB07kK644VgVm3yYre5w/AOTaxZGscCRuLcdUnW0aUrlwsloW9UvZJF5q8oe6IpS9bTlj2plKgGuwPbNNKDnzt6t6Vt+9JyRYvNAM9dt00N1CJo/a79nJSrWzwvPPOAaxPJPgILFy4k/EESEhL8JvQXL16kTz75xGq4cePGQugtNEJ/Z8sW9b3dsEFfCAZveSH50WZeXJfZhhB6E41c3O/SqJau/fzFdGUSUExPXXdTBEQIfS6C7qXq5glVLTJ/5NQZevKzH+jUObdd8IKNO+ib+auoTd0aXmqQ5IKIAJv6HD11Vg3MXNrz9vVrkkm+C2K/C2qfhijtPMs70+bTki279OGa5H2EwdDd/Vza1sHKHOedqfM4a9C34+asCHqdvirEO/qtKb/5yiLnBAFBIAcIrF27lvCXl5Ifbebl9aEtIfR5gDjceupnmHZs2nOQYIcPR9vG8ZX9ar1Y0aLUrUltXQZ2pDjGBxUf2KxsSmvGRlObetUpoVIMxZaPUDaZ52incvKavmwjgcw6CfrbRQ02YEaQUCmazl+8REn7D2kHsd1pvkfTIMtdGteiSuXLau0o7L33HT5B8xVJhnbPm0BbPqhtI22nG6mcjUGwD504rTVlK5JSguqoeluvNlY33vh+jgeZ5xNHlO3sjJWb+dBjCzviXs3qqXsaqwYG5bSGH/gsUE7Rew4d88jLB/2UTW65MqVo295DtDHlAHVoWJNaqhkaXDcwhdmCHZ9qFcoTTLNY2Ma/eoUognmIKWt37s9UHudhDwxtKmTehh2UduwUNVSaV/gN1K1SUdvoLlN20L+s3kqX4dVpSGR4GPVsWlfni1HmR6nHT6nnII1mr97miJlRNM93a8XFaP8CNAyt+609Wmtb+s7K/rsgEnr8rjo2TNA+NbC7x3MDm+k5a7eReRfwjMDv5rj63fpj2hKvfu9t1e8dtxK22ZcuZ8/BG74aTTLeT2fOX7TIPN/YX1U/b1e/IzyTGPjiN2E3H8zus4f3Y3f1vrPLztSjWWrp4WfSq1ldPYuA/qxTWn1gGqfeR3hGTiiHXji62gW4NYmPsyfTiqQ9tP/oiUzpSODfJ7DG7EVV9VuGU2vjmnH6nblZvesnLlyb7Xvg2KiR2LVrV8ucBcmzZs2i5ORkI0fwdmNjY2nAgAFUr149ioqKoqLqG7R//35KSkqin376iY4cCb7jcE5737NnT2rTpg2x3f3u3bvp999/pwULFlhVw/H0tttu08fAb/v2zM+GlTljZ9SoUQQb/3Xr1lmzD5wHduFt27bVsxElS5YkbnPu3LmcxXELB1E4D1euXFnjin768jFwrCTAxMTEROrVqxfVrFmTwsLC6MCBA1pr/v3336v3h/kW8qy4T58+2i8CDsoTJ04kPBtIw3Xjmvft20fjxo3L9Cx2796datTIrCT79ttv6dy5c56N2I6ADfqKWZ5jx45pfwL0s2/fvvp53Lp1Ky1evNhWiig7bcK8q2HDhvqZRt9wjPsKnDCbsGTJEpo0aVKmtgpCghD6PLgLTZSTID54kMWbd1E5FSkChB4fzdpqu12RQW9Sr2pFekw50yK6hCk1KkapD3cNPSX+8EeZHy6QfkTi6N6kjllME0hMpV/TuiGNUVookDlTQMSfGtk7UwQP9ANloLmesni9WUTv4+peuu0aPXAwT4Kwwk69p/rIvvvjAkfH4Vu6t7JIp1kWhBMfyMVq4BIsDSDsnuOiyupmoMkNNIIFCMOzN/ejaGWaYwps7uFg++XclTR9+UbzlN6/sWsLfb837D5At/ZUL241EGCBaQiu8+MZiwlEiQUa5+EdmvKhtYX22Z5ePryMI6GvGFnWypt2/DQ9Oqy7JiJcGdqGCQVMjXBvWWCP/heVlx1MkQ67aUSwgSP4vyb+WqAchs3nHINcmLjhOa+vItng2fT+eeIrzrvtdZ2a0XXK+dEUDLw7q1k8PEMvfj3TGmzjN86mRHDUtZNmsw7so3xHNVjEB3miiiyUXcH7iSOMeHMM36beW8AY7zYMMnemepK67D57VStE0s3qnWAXEGRfZjd4jp8c0dt616I83lsDVUCDA8dOEDCGOY0Toe+SmGAFPvBot0gR+mGpyzTAI10dmL/Pk2qggAGOKVCIwKH4Lx9P0dFszHPB2B82bBjFx8dbVYFs5Aahv/766+mmm26y2uGdihX/n73zgJOiSP9+kXPOOSdBEANBjJgRMcczpzOLnp5n+HvmwOl5nvHFeKdnjogBFVEBA4iASgaRnHPOb31r9umt6e2ZndmdTfA8+5nt7sr96/Srp556qp5houGJJ55oHnnkETNmzBiJKtIt5PSee+7JMRm3cePGzuQHEnjvvfcazHp27NjhyCgNZhJqbh506ACcfPLJ7vyoR8yJ2L/rrrtMu3bt4s4dsgsZpU689lCnL+XKlTMPPvigI6oSXrduXbP33nsHJikSnsnt5Zdfbo455pi4Ihs0aOAm4fbr18/cdtttZsmSJXHxcjBgwAADlpBwOgE33nijRLkt58xkXu4bX7iHOLewfPPNN2bOnDnh4OD44osvNscff3xwzH0HzgcffLBhXgYYct9HEfq81Mn5Qd65VnQg6KiI0H7q5vy43sVNShe3BhXH9vidVV+LuStFmoB2XQQC/Z0lHCJRmiiJQ2t01znHBmR+qdWuYg7CB2nespgmOEz0Je/tZx4ZkHlIAEQSN2jYN4tNMZpwXypXKG/+cfGAgMwzCvDVxBlOOyeuHJkgh3Y3LHyAGQVAcP1IPRBbbFHR0iN0MsICIRANMu1E0/3ZuKlmpNUmL1y5xiUvbT+qmRLxIEF5TIpMR2jFA+cfH5B5RhBo569WOw6BggCde/h+jkwmKhfSAZnnWo6eMttp5yUtRN8/11mLl5uxM+YGP9GaoDH1w9mfOHuBFJNwe7r1rIFWkXKW2GuLJx9xi+fXS6flr6f2Dcg8HU7uOSFsdETvOPMoO+IQf/8krLgQIvZv18zVQicNt4pjssxDIJtMWi0uwsiOkHmuwwR73bgPaDfSwHY27znvuKC543/Pvq5tGtULwhPttGsc+2AusfdXfjoxdbzJxXNCRF3q9kfr6lSP7+BKGtmmeu+RntExiLv85L6XsqK23IsoIkRx8vviFVYzP9ONZDKPAjKfTKZZl5hSX17s5iHzvL8wR+KdJ+9LRrbEtXGy+iXOP1f/WyPxRbFFG43QNrSvaI7Rcv/xxx8uvIw1Ib3llltyEGgXWQT/IFriWQdShq02v+3bY3Np0EzfeuutrmVbtmwJPKxInmRNRuMv4ndgnnjiiYDMUyYuJseNG2c2bYo917hMvOOOOyRrsKUdkEaEtpJvxgw7Smexpp0FIRBtIfPUQ33UK64ja9asaQYNGpRr1RDp66+/3qXjnLk30Nr797BfyM8//+yIN+R7zZrYt92Pj9pH8y9knnIZERo/fryhPjogtCGZ5KVOKY+yIfPUxf2DpyEROlzhzpvEFeW2bFFWXlLqfuPbn8171oUhsjXrpcA+JhKXPP4Gu2Z7kqHtbtYMBYEAbrJklx+kAzK+X9tm5oXPf3Tx4X/XDzgkCHrt63FmqDWT8QXtk7jN9MPRHIn3Fsxq7nzFDol65jVoXZnMJmRO8l5mbWJFI/u6PeePfszWTPHBfPzyk52W+ZKjesWRfPJzHggP3cDnPghIvAu0/7pZUrV49To5DLY92mdrmP790bc5RgzQ8Is9dJApHzuNs1zCUcSKdRvSKqmvJWNVKpZ3eSDxD739ZUCaMGOB5ELqz+97QA4TBb8iyPGzn34XBOEtBE0sRJlrB8lDuL98M5wXrz/bmTFh9vLYB98E+VPdAUc6Eve8McyRJsmHmZTfOb3I3hsi//1qrOtgyTFkFA0z50kH5KmhoySqyLZ40xGPM9KxYVSHexxBww3RKmqhQ8hIDcJz8n+vfmognggdqjvPPsZplBn9YYQBk7pfvHYzWVvWwHCZQv8oQ7z8TLYd+PxIHYupSCK/8344k1aTSar3HmUss6ZdD7z1ZVDc89edFekiNEhgd8BVRhRY80De16S5+ZTDnQMCP314H0WLjFZiavbMVaeHkyQ9hsDf/OIQsyTrHcc9+cSfT3FtOqJr+7h3KQVd8u837MhRqbjnjvDbX/nElM1SfKAYKQ4C4cPjDL7jhaBKu/Bac/PNN7tDTFfQQhelYF4jRIu2XnPNNc5EgzahXf33v/9tKlSo4EYW6tSpY1asWOFIJgQNbW9ughtOkbFjx7rdE044IcgLWYWkiyaezs6TTz7pzFKY2IvHn6lTY6ac1atXd+2gELTdV155pVm7dq0rEw3w//3f/wX3tAvMwD+ekVNOOcWVxDvo7rvvdqZDBGBG9dhjjzkTJTpxkP5hw4YlrJVzQzA/wcRGhJGOc845Rw6DLf7mRU4//XRz1llnyWHCrYwM0VZGMugkIbTv6aefznWidF7q9BuDec/VV18dmAShvb/gggtcEnB8+OGH/eRFvp9TZVrkTSp+DUDzIkScfV8knAVCogSNKLakyM/WHlME204EIiIfYYljCyEX0xAWVAmTedIQjulDWCBaIoPe+SqOzBPOxwfzDn9CLm0UTzxoZH0yTx607MOtth5B4yUdBhdg/4m2lgllopGXOLYQKrTCYcGuXyTK9AgtPaMLmRLf1GXF2o1pFXvc/h2D9E9bl6P+nYBZgrQT8sLoSpRw/7z4RXwHzvdD3bB2zBwoKm9+w3gp/v0127mzGlBf6ED4hJfOF8J1ZLTEF3zzC9Ho6XXG/DSFvc/kcpHvpvzhdmm7dFi7W/Oh4iCYZUmHcKz1biVknrahjX3mk9FBM/tnzXvg/SLPU+fm2S5W6UAzinL5sb2DPK2sjbiQ2vG/Z79rggRp7KBZFlnnTRiXMLY+oQ+boPnp2E/13gvnS/W4j52PgDD66JN5wp6z77qCls/HTw3IPHXxjMn1lXej3wbaybWV0VKJ4zsi3xT//SLxRbHFrASPM2EyT1swc5BwsVUvijZKnSxkJYL9M4RMZPny5Wbo0KHukOfk1FNPdftocREIqm/CBNl96KGH4jzzMIcAgXgLaYecIowA3H777UE4YZj0+N56RNtMHIRQnlfcewqZJw6NeSr2/KRNR3r27Ok6NOSZPHlyQOY53mmVko8++ii7TmThJzmO2tJOn8yTZt26dcYn0lH5Uglj5KJGjRouKaNBQuYJYDQB+/2CFjoNvn3/kCFD3DWlXkx/ipuULW4N2t3a49v2+qY2EA/sphE0iOGPUNusBaiID8cRlkykg4DJjD8sniyPPySN/3W0xmgUnWTtVPPs+LEP9e1ZV9jRh8rWxpoJfjfYvEwSkw+aFBO1ZTIg9trI7WccZV6x/r3RfiebzId/cRabSUfQ/qPtxv+8SLJRFUnjb4W0oOVmkmJYvvl1VjDRuam1A44yVVhqNXjhlUQXZZkWUZ7UES47E8cTrYlRVLv9sulgykfG7/D5aTAD4d5lNIdRBTpx+ZFrTzg4RwcxWXmMJlz7zLtBh4rJpQik0ddMo93m2eKexP5fzNSSlV2Qcb6519fWHCQsaHfphHANMHsSmWFX2GXugv+MnmQ90DD/BsGXPvlkEithv1kXrJzz3047ksOUBWLKHBkZqSPjzpASQwrzzbQkLNE2lXsvUd7cwjHlkwnjMkLj5wEbRigL8tkaPys2qubXu8y+E7lGFcplv3P8+PzuYweOeYQIk1QLUpo0aeImCDJxE202Gl1EzB5kW5BtyK1szDBEhLzLMVu0yULkOR8E8yHRujLigD03mnQ06ghzFcQ+G60+4ptfYFeP8N6E0AsuLjD0T8xrCPY7QFFt/fbbbyMX1woVmdah32FhEnBYmMS7YcMGp/lm8nNu8uyzz+aWJM/x/sJi2NmHhVEjmdAcjsvUsd+JkDK3bt1qKlWq5EYJJKy4bJXQF/CVwJQCQTPrD5fz4YGA8BKAHIVJezM76VVEbJflONlWSBZpFifwzhCVv6X1uiGChlnaLWHhrU84iPufNQlioSbkAHvO/DjnJXYyGp4eEnnjGWInnB27XydHINCeo3VE+ABjA/uh9Vgi9qguwv7Dzpg2piMyX4BOjki6H3jIK+KbL0lZbJesyS4bH+xREpXXJ/hCTKLy5jds3tJsbVWisnzS6Z+Pn365nVwrwnmmc39KPn/LBO90r6fkZ7RI2kw7fLtjOs0yoZSO9Stf/STZimTb0JsILaYZ4YagjYfQV7GeXkR4V0Do6Zgwz2XTlq2mZYMYsSANHRrmq+yVpcGHwNLJwltMurhi4ob496mMKrgI718Fi73Iuk05O7gSxzaVe89Pn85+3KhbAjM6cE33eU+nDXiACouMZEkHORyf32MmwRaGD2/IC5NMW7dunbTJyYhs0owZjBSzGTTjaJzDwmiCfHeFnOOhBztpTHEwvXnzzTedRxXJKyScDoCYmfz0U+xdAimX60tcbnbvmKOIiIaX9oj9usSxXbAgZyfRj8/LvnRiyDt//vzIIoTQM9E3mdDupUuXJkuSrzjfIw72+WFhhESuZTguE8cyAhMui3CeCbkXwvFFeZz9Ri7KVuymdTPUKtpyJmthg+6LvAggJOEFcPxhWn9o288ftc9HXATPC6lKjcrZBBlXbYncL0p5vnaeMCbB4p0DzzpCCjhn9tHAYgZ0/5tfmAUr1kgRbsu54aXnyn59nJZWJrXx8cVee4D12oG9ud8hQBtWxRKbdES0s742PLeJfH75aAHlesmH2o9nf+PmbUFQosnK4c5JkKEQdhIRdL9qv92b7OTbKNloNRQi/n0qYelucZmJG8dUBdIu5gj4mRfB04r/jJW2958IHdSiJvT+CJePobSRrdxb8hwQNsGbGIsd/TpLTonHPIMOIOcGoZdJ6TLvgk5DlEcXykwkTLBGfHM0v91+Pj8cbXQySeXeS5Y/WVzFrI42aRKNFiUaZUhWbjpxiUwu0ymjuKZlgiReTRCIMjb1TH4UUwTcZ0KG5f1YlOeB20REJsBGtQWiDxnzCSvkmQ5Ls2axuWD77LOPy8r5li1b1tnl49FHRLzb+F5b6Bjk5mrSJ6ZglkwwXcm0yARnyk1UPhpoJLfrKelc4gL4518fudcKoJrdqkgl9AV4OQ+xLst8CWu1/bjwAjiLVq51E0lJgyvJRL6Q/TLYRzsnvdZk9YXzLfDMPviop0sEKA878pteGOLMMLpYn85HWdMYzAB4MaB1vLr/Qea2/3wcrtrZm0L2GcJva710oE1l1AKNOIQFsj9m+hyn8SezeKPIUVAKAfjEF8EtZqqCCRAjDhApJs1FCRPhRDDLKW6SzIxJ2opJkIh/PhLGtpZ1kSmS6n0p6aO2ifz9R6UNh+FnXoTRqUT3PDbhXLfcTI6krILY+tjSnqi2VM/qWPvElMn0HPM8+GY1733/izmtzz7OrKOS1d6LJl3mQ2DH7U++Tuec/AnjvH+ipJ43EdZPH5U2lXsvKl8qYQvtu1LEt/2XMLbpKgD8vHvyPhpoIfOQ+KuuuiqH5rt3796BXXZRY4WmG9IqxD6qPaJZ9T2t4FMeQk9eTGgwN6FTgDnOYYcd5lxb4o4RQZsv9u6+nTsmT0899VRUlZFh2PejpU9EnH3zocgC8hDoa9QbNmxomFcQlipVYvNnknWKyAPPKEjxOz9gISvL+nUmws5PsyftK6EvwKt9oOfe8dNxU3LUhNYXe3DkELsYk78Azpxl2T6dcbuXDnHasHmr86DT0i5ChY4ylceOxaZEmlvb2/wI5AMtPz80vniMgAg3rZO8XDSvTPTlN/iz781jl57kzGsgak1s3lTnAyRrO2ZITERjRARTDzoadIJSkQ12ciAa6frWt3uU+FpmfyQgKm1+wsQLRn7KSJTXv89aeGZffvrm9bOvI3MnEolPSsUsJlHavIRzb+NnHkGzPeLXnHbpXGNchSIHd26T0Kc48ZDOcqaMXYAt+vqSJkq22oXXRDhPmcQqYbJdtDK7s4SJW9QcEzGRCZfBfIz29lxZzIx7Fxn52+9ucTI6pqf2ydYe+hp9qTvdrf8+6GJHBaKESb4iC5bHj7xJeGFsN1oTJFFiyLwCv14UBb4bTj+uJO8zGRNvKCJMAs306pv77befFO+83ITNWLCbFwIYJEyws3Fj9mR80YQnSJojWMwfIOqY9oTbIRkgqBBViB4E3CewpBHzGfbpoIigccefPnLZZZe5/His+eyzzxyhB2fpJGBnLoKWGy0+nYR0CThtE488uMz0OweU79uQS3353fpmNrjS/O2333IUKWZBmN4Upfi+6Rkd+eqreAcgMsehKNuYqG585B9++OFBNHMAouYBBAkytFM6Q+VoMSEE0CwLIULDxnB/+Pfyl2PcKqNkbde4fpwP8kl2UpsIPpwTTUDzTSQk/TTrXxzB5vZou0JplNCZIF5kwYrVweInR+3TIZhkJvH+lrypCiY1qzdkv8hTzUc6OQ/2M9UTp3PzvtVsilzR70DZjdtCFllZ0pd5WavAognFTWVYGJEQSXfBKsmXbLvBaoaQRFroZHlTjaOzI543ulp3lmGbfrwhCYmGdPo26+E6fDtsX7McTpfXY3/BNnx/h58vjp8cOjIovk+nlsF+1I74gmf1X65/quKbp2HrnkhmWHejIsfZeSNhwXONzNMIz0tgJWCEDgNaaLAHXzFFk/Lo2KTaQQ3X7x9ThpjHYf4mZnSShmdDRgTogOOZpShlTtYK1uAT7jwyj8Kf5FuU7cxk3WjGWdFSfhC0TItvVsFE0bBceumlKb+b/YWKaHM6Inn5DnTv3j1hVsyBRKJcJ4obRNJMmZKtZINMQ8wRyBgCyac8OhOY1uBmEsGziy/SNtL4Zjl+GvbDk4b9csKLMJGeFUozLYxEiLDYVVhYXRcTI8TXkIfTFcYxGnm5JkxWDuPnX8vCaE86deC/nk6g/Gh/YUjqzKwwWrMb1dHDLocuJDSZxkzcV6LBxge5CJ0A0dhDoh67LKatlngmx2GK8s9LYloFCWeLmzbMQxAWPDnResSgfIT/uCV89urT7cqUrVwY/0iPhxkEEveoLRftpggdCtqHr+wXrz9LgoMt5eE333fXiCbxWNuhkGHwpd6kUcl4q13Z8Z5zjzO4FhQSRV1oVfvYlTMRtG9zEyxuI+Wks8XeWLTHck4QFOrHdIEJvU9eeZq5pn/sxS5lvzpinOxa39Z9gxVXwZZ5AjJfApOHTJCqoLKsHRYLQiD0rD+QCfv1rKLjNkOshyKE82IhLTBB6Dw+cH7/4L4OT+R2iUL/xFUp7luvs/cHnlfAiZGR/Iq/YJu4qwyXiVmLaLu5n8MdFD+9uB3luWXVY+5B2sovUYea/GjaZfj56O4d3erNXCPy+XNaYot5xUg9pPPSo3sF5XL/XWfvIZHX7IrDvoyfNd8/DOzq5bzlXROl9Y/LmMbBx966Fzyj8oyw/sX/nZVNBoaOnZRGqQWT9L/Dsyc833deP8NCYzwfmO+xvoZK3hDwCeBhhx1mxLac0s4991xz5JFHplWwuJGE/OIWkk4IEzXFnCVRYeJlhvgbbrjBadPJx48JiiJMaBVTkYMOOihYlIh4SLOMOGA2gwtCX0RjL8/Sl19+6aLDmvORI7OVBCT45z//GRSDlxtZtEkC0cLfeeed5vXXX48j/MOHDw9cfkIAjzvuOJeFEQgW6vI9GElZ+d2i9RYtPdeAemQyMxOCr7jiiqCKwYMHB/tFscM1krkKkPlnnnnG3X+MwLA6bVQHsyjaWZzqjHXFilOLdpO2+La98tGNOrXv7CqRvTq0cFGH2BVlZVEhAtDgY26DhgyCgAkKkyohD0JMWDU0LBAYFgSSBYJY3ZUf2jtfKx/Ox+REPGbgkhIy8tCF/R3RZ8KXDPOTRzoLfn46GPix50f7NllNr/hzUOHZAABAAElEQVTfl3QvfTFGdoMtaRgmvznLuw1tREspL1USDrELXMW6J0G2fO3Q/rteG2b+fvbRDg/OFxJAu/16fY84VIjZA2ZEMY8jZc2gi04IJiZKg7g+XLeCkNe/+dnca4kVcsbB+7if1MOKvs9//oMc5mv7kfM81NERIojnC7YDJzbcUjA201+MnyaHCbe06Xa74BbCfS73Olj/6ZFXE+ZLJUL8y1NWeJK2n58ONVpari0TSEdPnu1HB/vgi097ni0mmEq7ScCEb+aIRAnaachvfzuBG00wHWh+CFpuFhwSeeGLH1yniM5S327tzOFd27pnWp5n0rH6cNgLDiM+3LfSMR+VdQ6iqRcPLriHzJSMnDTLEWIIPM8pz0hYwDaRe9Nw2lSOmbfx5BWnRiZl7YvXbj4viONdcXHWwn5T5y9xoxUy9+bGkw4L0rGDGaKMKMRF2ANG1uRdGY4759B9DT8ROn3M99lTBPIHCcTdIZM4WewIrSkkkOeJZ08mmaaCyXPPPRcsRIXJxAMPPOCyUU6UllrKhNidd955zuYcAo+7QnFZCMH+17/+5ZKiTcc/+Zlnnunad/HFF5uLLrrIxfnvdhbJok5f8MsOWUTwHiT+9XEfKeSRcxdCLHkxzWEBJog82u3LL7/cme3QseDYr1fyyPZ///ufYZQDYUtbBVtJk+ktvtXvv//+2PvQdiQw1QpfQyb3+qZF+W0Di0KJD/9wWX6HiLgPP/zQ/Pe//3XJuF/QcuOPnnkN3H8i4IupUyJ881qnlJ+fbXg0IXyv5afsZHlVQ58MnXzEQRIRPsLT7McmkfBBlIsdNkvAneF1z75nPVhMCdJAGOTjD9FORKoIv9VOQEXTL+KTeby+TLV+2cNyz+vDzEuWkIrXBgiET+YhEFGTGCFU4sGFB8wn8+T55wdfBwsv+XXi09zvlNBGeUBpAwsZvTlyvJ8lI/uQ82uefdfZ6wv+Ui8VYHYy4tfs4Vup9NH3R7g2SR65FsTTARg4+P0cZIw4+XZIPsKiRNJFxbHwFh0RyEtUpyoqz85d2a7bkpXt58WW/Lr/917cYlNiCkI6VtQcOPiDlDpZECDIMJOEU22z35ZE+0zUlPsZc4tkpj9+h9r3ihMuG2J+g13leMbCZcH9L2mSlU+a12xn4FU7wsW97kv4evPc3fj8B8FzyT0n9xBpWRHaX2DKL0vmZYDjJPu8ifja+yh/6JIu3S313P3aZ4ZVd8PnwTFuZaMWtpN68nLvJRsJkXJlGzb9e+Kjkc4nv38N6HgyHweTQmR7llmFlMFWOkl+WKL9cpZAiPiYZPtdktjUn/nsHOnt+fWTM5FdeXql5kx91113udVUJUZIFISKlVfF5CTcHknvb9G0s7ommvpU0vt5r732WmfuIvb0EhcuB4L6+OOPB5p6njF5t5OX+qP8vvujAOPHZ39zsN2WOhYvXizVxm3RZkOSpRPgnmurVZZ6wQoTn3nz5sXl+/TTT80TTzwRmJYItnQcWGFWJJPXdtq0aWbgwIHBxF7aSL0I5wmhZo2D3EQwyS0d8WGCmyyPn5Z5F3/+85/dhFi57tTLXAlcqQouaPPD4pcTjgsf+2nlvKTscFqJD4f7x/5cDcK5zoUhpWzPO76bmmKt0mB6pyqFgwAkpq3VZpexpB67XUhpKiQJMsZwOXawfOCY8JaKSQhmEWjP8Q4CIaPO3PKh0W1ofZOjacPLxkKrofQnWiZCCg0jZhl1a1QxWyyZRrOJzXpBesfw20K7mVwIqWN1WnFz6afx9zHPYa0AcF29fpOZvnBpXMfET1uS9yGbbRrWNY3rVHfXH5MO6biV5PMqDm3HHKed9epUwz5nM21nbYG93/P0Mi6Ek+F+ZyVaFreaZe8B3j3FWXjn8eGVNR5wZ8ooJ+1G0aGSPgJorzHLQEM+ZswYk4jcpl9yweXAJAczIcgZJL0w2sykUvzRM/EXMx5GOFLhSYwCkI+JqpDuwhDMetCA47+femfOnBl0Xgqj/nTroL14J+LZpiPyzjvvuCLodKXjYSjdetNJzwgLnUrpzDEXgc5oYYgS+sJAWetQBBQBRUARKBIEUEw8fdVprm4mEaPJV1EESiIC+GYXbzvptB8CnMjvfDrlFKe0J5xwgrnwwgtdk55//vlC04LnhgHzIZibIHLbbbcVWgdNbegFdd0qAoqAIqAIlFgEmPOAVy3mM2CexmhHQ7uqNBPvRd4ZFe+hRMJ1qwiUBARY5ItRh7zIqadGz03JS1mFmQd7+nHjxrm5ETJ/AU9EzKlAMLdhDkNxEfGSRHsYnSms0RbqU0IPCiqKgCKgCCgCJRqB+takBs9ETMxHMEf07eOZ9J+K+V+JBkEbv1sjIGYcu/VJhk6OdQ5YjZif2K/7OLz00kuBLX0oa5Ec0uGSdjI/ojBFCX1hoq11KQKKgCKgCBQIAmNnzHNeisSbjZB5Jsn+Z/jYwGd/gVSuhSoChYAAk5Bzc/EZ1Qzx5x4VV9zD0Mo3atQozqMNhBlPRI8++qiZOnVqsToFXGoWlagNfVEhr/UqAoqAIqAIZBwBPIHVspPs8UjDytC5eSjKeAO0QEVAEcg4AlWrVnWr8eJJqKgXvcr4yWWoQNXQZwhILUYRUAQUAUWg6BHAC9OyNbFF2Iq+NdoCRUARyAQC69evN/xUEiOgfugTY6MxioAioAgoAoqAIqAIKAKKQLFHQAl9sb9E2kBFQBFQBBQBRUARUAQUAUUgMQJK6BNjozGKgCKgCCgCioAioAgoAopAsUdACX2xv0TaQEVAEVAEFAFFQBFQBBQBRSAxAkroE2OjMYqAIqAIKAKKgCKgCCgCikCxR0AJfbG/RNpARUARUAQUAUVAEVAEFAFFIDECSugTY6MxioAioAgoAoqAIqAIKAKKQLFHQAl9sb9E2kBFQBFQBBQBRUARUAQUAUUgMQJK6BNjozGKgCKgCCgCioAioAgoAopAsUdACX2xv0TaQEVAEVAEFAFFQBFQBBQBRSAxAmUTR2mMINC2UV2zb9um7nDC7wvN9AVL3X71yhXNsft1dPsLVqwxoyfPliy6LYEIVK1UwWzeus2wdLxK3hA4qnsHs1/Ws+KX8M7oiWbmwuV+UJHvt29S35xy4N452jF2+jwzfOL0HOF+wCVH9zT1alT1g8yuXcY89sHXZuv2HXHhu9tBxfJlTSn7t8k+KyVFDunSxuzdspFZtW6jee2bn0tKs1Nq5wHtm5u9mjUwazZsNh/88GtKedJJxPW+fsChplSp+FxLV683L37xY3xgho56d2xpmtWr6Ur7/OdpZvWGTW4//lu8wH6Ll2WoxrwXE98m5QdhJH2etHDFWjNq8u9BkhN7dTEVypU12+w78/3vM3/vBhXtITtK6FO40L06tjD99t/LpaxasUJA6BvXrmFO6hUjBItXrcuV0P/l5MNNm0Z1XDmT5y4xTw4dmULtmqQgETihR2fTZ69WplGt6qZc2TKuKgg9nbZ3v/vFTJm3pCCrT6tsCCQvv7UbN7tfWpkLKXH3Nk1M15aNc9Q2ZvrcAif0ZUqXMo9ddrIpWyY28MgH4ovx03K0RQJa1K8V2dYd9vrnRuh7d2xlKlcoJ0UF24rly+2WhH6f1k3su66LaVq3VnDeu2wPZtGqtWbomMnm619nBhgUx50DO7V013rz1u3FitDDkZvUjRHXZWvWmy3btqcN3+F7tzVcH/IWCKEvV850a5Xzmd6weWuBEfqTe+9t77UYLlPnLQ0IfS9L9Pvt38lhVLlC+WJB6DPBDzJxH6R94xRShka1qwc8aYnlST6hP+OgfWxHMdZTVEKf/wuihD7/GKZUAloOX3PZ23YSnvlklNmx06r1VAodgfKWvP/t9CNMx6YNctQNIdyreUNTu1oVc+PzH+SIL6qAhy88wXAf/fLHQvPQ28OLqhlJ6/3sp6lm+vyY1qx2tcrmyH3aJ02fyUhITd3qVYIij7ajBckI/a8Wx7dGTgjSn35Qt+DjEgQm2Hl1xE+mZpVKLrarJTsdm9ZPkLLkB595cHeDJi0sfIhRalx+bO9iT+jDbS8ux3VtJ33QRSe45vxn+Fgz7OepxaVpQTvWb94S95wcvW+H4N4PEulOvhAoCfdBvk5QMxcKAkroCwVmY3p2aBFXEx/D7m2amp9mzIsL14PCQeCBC453ZITa0DR9MWGamTRnsalVtbIbmj/Iau1V0keAzgY/hFGPwiT0mFX40qRODdcBQisbJYyq+RpNtIIyShOV3g/zNdI7du3cbQn9+UccYI7dN2ZWiEb+iwnTza9/LLJQ7HKdYa4vo0YqRYcAo1+Yea1eHzNLyXRLGLH0nxM6sNKZzXRdWp4ioAjkHQF9E+cdu7RyHrxXa5eeYdGyZcoYzAMOtQRECX1aMGYk8T6tmgRkfuX6jeZvLw01aKFEGBJ8c+R4c0C75hKk2xKAgJj6rLLEplbVmPa8V4eWqj3O47XDpOgYO8qBQOrufn2YmbUoex7EuJnzzVujJpgBPXNq7/NYpWbLAwJ0Lv0OZh6K0CyKgCKwGyCghL4QLiIWYh2yTDumzF9isMNnIk2XFo1Sqr1M6dLm0L3buDzY/XKMdvHHaXPM91P/SFpGy/q1zQHtm5lWDeqY+jWrWlvEzeaPJSvNJ2MnG8hslNDeg21nAzOCVg1qW9vMHWam/ZB/+9ssM3fZqqgsQRhk+eAurU2DmtWcdhR7bybCjLQkedr82GTiILG3w9B9/x57mYZWq1vDTjaGYC9fu8GgfRo3c15GJ6qidRR59L0RcWRewlfayXOJhr/pjB3Rrb29pvVtx6C60/CDzyg7KXr+8tVSRNz2GKvlrF65gpmxYLmZPG+x6W1teve1IzScN5h+bm29w/hgQ4pplohoj5tZO2bMQ3z5xWpNw/mJh5Qdf0Bs/se3k343y+xEtk52Ah3zBto1rudsU8dajL+0mtedzOr0pEaViqZv13YuXR1rfrTU2vjOXLTMDJ8wIxIzL2uh77ZuWCfQFKNNPO/w/Z0t/UGdWxdLssNzdWCnVm5ODXb33DfYCo/4ZYbVfWcL9wjzbpjwyD2Sm7Swz3sP+7xzKbFJ3bEz7xO8z7CmNmLf+tGY3+LIvLSDyWzv2gnPUZKfey+v7yDmmXDPco+Xts/pL7MXmq8spqkI7+VD7LuL54Jnj/fPzIXLzDCL+/pN2R1+KUueT7D+8MffTBP7LDOZs0vLhu6dOdW+698d/UuOa9Ddmoa1bVzXFcOEQZGeHZq7d4Qcs+VZi3pPM/m8QtacH0m/zr4zv/l1lhzm2ILp3nZ+C6PFDWpVs1r2ik6rP9t+Dxh1kZG1HBkzEJDX70J+qm7Xrp05/PDDgyImTZpkRo8eHRwX9U4m7gP5vsee91+csnD/ts0Mcw0a2mu8dPU6+x2bFndt+3ZrZ6pXqmh+X7wiLlzwYF4ZHIP7gTRRAndhvlSbhnXte7eM4R5COfnzrPlRyTWskBBQQl8IQPMShQQiP0ydYx+mGKFnqLqNJfa+1ivcnPZN6pmb7GRaPLD40rxeLfvhbm6wbx343Pt+lNvngcQTx2F2wpQvEEg8IjCx6LEPvzGQOV8g4redcWQODx60gzxorj/84Tc/i9vn7O47v5/rOPiR1IedOi+Rpz4eFTlx+E+H7ReQTj8vH1Y+kD/Yjsu/h3zrR+V5n6FiXnQImlxeROkIhOHv5xxjalvTHF+wuedF+L+vfzaf/DTZj3L7Zx3S3RHOSXMXm/P67m+YKCSCaQjn+fywH+LIBxrnk3t3lWTBFu1zOLxmlcqRhL5ejWpB2mVrNpi/nHRYMNmMAqm7s207pkZcWxHs0W+0aWWCKeF4nWAeCBPBB737VbGaMOzf53RyIS3c5x2sJxvuTZ8kyzkW1fbUPt3MqQfGX1c+zAfZUTzuoXvf+DwgcTzjYkrERN3c5tyQnwmgmMckItqpnjftEfnUzo1IV/J67+X1HQTJuOW0I4J3Le1FcUKHFo8syQTCecNJh8aZXPFsMBmUEYh/2I7/b3MwNcoW//lcZwn/BZ6igFQoRA62Hcobn//QefGQnLSH90VYeE+G5/TgGSqK0F9o65LOlpTD6G8yQj/42jNNlYrlJbnbuu+BbQttQnHyrw+/zdEBicuQ5kF+vgtpVpUjee/evc0xxxwThLdu3bpYEfpM3Af7tWsWvN/xsvfQhf1z3MOY9v7fq58GPANlB9xjou3sRnXizj50X4cZCp0woWfu2cATD3WTsANg7Q6KBN7BEPp/WV6hnuJ8dApvXwl9CljT+xXxtZi7UqQJaNdFINCVrNb0HEtikcNsXCJCz0Ny1znHSlb3UZq+cKnZaSfSonGHYIWJviS+/cwjg48DJABt0YLla0zD2tVM+8b1nfYcTbgveA34x8UDAhLHKMBkS0D5COxne/2QOzoQaK7CLjo5H9qE4PpxutVsoXWsW72q+7ChiaKTERZIFy82hHbOXrLCeUOhTjSTfHBKh/2lhQtJ45iPtAiTItMRPk4PnH988FEEB7zg0Eno0qKh+8Cee/h+ZsW6DW70JKpsyDMCwZhhtd3NrCaQzhkC0WfoXO6xWYuXm7EzsjtcaF74iG/css1MmhtPLibOXuDKSPbvdOtRgM4AZI/612zcZEdt0NRVisOYTstfT+0bFMX9iVvW5nZ0COLJx+COM48yVz79TrHxtrO//bAhdNLQpo6xnUDuLTrS2Pzy8SoOwsiOkHmuw0R7DzKHY69mdKoqOc3pPecdZ6555l3X3PG/LwgIfZtG9QIPW4nOpV2W5neJvb7eaytR8qTh4sWH+9k3SUuaKUFkqvdeXt9BvF9utZPcheTiznDhyjWus8r9LC4Qo5oHMf/radn3O+/KuUtXm8Z1qrtRVEbGKPv6we+7d19UGZB53l+Qfog1Iyu8LxnZwrXxRz9OCrKhoNiwZas7rmLfuULued/OW74qSMcOYVHykyXflezIDkKnhVGe3AQyhvCMzFm20ixeuc6N4NFWviO842+xODzw1pe5FZVyfF6/C/43N74y7672duPTFO6R31Z5d9OC3PhBJu4D/0xvP+soR+YZNeO+2bp9u1XY1HTf+kx9QsNzz8b/Pt/xERRAPIPcS1cdf1CcAs7Hp5hcMh+23WpfCX0Kl/ONb38271kXhggPiQgmDpc8/oY73J5kaLub1f4gEEB8N/ODdMhL9IXPf3Tx4X/XDzgkCHrt63FmqDWT8QWtubjN9MP5QImmB+3Ona98Gqfl4UNz4ZE9AldgkveyY3oFZP51e87+R4iH9fHLT3Zk7pKjejnC6vfC+RggkJSBz32Qg+ih6Vpsh//C0qN9iyDo3x99m2PEAEIv9tBBwnzsNPYIPUQlHelryZhouBiifujtLwPSxBA/JBdCcX7fAxISeurDdOnZT78LqkbjgSYWosy1m5BFzrm/fDOaF68/272cMXt57INvgvyp7oAjRP6eN4YZTIpE0E76H5+L7L0h8t+vxprPxmVrZyGjaJg5TzogTw0dJUmLbIs3HZmkJx0bPpbc4wga7uJA6OkQMlKD8JygNRMNGJ3WO88+xvBMM/rDCAMmdZiMiOBHXdbAkDB/Sxni5YeOeH5E8KQMzObyK6nee3l9B4GrkHn/XQnmt591tOvcRZ0D8Vcd38dFcU3ufv3zOIx5j9559tGubIjKPXYeQZTwLrz5xSFmSdY7jnvyiT+f4vId0bV93LsU8zZ+CJ0N3qsIJn6JzPxcAu+f//zT+YZQ5SaYHqGIwTzQFzB42HrawYSIUQ6+S1EmRn6eVPfz+l2449VPTNksBRAKIpHX7RoCmDEh/rdY4otim1d+kIn7wD9f3hsoDJ+w7rDl28y1Pc663F65Nvt97+dJZ5/RJr7HCCPNeFoTkz4UJ/ed189p6nvZd9cHVkkl5rm8sxLxpEv+/YZb08L//qTTJk0bj0BOlWl8vB5ZBNC8CBFn3xcJp1ccJbwkRdP1s51EJvJr1vAtH075CEscWz4kYhqCtilM5klDOKYPYYFoiQx656s4Mk84DzvmHf6EXNoonnjQyPpknjx81IdPnMGuI5XSYXAB9h+EH0E7FUUAIFT4oA0Ldv0iUSMVaNl4eWRKfFOXFWm+5I7bv2PQjKety1H/TkBTL+2EvDC6EiXcP+HFWHz/u4ygFJRAWP7+mu3ceWSeuuhA+IRXfE5zHX0yT1p888sHtqfXGSOuqITJ5SLfTfnD7dJ2WYwGW9XiIGhipUM41tqbCpmnbWj2nvkk2763f9aoFe8XeZ46N892sQpRgsjhMlKklZ1HIKQWzVl+xB/JQqObX0nl3svPO6iPnY+AcG/670qe0Wc9XF0i7x/zGOTdhdIm3GFyI5t2dArpYDtbEKQo+Xz81IDME88zJtdXyo/KV5hhuMUMk3nqByPmAIi0sfdRpkTOPd3vAt9T+bb679lk3+JMtTndcpK1Sc4hET9It65k6XlOMaMVMk9asMMENMpsK1lZUXFiisO1hHcImSctGPxn+E9BNuax+JIIBzyQEZfIE5lfhu7njoBq6HPHKF8pfNve76b+EZQF8cBuGkGDKCMALsD+a5u1ABXH4ThJk2grHQSG3aSXnCithGNKIYL/dbTGwccra6eaZ8ePfahvU7rCjj5UtiZADP3eYPPygZAPmpQbtcUsR7RLt59xlHnF+vdG++2/LML58C9+YtaCXuG4RMdo/9F2y7Az6ZKNqkSVI3bzzlzFTlIMC/arMtG5ad0aZs7SnPb5TFIKryS6yHZaRKQOOc7kFvMOJlcmEzqYQgr9Dp+fBzMQ7l1GehhV4AWfH7n2hIODEaVUykGbc601SZEPPaQMgTT6mmm02zxb3JOYXMxbFj1hOZU6M5HGJ8lf/zIzR5Fod+mEcA3Q3IrMsHbUzF3wn1EWeWL+DYIvffLtbbWrIr9ZF6yc899OO1KCUtpCTJkjIxOwyeQThJQKiUiUyr3nn1867yBM+aS9TA4PCyOjgms4TjAkvLPFr5nVLIbfe/LO4Lmgo/5HxHM9ftaCcNFmma2X8pk0WFyEc8PumvNoYJUpmPwgNew9J8Lk4ExJXr8Lmaj/7bffNiNHjgyKWrUq3pwpiNhNdnzXogVxSmKiy/N2tR2tCp4TKos7sPwly/SvINqhZSZGQAl9YmwyEoMpBUIP1tf+YBoAAeEjATkKk3Y+LCJRHxCJC2+FZBG+2K7imKq0tF43RNAwS7slLLz1CQdx/7MmQSzUhLAUOT/OecnqtW6INJE3niFjJlkb006OHKI9F9ttNAojLOn50HosCRMKPDTQxnREXka+TWq65BnyiiTSdixZkz0CgQ/2KInK6xN8ISZRefMbNs/aBecmPun0z8fPt9xOrhXhPNO5PyWfv2UOQbrXU/Kz0Ja0mXb4Nqx0mmVCKR3rV77K1iBJ/sLcNvQmQotpRrh+tPEQ+ioeqeJdAaGnY4KN+SZrf92yQbYWlQ4NWri9sjT4kFc6WRCzdHGVIXVWgBWhPfmVVO69vL6DmEQrAnmPEsE1HOfb1qeyOBgjilH3Ox6gwiIjWdJBDscX9jHv9MuPPTAYMU5UfxnbUc+U5PW7kIn6N22yTg9mz85EUSWiDOafFZTwvZf7GI6RGz+omeb3uaDavaeVq4S+AK84w42iLcfGTGwlpUp5QCAkEBN/2EmGKkmbjj2jr13B80KqUqNy9kcb/9KJ3C9Keb52njBmy+OdA886Qgo4Z/bRwGIGdP+bX7jJlVIGW84NLz1X9uvjtLTkQSDb2GsPsF47sDf3OwRow0Sz5BKn8E+0s742vE71eE81yYpBKyHXSz7U4fQbN2fbeiaarBzunITLKMjjRATdr9Nv9yY7+TZKNm6NTegjzr9Po9KmEoYtKW4cUxVIu2jn8TMvgjtP/xnDbaEIH6CiJvT+CJePobSRrdxb8hwQNsGOiIhgR7/Okn7iGcanA8i5QehlUrrMu6DTwHyNdEQmYePeVEQ6w3Kcl20q915e30FVK8W0zLQrkWmD/2712+9fkyjvXX5a9hN5xUpUbzh/UR0z+sGcLHmH8T6EAGKmsdMujAZhE69GVseUMcnrdyFjDdiDCmLkuKAEjzcimMGOnT5PDiO3iRQWkYk1MGMIKKHPGJQ5CzrETiLxJazV9uPCC+AsWrnWuUwjDRooX2Pm5wvvo50TzX+y+sL5FnhmH3zU0yUClIcd+U0vDHFmGHh9wVcyZgB8RNDyXd3/IHPbfz4OV+3sTSH7TOpjqA5tKqMWaMQhLJD9MdPnOI0/melMhDsUOQpNEIBPfBHcYqYqmAAx4gCR8l9ufn4mwokU5MtV6kh3m8yMScrCJEjEPx8JY1vLusgUSfW+lPRR21QnAkblxc+8CJqjRPc83ka4brmZHElZBbH1saU9UW2pntWx9s2Y0DpzzPPgm9W89/0v5rQ++zizDjyeiH2+zIfAjtuffJ3OOdFpkg4Dy9LToU3l/klURyp58/oO8kfdfILutyVRx5O84mUKkwUfdz9/Sd9n3Qoh8w+/MzxuzgznxvtWCH2mzzWv34VMt2N3L2/7juh5fOHzto+2k6iOm3hOCufBQ57IfLvvuziWcN0WPQJK6AvwGhxoF+8R+XTcFNkNtnwksQdHWNDEX+0Pt2IiuN1LhzjhBg9Na0vrZhBli2gzpbyoLYtNiTS3trf5ET6KaPn50Y5nrjrdEeGm1oVWMoFEMNGX3+DPvjePXXqSc+MHUcP9VqrzAZLVgRkS2jpGRPiQ09GgE5SKbNi8xWmk61vf7lHia5n9kYCotPkJE+8P+SkjUV7/PmvhmX356ZvXz76O2MgmEp8ciVlMorR5Cefexs88gmZ7hHX5GRausbgKPbhzGzPUmnglEkhnOVPGufJMlCYqfKtdeE2E85RJrBIm20XWTaAI5iVRc0zERCZcBvMx2ttzZTEz7l1k5G+/OzdxdExP7dNVio7T6AeBedjB9SzY0YnFw4X/fspDcblmyes7CKxEicHclSgRXMNx8+yibmI+gF25bxYZTlsQx7RbhO9BQQkuZxEUDdLh8+tKx+ZZvMswiRkljG/m5pcZ3s/rdyFcTqrH++23nzn55JOD5OPGjTPvv/9+cFycdgrrPuCcY8S/rInq/Ppe4Hx8mLjK6DLfYhZTVCmeCBTcG6R4nm+htQrNshAiNGwM94d/L385xvmgplHtrG94Xo4ik+ykNhF8OPtxEs7WN5GQ8GnWTRSCze3RdoXSKOHjQbzIghWrg+Hqo/bpEEwyk3h/m86HB5Oa1Rvy5jJLzoO6RbvktyMv+3w+37eaTZEr+h0ou3FbrgSrj/oyL2sVWDShuKkMCyMSIomG5iU+L9sNW2ImVIm00HkpM5yHzo6YJ3S17izDNv18xIVEQ6SSfcz9+QK+ZjlcZ16P/QXbWFE4/Hxx/KR14SbSp1NL2Y3cijcXPljZT2Jk0rhA3zwNW/dEwroDIsfZeSNhwXONzNMI22nLZE86DGj3wR58xRRNyqNjk2oHNVx/+BivKCK4heTaR0n4OYlKk0pYft5Bcq/RuZEOj9TJpHvBVcJk669syRoSySSd916ycvy4Vd5q3Yk6I376vO5L2+nYhL8lPONHWpe8qQqjxwjv5HbW809eJD/fhVTr69y5s+nUqVPw69mzZ6pZCz1dYd0HnNjaTTHHCI1q5ez8smZCIpF3Ep77/Mnk4fRyr4XD9bjgEVBCX0AY92jXPCChvg1suDpxX4kWDB/kInQCRCPGh/Sxy2LaaolnchymKP+85EQJCrbPWZeUmIcgLHhyovWIQfkI/3FL+OzVp9sh1lYujH+kx8MMwgv+UVuuDEUTxkeA9uEr+8XrzyIoTigPG03fXSMf1mNthwICgiz1Jo1K5ltPP9Lcc+5xBteCQqKoC81gn6yVKtFezI3wLCFlpLvF3li0x3JOkBLqZ8iRCb1PXnmauab/wXFFvzpiXHB88yl9gxVXwZZ5AjJfAg1YpkhVUKHdYbEgBELP+gOJzAhconz8G5Llwo7zYiEtGYal8/jA+f2D+zo8kTuqSnFVykfgOnt/MAkRnDIx0dJfsE3cVYbbgFmLaLu5n8MdFD+9uB2FqLDqMfcgbeUXJkF+PjTtomE7untHt/ga14h8/pwWsGD0CYGYX3p0r6Bc7r/r7D0k8ppdcdiX8aEl1eWdIuctHd4orb9fTjr7dFSkvdxr/7QjZjwvYMhHG5/5LHyH/+lMSH7eQW+PmuiaAA73/Om4gNRz3/nreYTbScdbsGSBJlaa9a8ZHQFMAP912cn2PXVsOHu+jzlneRcxgsS7x1e05LuCrAKk08m1+5PtuMgzzVylf1w0IOlzEW6D79EHj2ZMPJfnJNxxyut3IVzn7n5cWPcBOM5ZusrByfeZNVMQvn1YC4j7VxcY+ve0XeldhDVXxM21hPGsYVb78g3nJCX8kl63mUdATW4yj6kr0bftlY9uVFXfTZltWIgBOcSuGiuLCnGMBh9zG166EARMUBj2gjwIMWHV0LBAYFgQSBYIYnVXfmjvkn0smJyIxwy8PfCCZhlpXjTY0vpaL8LCQgeDB5wf7dtkNb1hjd5LX4wJZ3Np6O3fnLUyKW3koyAEhQxD7CqLOWvMUVTKAbT/rteGmb/bBWPAg/OFlNBuv17fNpfCMXvAjCjmcaSsGWQXYxE7Y6mc68N1KwhhUZV7becHOePgfdxP6vnKrhHw/Oc/yGG+th85z0MdXYcB4vmC7cBBOvyPNYtyfTF+Wq710Kbb7csf4T6Xex2s//TIq7nmT5ZA/MtTVrI5FRA2SAfXFvOK8CrHUgf44tOeZ4sJptJu4pnwjS1wlDAc/bFd9K2/ncDNkDQdaH4IK+yy4JDIC1/84DpFdJb6dmtnDu/a1j3T8jyTbuSk3+N8mhMG8eS+lY75KLtAECKaevHYhHvITMqgd4fb5+RY1xGD1Isnq0zW4ZeV13fQSDv5l0n0vCchFizCFr5n/Xr8feYZPGJXyKbDirJj8LVnBKOV/nWZszR7MrifP7/73Dun2LZzbSHIvrCOiP9NIG7wNWdEjszyfL5283l+djeniUmM3Nv32845wmgOPzE9JAwzTZmDwXEyYaIrk2rpnHNPXHFc9ignpqWMjInk9bsg+fekbbr3QV6xecd2fpkzgaCRP2bf2Mgy78dk9wHfw3dHT3QLC3Kv0VHm3SvPmf/tdIXrv0JHQDX0BQS5uEDjIzzNLiWeSCAbPBRI2CwBd4bXPfue9WAxJUgDYZCPDGQyEaki/FY7AdV34+aTeV7IU61f9rCwEuJLlpBSNsJHxifzEIioSYwQKvHgwoPtk3ny/PODr4OFl/w68Wnud0poo7wYaAMLGRXEBBzI+TXPvus0kIK/1Ev7+NiN+HWG31S3/+j7I1ybJI9cCyJ54Q20y8NHzfDPusTBdcxRcFaApIuKZ+EtOiIsdhPVqYrKgwcLkWRlSxq22JJf9//ei7O19ck8qxEOHPxBSp0stN6QYWx3U22z35ZE+0wUl/t5jrWDTmb643eofa844bIh5jfYVY5nWNtxuf8lTbLySfOaJUyv2hEu7nVf5D6RMJ67G5//IHguuefkHiItq5z6C0xJPrYyLwMcJ2UtTEe4r733tafE5Vd4Nv/28kd2UbnpOTChbNrM/RAlebn3KCcv7yDeoDfZjpP/TpN7dtzMeTlIsd9ertmVT7/jHAHI9eKayHUhLWYmn3orJhMmad1+xNMgz5ufjrRhgSQx+seoXirPSNkyZcJFJDwWT090CJ/4aGQwGkAGea/zPnngrS+CMqTdQUDEzu2vfGxGTf7dKYn86PC55vW74JeZ1/2dodXbw23La7kFlS/d+4B2+OeUynUjD/OkWJ1e8vIO4sdzcOt/hpLESVR5fI/5Bsl7jnz+Nxtyz/sg6hso5eq24BAo1aJFixibTLOOVq1i5hp7kp/XNCHKeHJIDMPC+AlmCBVSmsoHgA8bQ/q4kESzyuSzVExCMItAe453EAgZdeaWD41uQ+ubHA8peNlYaDWU/kTLRKCgYUSzVrdGFbPFkmk0m9isp+IdI1GZ6YTTbuxvIXVotCBeyYQhStYKANfV1vXb9IVL4zomyfKWpDhITZuGdU3jOtXd9cekQzpuJek8imNbMe1oZ706sagPK3gusPd7nl7GhXhyvBOYP8J9wXPC8H2485PJ5uTlHYQ5SWfrZQuzIMzfGPVLVXiueX/x3oMMM4medwHvhd1BUAgxIbu5dfHKuU2zJmCF8Y7N63dhd8C8uJ4Dzwlmc7x/WOsiyutWsraTn+8f68e4b719H4RHtZPl17jMI6CEPvOYaomKgCKgCCgCioAioAgoAopAoSGgJjeFBrVWpAgoAoqAIqAIKAKKgCKgCGQeASX0mcdUS1QEFAFFQBFQBBQBRUARUAQKDQEl9IUGtVakCCgCioAioAgoAoqAIqAIZB4BJfSZx1RLVAQUAUVAEVAEFAFFQBFQBAoNASX0hQa1VqQIKAKKgCKgCCgCioAioAhkHgEl9JnHVEtUBBQBRUARUAQUAUVAEVAECg0BJfSFBrVWpAgoAoqAIqAIKAKKgCKgCGQeASX0mcdUS1QEFAFFQBFQBBQBRUARUAQKDYE8LyxVaC3UihQBRUARUAQUAUVAEVAEFAFFICECqqFPCI1GKAKKgCKgCCgCioAioAgoAsUfASX0xf8aaQsVAUVAEVAEFAFFQBFQBBSBhAgooU8IjUYoAoqAIqAIKAKKgCKgCCgCxR8BJfTF/xppCxUBRUARUAQUAUVAEVAEFIGECCihTwiNRigCioAioAgoAoqAIqAIKALFH4Gy+WlilXJVzAsn/sds3rHFrN60yixav9AMmfqBmbJ8cn6K1byKgCKgCCgCioAioAgoAoqAIpAiAvnS0JcqVdqUK1PeVCtfzTSr0dz0aNLL3HfEQ6ZN7bYpVq/JFAFFQBFQBBQBRUARUAQUAUUgPwiUqVmz5l15LWDrjq3mw6nvmWGzPjPz184zBzTp4YqqVqGa+W7eqLwWq/kUAUVAEVAEFAFFQBFQBBQBRSBFBPKloaeOLdbcZsXG5ebL3z83f6ye7aptWLVRitVrMkVAEVAEFAFFQBFQBBQBRUARyA8C+Sb0fuXLNixzh7Uq1vaDdV8RUAQUAUVAEVAEFAFFQBFQBAoIgYwS+m07t7pmli6d0WIL6NS1WEVAEVAEFAFFQBFQBBQBRaDkI6DMu+RfQz0DRUARUAQUAUVAEVAEFIE9GIECIfTlSpfbgyHVU1cEFAFFQBFQBBQBRUARUAQKD4GMEvo1m9e4llcsW9E0rd6s8M5Ca1IEFAFFQBFQBBQBRUARUAT2UAQySujnrZkbwHhQ80OCfd1RBBQBRUARUAQUAUVAEVAEFIGCQSBffujDTZqz5g/Tq2lvU6NiDdO5fhfTpcHepnmNFqZDnY5uFdlN2zeFs+ixIqAIKAKKgCKgCCgCioAioAjkA4GMEvqdu3aaYTM/NTvtX6d6nU2DKg1Nh7odTZf6e5ufFowxyzYuzUdTNasioAgoAoqAIqAIKAKKgCKgCIQRKBsOyM9x6VKlzQNHDDLt6rR3xSxct8D8smSi2bhto1m8YXF+ita8ioAioAgoAoqAIqAIKAKKgCIQgUBGCf1hLfsGZP7H+d+bf4x+yOyyfyqKgCKgCCgCioAioAgoAoqAIlAwCGR0Uqxo5mnqkGkfKJkvmGumpSoCioAioAgoAoqAIqAIKAIBAhnV0FctX9UVvG3HVjNt+dSgktx2brnlFlOhQoVY3m3bzIMPPphbFo1XBBQBRUARUAQUAUVAEVAEFAGLQEYJvSC6eceWtLTzPXr0kKy6VQQUAUVAEVAEFAFFQBFQBBSBNBDIqMkNk2JVFAFFQBFQBBQBRUARUAQUAUWg8BDIKAOvVqG6a/n2HdtTPoPSpTPahJTr1YSKgCKgCCgCioAioAgoAorA7oBAxth0tfLVTMe6nRwm89fOTRmbfffdNy7t4sXq3jIOED1QBBQBRUARUAQUAUVAEVAEkiCQLxv6CmUrmlsPut2gmW9Wo7kpU6qMq+qnhWOTVBkfddBBB8UFPPnkk3HHeqAIKAKKgCKgCCgCioAioAgoAokRyBehL1+6nNm7Qbe40r+a/aX5ZMbQuLBkB507dw6i58+fb6ZMmRIc644ioAgoAoqAIqAIKAKKgCKgCCRHIF+EfsO2DebBkfeaTds2mVWbV5kVG5ebLdbDTapSpkwZU6tWrSC5aucDKHRHEVAEFAFFQBFQBBQBRUARSAmBfBH6nbt2mnTMa8Itatu2rQvatWuXmTlzppkxY0Y4iR4rAoqAIqAIKAKKgCKgCCgCikASBEq1aNFiV5J4jVIEFAFFQBFQBBQBRUARUAQUgWKMQMa83BTjc9SmKQKKgCKgCCgCioAioAgoArstAkrod9tLqyemCCgCioAioAgoAoqAIrAnIKCEfk+4ynqOioAioAgoAoqAIqAIKAK7LQJK6HfbS6snpggoAoqAIqAIKAKKgCKwJyCghH5PuMp6joqAIqAIKAKKgCKgCCgCuy0CSuh320urJ6YIKAKKgCKgCCgCioAisCcgoIR+T7jKeo6KgCKgCCgCioAioAgoArstAkrod9tLqyemCCgCioAioAgoAoqAIrAnIKCEfk+4ynqOioAioAgoAoqAIqAIKAK7LQJK6HfbS6snpggoAoqAIqAIKAKKgCKwJyCghH5PuMp6joqAIqAIKAKKgCKgCCgCuy0CZXfbM9MTUwQUgWKBwP6Ne5hj2/YzSzcuMYN/eiblNpWpVNPU6XmBqdahrylbpY4pU7G6WfrNE2b56OdSLkMTKgKKgCKgCCgCewICGSX0h3RpY7q3buJw+3jsZDNz0fKEGJ57+P6mRpWKZsKsBWb0lNkJ0xVWRMXyZc3FR/U0pUqVMsPGTU3a9ry2qXXDOuaEHp1d9omzF5qvf52Z16IKLd91111natasacaPH28++uijQqu3JFY0YMAAs88++5hVq1aZJ554oiSeQsbbXK50OXN9rxtN5XKVzdDpQ1Ivv1Rp0/qSt0z52i3i8pQuXznuWA8UAUVAEVAEFAFFwJiMEvpeHVqYfbII/dT5S5OS4qP2aW/KlS1jKpYrVywIfeXy5c1Be7V298TsxSuStj2vN06rBnVMT4sRUqlCuRJB6Pv06WPKli1rKleurIQ+lwt/0EEHmTZt2pht27Ypoc/C6qROpzoyz+GQaR/kgmB2dOUm3QIyv2H292bRZ/ebbWsXmV1bN2Un0j1FQBFQBBQBRUARcAhklNArpoqAIqAICALlypQ3p3c+0x2OW/iTWbEx8Yid5JFthQYdZNeS+fvMlmXFfzQraLDuKAKKgCKgCCgChYyAEvpCBrykVfftt9+aGjVqmIkTJ5a0pmt7ixiBQ1scZsqUKuNa8e7kt9JqTZlKNYL029YsDPZ1RxFQBBQBRUARUARyIqCEPicmGuIh8NRTT3lHuqsIpI7AgA4nucQL1y0w01ZMTT1jKOWuHdtCIXqoCCgCioAioAgoAj4CxYLQ161exRy2d1vTtVVjs3PnLjNl3hLz1S8zzLI16/22xu2XKV3KHNGtvenQtL5pXLu62bB5q7N7HzV5tpm/fHVc2vABtvLd2zQxzevVMnOXrTJjps81MxYsCydzxy3q1zY92jdz+8MnzjAr122MTLdXswamc4uGLu6jMZPM5q3bI9PlJfDMM890WnLy7tq1y7z88svOTjsvZeWWBzvwLl265Eg2adIkM3LkyBzh4YCDDz7YHHHEEaZu3bqmQoUKZt26dWbJkiXmyy+/NOPGjQsnD447d+7s8rVs2dJUrFjRLF682FDne++95845SJi1065dO5de8GjdurU77tSpk9m6dauZPn26ef755wsEp6ZNm5oTTzzRtG/f3pQuXdr89ttv5sMPPww3Me741FNPdZOLp06dakaPHh0Xx8EFF1zg5iqMGTPG/Prrry7+sMMOMx07dnTnQp29evUyq1evNm+//baZMmWK+fOf/2w4Xybh/ve//3VhUjATmc866yx3OHToUFOvXj1z1FFHGXAiPW1+6623kuJTvXp1c/7555sWLVq4toPrmjVrXPs+/fRT1xapL7ytVr6aaVK9qQseu+DHcLQeKwKKgCKgCCgCikAGEShyQl+3emXz6CUnugmycl7tm9Qz/a03mIfe/tJMmrtYgoNtvRpVzd/POcbUrhrv8WKv5g2dF5n/ff2z+eSnyUF62Sljydctp/U1XVo0kiDTpE4N07tjS0fqg0Bvp1zZ0ubk3l1dSC1b3+DPvvdis3evPL6PqVOtitm+Y6d577tfsiMysHfKKac4sidFvf/++2b58tTtkSVfKtv+/fsbyHJYINrJCD3egZ588knTsGGsUyP5a9eu7Qhhjx49zIsvvmg+/vhjiQq2l19+uTnmmGOCY3YaNGhgunXrZvr162duu+021ynwE/Ts2dMRVMIgmaeffrofbZo3b25IA+ndsmVLXFx+Dg488EBz4403Om9IUk7jxo1N3759HVGWsPD2jDPOcNeQTkAUocdDDgIRF0JPGGQaIi4CLrfffrurC2wRyPrdd99tLr30UrN27VoX1qxZsyAfWHTokG2TTnraQcfrL3/5S2S7qRPsuK6+cH0p6/jjjzfnnnuuHxW336VB7JkhcP7a+XFxqRyUKV8llWSaRhFQBBQBRUARUAQsAhldWAptqYi/L2FRWzTgeLtZunq98/oiri7RwN92xpGmasUKcdmgFw+cf3xA5pev3WBGTvrd/PqH9YBh64eAnHv4foE3GT/zFf0ODMj85q3bnHedCb8vcPl6tG/uJw32Zy5cbtZu3OyOIf5R0rSu9ZdtyTwydsZcs8OOMkTJLpMd7kEVlbTIwn788Uen6UUDzC/V63jttdcGZB4vL7NmzTLY36Nl37Qp5pmkTJmYPbV/cqeddlpA5qlrxowZzl5//frY6AwEd9CgQX6WHPuQefLOnDnT1bdjxw6Xplq1aubss8/OkT6vAXXq1Ikj8/Pnzzc//fST61DgCQiiXFACHmjWEe5xyDy4LlsWG1kCW5/4++0QMj9nzhzXXsGWuREPPfSQn9TtM7Lik3k6j2PHjjXcG5xzKvfEXvU6B+UuWJc+oa/a9uAg/64dmRvtCgrVHUVAEVAEFAFFYDdCIKMa+sc+/MaUyyJtW7al/hGeMHuBGfTOVwGsJ/fe25x+0D6OuJxx8D7mxS+yh+z7WjObKhXLu7SQeLT4QpM7WbOXO848yuU7v+8B5sdpc4IyK1cobw7MIuTrN20xA5/7wGzcstXFt21U19z9p2NdviCDt/P5+GnmtD7dTIVyZc1+bZuZcTPnebHG9D9gr+D4/e9j5hJBgLfz9S8zzfdT/nAh27JIpxddLHbR/vMTefPNN+NGByQ8vO3aNaaRhexdddVVZuXKlXFJMOWZNy8eN4gpow8I+dAyi3YaU5bHHnvMYGpStWpVR/qHDRsWV6YcQOBvuukmM3fuXBeEFpnRAsrHBAgTpUwIIwmUiWBig5kLQtijjz7qtOkuIMP/OD9McpA33njDlCtXzuF13nnnue2rr75qKlWqZLgG7777bmTtpJHrCrb4yQcnTKP23nvvAHcyH2ZNfeQ8WX/gvvvuiyuTTlbv3r3jwsIHtSvFRg8IX7h2QTg66XHZKnVNxYaxZ2rrajoD8oQnzaaRioAioAgoAorAHotARjX0mJtssppvfjstQUtVBn8ab8YCKZYOgfiGl7KO27+j7JqnPxkV96nH9l5MdGpVrWTQ/oscsU+7gKS8a01ihMwTz6jAL7ZzkEg+G5etqT6hRzZ5Jz30TnzLM1qQzH4fTAQfsNqdBD/1yPbt23OQecJHjRpl0BD7gkkM2mBk8uTJcaRy586djiRLekyBEgkmLELmSYP9/aJFsetZpUrmTDe6d+/umsAIhJB5AuiMQOgLSjApEhEtPaY1oilfsWKFi050rhs2bAjIPAnBlg6PSNhcCc29CKMeYcGOHxv6ZFKzYi0XvWPXDrNu67pkSV1crX3PNPUPv940PfkR0/76WOd+184dZtGn9+SaVxMoAoqAIqAIKAJ7OgIZ1dDnBcwV6zaY1RtyLhYDOWeRKlZwhTRL90Ds5jHRWbMhZgrj1/vNr7MCs5qmdWuYOUtjmuKmdWoGyb75bVawLzujrNlONzspN0o2btnmJupio9++SX1T2S4KRRiyr9XYo7lHPv95qttm+t8NN9wQEF/KLij7+fy0G4KJyQnaYzS6aJKZeJlMsA8X+eKLL2Q32ELSIaMQ1Vq1YgQxiPR2MAUJCyME2LZjCpMJ4bzEZIgJt2FZsGBB0NZwXH6P6UCIMDEV8cNkHy19lGD2FBbMqcjHeYVNhTB7EjnppJNcOq6P2OdLXLJt2dIx3Lel6KGm3iFXmXLVs+dfbJz7k5n/3k1uMalk9WicIqAIKAKKgCKgCGTYhj4vgK5en5PMUw7abpE61guOiJDnleujvc0sWZOtDWxUq7pkMw1qVnX7aDWxnw+Lny8cx/EHP2ST06O7Z48SHH9AJ5eccr+YkJPoRZWVbtjChQvN7Nmzg1+6+Qsj/SuvvBJUg+cVzGfeeecd89xzz5njjjsuiPN3mjRpEhximx0lEHoEzzeJJCrv5s2xzp6YjiTKm2o4E0tFRCMux7KVtspxprZC2ClP9hkJERGSn6jzgpehKBGMmGvgC2Y20mmE8J9zzjnmpZdeMq+99pr5+9//burXr+8nj9xfszk2qlCxbEVrhhczkYtMmBW4fPRgs/y758266SNcSOXm+5t21wwzlZt1T5ZN4xQBRUARUAQUAUXAIpBRk5u8ILo5ga29b2MuE2PxUiMELYqUU//GzdlkvWqlmDkH4ZXKx0hFgvmqZlOWxp20UfLbnEWBVv7I7u1dkorly5kOVmOPYLIjZkIuYA/7h9nLww8/HGduw7Vi8ibeVzBRadOmTRwq2MaL4N4ySoSsynVPliYqLlNhuHAU8cm0hLGVtvphBbUv5japlL9xY3TnVyYPQ9rDcuWVVzqXodKBIB7zKOz0n376acOoUTJZsyXbdWzjatEjX37+lWP/Z5Z8+Q8z940rzOyXz3FRpcpWMI2OV5MbHyfdVwQUAUVAEVAEohAockJfvVK05lVIPI1evDpG9nZY21/xIFOjSnS+2tVittzkwyxHBNMeBO85UYJLytxkeJYGHrMffNgfuU/7oIMx5MdsDX5u5eyu8fhQv+yyy5w7Q2y08XQjxBOzGVwk+rJ06dLgMOzuUiLELjwRiZZ0ednSScCMRn5MFk0kvo2+3xHx00tb/TDZFxyiOiZhDbnkydQW7zxRIvMXxAuRnwY7+//973/Ol/1f//pXw4RkGYHgHJjkjFvRRDJrZbbtfZNq2SMxidL74RvnjjOyOmyFuvGdQD+d7isCioAioAgoAopADIHMGBjnA816NbLNafxi8A+PQIR8bfyGzVtM9coVTf0a8WYCkrdVg+yJsItWxob9iZNOAfuNa9cwC704wlp6+TiOko+tb/sTesbc8Q3o2cW0a1zXJcNrDjb/BSUQYbEhh2g9+OCDgSvIgqozP+VCEEeMGOF+tBuzG0ggHlV88U1lcK0YZXMvZFfIpJ8/v/vg6Pvcx1895iVRgpkN9yLngW1+lEhbo+LQhqMJjyL9rVq1isqSsTB80oeFToyYMeVmG0/HjN/gwYPNLbfcYlhTAGFS88SJE8NFu+NflmSHywJTkQkTBK6Z/Kmp2/sSU6p0GVOqjPXqk6ItfoLiNFgRUAQUAUVAEditEUiskiyk08ZshVVWfcHFZOuGMa2ir2UnzbysVWBxXYmbyrAc1b1DEDR7SbbrxMneAlX9suzeg4R250jrDjM3wR+9+Mk/sFNLwwJXCCvIFqRAoLBL58eKqlGksCDrz0/ZeGURv+fhcsRFJeFHl/UM/gAAHWNJREFUH310ONot1iR24cwjyLREacuT1SHnge2/ePWR9IccckjSCbhi9hKlLWfiaUEKi0iFzWpYsEvO//fff0+5evzuiySahEv8wnULzMZtMVOfDnVi80wkXyrbHZuyO+OppNc0ioAioAgoAorAnoxAkRN6wL/plMNNw1oxjXslS/DvO69fcE3eGjUh2Gfn1RHjguObT+lrWNQJwZTm2hMONnWzJtBOnL0wznvOTzPmBQtE9e3azq0OS77SVuN66TG9TP2sSbOEJZMo05pPrVvLPV3wc37PPfe4TodgAellYSfRXPvuF0mDG0vR0qO9R/srZi/4Rr/iiiukKKcdDg6KaEf8uEOE8ZEvpB4t/9VXX520VXjBQSDWYn9OOWeeeWZS05WkhaYYKe0VjTwdQ3zYI4w6vBzy04/Pe1b1PeusswItPmk5zz/96U/sOvHJvYT5289nfeYOuzfa1/h+6f00Ke2XKhavqZSaqokUAUVAEVAEFIGiQKDITW44abT0/7z0JDepVLzYEL541Trz/dQ/2A0EN5TjZs63Czw1dS4tB110gtm23Zoz2NVmRfDx/vKXY+Qw2P5n+FhH+gmA/F/Zr4/rCIimMkiYZIeOweat213dJJu9ZEXQUUiSbbePKm8nHTN6gMtKSCITRMVGW07+hRdekN1gywTL+++/32mLGYl46623nJ90cRFJwgkTJsT5mQ8yF/LOkCFDzIknnmjw004HBM8+2PbLKEKy5vznP/8xjzzyiEuC/XmfPn3cPvcepj5hrJKVlZe4Ro0aOZt4TH98bEeOHGnwK+8LbeEc8U/Pj3OknX4+Rl6YCJ1MPpkx1JzUMbZw2IAOJ5mXJ7yYLHlcnK+hL1upptm2ruBM2uIq1gNFQBFQBBQBRaAEIlDkqi9WXWWlWMQn8ywQ9deXhkRC+uj7IwyLQ0EcEZ/M0wkYOPh9syRrIq1fAJ2DR94bYWRRp7JlYl5z6BBQpkhui2L9PCvbxeInPxW+dh47+uImmG2I1xTIn09QsamHuP/www85mj1t2jQzcODAwMe5Txy5vqzIeu+99+bIJ9eeiCg8JF62OQqwAcniEqXH+4s/QVbI/NSpU43vvz2cH7ejr7/+elAn58kPbFjlVsQ/F2mf4EoaCZMtYZLHDyNcBAxl4qtPyj/55BPz+OOPS7Jgi496MS8ikHOUfNTBXAcZZQgyReys2LjcjF0Q61gf27afKVe6XESq6KBta2LvBGKrdcppjhWdS0MVAUVAEVAEFIE9E4FSdnGfGCsu4vPH1KarXdgJsg2Z9yfCJmoa/mqaWW8z2Nvjz376wqWBa8lEeSQcLzVtG9U1MxYtM/OWxWsoJU2i7RNXnGLqVKviRgYu+tfraa2Km6jM4hgOKcf3OMLiRHfeeWeuzcQ1JQtGocHGl7n4z881o01Qs2ZNZ36Cq0tII6uUJiKpqZRXkGkwI2JEAbKLptonwMnqJR/eYbClJ5/4e0+WJy9xmCzdddddLis+5IcOHWqw/afNdEgY9fA7ClF10FbMc9DuYwqFiRSdlkQuRqPKqFelvnm2//Mu6v/99LQRM5yotH5Y6QpVTce/fGdwXYng9YbfyjGvGibMqigCioAioAgoAopANgLFwuSG5myyiz39OG1OdstS2KMnMnfZKvdLIXlckrzm62xXi4XMIz/Y9uamzY+rtIQd4MVEZPHixbKbdCseUZImShCJ6cc333yTILZ4BUNqhw8fnnajyDdq1Ki082UiA3b8Mg8glfJoK65I8yPLNiw1H0370JzQ4UTTv/2AlAn9zi3rzbx3BpomJz5oyliTm3I1GrvfhjljjVFCn59LonkVAUVAEVAEdkMEig2hL87YVixf1lSz/vIPaNfcnNYn2/f226EJu8X5HFJpG1p1mcCKJhd7cZHvv/9ednWrCKSFwMsTXrD28znnT+RWyLrpX5mp/+hlylatY8pWa2C3dc3WZbNyy6bxioAioAgoAorAHoeAEvoULvl5hx9gDu/aNi7l0DGTzPK1scWq4iJK8MFDDz0U+Lv3TwOXkePHj/eDdF8RKCQEdpnt65e7XyFVqNUoAoqAIqAIKAIlDgEl9Clcsp27siehrly/0bBi7Pvf/5pCzpKVJGxTjfcVfMUPGjSoZJ2IttZ5phEYwtdVwnWrCCgCioAioAgoArsHAsVmUuzuAaeehSKgCCgCioAioAgoAoqAIlC4CBS528rCPV2tTRFQBBQBRUARUAQUAUVAEdi9EFBCv3tdTz0bRUARUAQUAUVAEVAEFIE9DAEl9HvYBdfTVQQUAUVAEVAEFAFFQBHYvRBQQr97XU89G0VAEVAEFAFFQBFQBBSBPQyBPBP6Vq1aGX4qioAioAgoAoqAIqAIKAKKgCJQdAjkmdAXXZO1ZkVAEVAEFAFFQBFQBBQBRUAREASU0AsSulUEFAFFQBFQBBQBRUARUARKIAJK6EvgRdMmKwKKgCKgCCgCioAioAgoAoKAEnpBQreKgCKgCCgCioAioAgoAopACURACX0JvGjaZEVAEVAEFAFFQBFQBBQBRUAQUEIvSOhWEVAEFAFFQBFQBBQBRUARKIEIlC2BbS7yJh/SpY3p3rqJa8fHYyebmYuWF3mb/Ab07drOdGrewKzduNm88tVPflSx3i9ftoy5ol8fU8q2csW6jebVESWn7QUFbPXq1c3AgQNd8R9//LEZN25cQVWl5SoCioAioAgoAopACUVACX0eLlyvDi3MPlmEfur8pSkR+orly5q61auaXbt2mQUr1uSh1tSzHNKltWnfpL7Ztn1HiSL0FcuXM2CLbN66rVgT+jp16pjatWubTZs2mfnz56d+cdJMWa9ePdOtWzeXa8GCBUro08RPkysCioAioAgoAnsCAkroC+kqozU/9/D9XW3XPPOuWbl+YyHVrNUUBAK33nqrW1ht27Zt5qyzziqIKrRMRUARUAQUAUVAEVAEUkJAbehTgkkTKQKKgCKgCCgCioAioAgoAsUTASX0xfO6aKsUAUVAEVAEFAFFQBFQBBSBlBBQk5uUYMpbomP27WiqV67gMndu3jAoZECvLmbD5i3B8Y6du8x73/0SHPs7NapUNJjrtGtcz9SpVsUsXbPe2uwvM8MnzDDrvTL8PMn2y5QuZfodsJepWC526T8aM9nZq/t5mJR6sJ3427FpfdOqQW2zZdsON0/g299mmbnLVvlJ3X4FW9aAnp3d/ujJf7jyDtyrlZtnULlCOfP74hXmvdG/FJiZ0SGHHGI6duwYtOuLL74ws2fPDo4zsVOpUiVzwQUXBEXVr1/f7ZctW9ZcccUVQTg72Lp/9NFHcWFy0LlzZ3PEEUeYli1bmooVK5rFixebSZMmmffee8/Nr5B0qW733Xdf06NHD5d82rRpZsSIETmytmnTxtXZtm1bU6NGDVfn5MmTzdtvv2127tyZI/2hhx5qOnXqZFauXGneeustw/GBBx7o2rxq1Srz448/mvfffz9HPg1QBBQBRUARUAQUgaJBQAl9AeJ+1iHdDWQ3LEd37xAOiiT0TLy98aTDTNky2QMpzerVNPu1bWpO6rW3GfTuV2bKvCU5ykoUUKZ0aXPPucdakl7HJRk9ZXYOMt+gZjVz2xlHmno1qsYV075JPdNv/07mzZHjzYc//BYXV71yRXNy764urLwluJxfOeuxRqRl/drmkM5tzB2vfBLZIZB0ed2edNJJpkWL2GRayoB0ZprQMwn2qKOOytHEUqVK5Qhfs2ZNJKG//PLLzTHHHBNXRoMGDdyk1379+pnbbrvNLFmS+vWEaF977bWGNuzYsSOSzF922WXm2GOPjauzbt26pkuXLq4td9xxh1m4cGFc/IABAxx5Z35Aq1atgg4Dicjbrl071+a77rorLp8eKAKKgCKgCCgCikDRIJCTbRZNO0pUrXiqEfH3JUy23/w6y9SqVskdNq9byzSoVc3t/zZnkdlkvbiIoKEPC4T6r6f2DYJnWdeYeMdpXr+WgSDTUbjjzKPMlU+/49xTBgkT7ECwHzj/eNOkTg2XYvjE6eaFz3+MS125Qnnzj4sHBB2IxavWmclzF5sqFcvbTkQzF37mwd3N8rUbzOjJs+PyysHxVvuPzFi4zI0m7N2ikR2lqOjyXnhkD3PP68MkaYnarl271kyZMiVoM9rucuXKOa361KlTg3B25s6dG3fMwWmnnRaQee6ZmTNnmo0bNxq051WrVjU1a9Y0gwYNihsFyFGIF0DHgA4Csn37dvO3v/0tRyfmxhtvNH369HFpqHP69Omus0OdeM9BW//QQw+5OqPuY84P7f+WLVtcexmlaN26tStv7733dsR+xowZ7lj/KQKKgCKgCCgCikDRIaCEPg/YP/bhN6ZcmZgGesu27QlLeHn4mCAO7bZ4uXn2k+9yNT+5yJJfkf9+NdZ8Ni6bNJ56YFdzap9uTjN7Xt/9zVNDR0nSyC0uMx88v3/QoRg6ZpJ57Zufc6S97JheAZl//dufzUc/TgrSQMofv/xk15G45Khe5sdpc8z2HTnNNcgAPmOnx0gtowJPXHGKqVmlkjPhwZwnZ/clVg1+8y9+/A3nh35HhClILFXR/IfQo80WeeSRR5z2GjLth0u8v0WDfsopp7ggiPPdd99tfv31V3dc2uLz2GOPmaZNmzpiD1EfNix5p+eEE04wF154ocuPFv0vf/mLM/NxAVn/Gjdu7MxkOMS1JuR+6dKlQRI0+4cddpipUqWKI/Qvv/xyEOfvrF692lx99dVm8+bNLhjtvZgecU4PP/ywn1z3FQFFQBFQBBQBRaAIEChdBHWW+CohsmjY+e30tPWZPLFurRq74iC5Ppkn8F1rb4+fdqRn+xZum+hfJevbfdBFAwIy/87oiZFkHlv3nlk+4BkN8Mk8ZdOO4RNj2lg6CB2bNoiscv7y1QGZJwHEXPJxXKd6FTYJhfMC163Wh/7uIj179jQVKsTmUmC7LmSe88OG/dFHHw1OtX///sF+1A6afiHzkOzrrrsuB5knH9p7OhLI/fffH0fmCRs8eHBgs3/QQQcRFClPP/10QOZJMGTIEGfewz5afhVFQBFQBBQBRUARKHoEVENf9NcgRwvQZgsZ+2nGvBzxBIz/fYHp3bGl06hjfhM1UoDt/aOXnui04+RBM59o8i1mPCK17eTbgSce6jTlLizGC021SjFSShgTZjEdCsska6ITlsWr1gZBtatVdiY7QUAGdu69915nsiJFLVqUs10SVxRb376fCbthwURnw4YNTlteq1atcHRwzMRUTHMQRgauueYaZ0ITJPB2mjRpEhydffbZhpGAsFAGZjVSZjie46iVabdu3Wowv8FUSEURUAQUAUVAEVAEih4BJfRFfw1ytEDs3IlYsmZdjngClq/ZEIQ3qlXd/LF0ZXAsO3QK6ByI7Gsn00aZ2hDf0nqzEalVtZLp0b65HEZuw5NmJdEy64UnLDKaQLiYKoXT5OeYSbD8iqv45DrRqrJC6PF8k0h84o13nb322suMHj06Mnm1arH5GkTiWSeZcJ+UKVMm0LxLWsx5ooRwCD15VBQBRUARUAQUAUWg6BFQQl/01yBHC6p6mvBNW6JJ1UarJRXBvj2RYLPNJFYIeOPaNcw5h+4bSeprVM4m/uNmzjeYziSTKO086RPZ1Scra3eP8zXZ69ZFd9DQeiMyMpMIEzzoVK9e3aW7/vrrDSY8UZ0ZCD/ChNZEpF/qwOwnyn2lxOtWEVAEFAFFQBFQBIo3Akroi+H1Wbo6m/RhohIltapkhy/yTFrCaR98e7jzIf/0laeaitaevn+PzubnWQvM1PlL4pIuWLkmOB47Y67B57xKZhDwJ6M2bNjQLF++PEfBTE5FMINJJPisx2YeG3rcXKIhv++++9yk1XAe7OvRokPUn3rqqXC0HisCioAioAgoAorAboRATsPa3ejkitOp+HNny3h+5aPa6BP0FvWibaqb14/ZUpN/hdXAR8k2O7EUTTomL4PeHREkwR0mk2V9+WNJtslOc+vrviTJ6aef7ogt5JZf164xn/iFcQ65adRpg29m06FDh8hmiYkMpjeJ5Oeff3ZmMS+88ELgr54OAr7mwyJae0x41DQmjI4eKwKKgCKgCCgCuxcCSugL6XouW5ttW96sbnLCvHnrdkvCY5rarq2axC3SRHPxSNOhSWylUrzPpOJpB428eMvBS83Nno97ylywYrWhA4ActU/8wlAu0PuHK8riJL1793Yrm7K6Kb9EpDmTbRbCjGmLeLBJVL7v1eboo4/Okaxv375GTGTCizzlSJwVgKtMFpNCWDgKv/C+/PLLL+6QDsfFF1/sR+XYZ2KsiiKgCCgCioAioAiUXASKFzMruTjm2vJ5nk36xUf3NG0a1Q18vkdlHvJjbDXWMqVLuQWhRKOOff0D1qe8aIYTea2JKvMV689+6epYxwIvNfjGF2Fxq1dG/OQOWYTq0UtONM290YHSlhh2bdnY3Hn2MebF68+SbHvsdt68bO9DeNnBj7xckzAoc+bMCbT0rLR6yy23BF5nIOJXXHFFkAV3kqnIypUrzbPPPhskvfXWW52JjQS8+OKLzn6eY3zb40ve19Sz8u1VV11lXnvttWCBKsmrW0VAEVAEFAFFQBEoWQioDX0hXa8ldtXV3xevMK0b1jG1q1Y29557XFzN5/zjlbjjj6yLyWP36+hWWcXrzQuWROOaEheVIivWbTBfjJ8mh7luWdDpvjc/N49ddrKho/Cnw/Yzv1qTnHnLYhNgv5ww3RzYqZVzSVnX+ot/6ML+1o/8Lqe5R6svErWyrcTtKdu33nrL4DMekszKq48//nhw6izGdMkllwTH7ODPHX/wkH5WXyU/9u0+yZ4wYULkKrNxBXkHX331lcGHfLdu3dwowV133eU6CyRBe//vf//b3HTTTa5ORgH44aGG0YBEnQ+veN1VBBQBRUARUAQUgRKCgGroC/FC3f/mF+brX2eaDZu3Bov6JKqeBZmu+3/vmYmzFwZJfDLPSqwDB38QuepqMhMcPN688PkPrkxI3d9OOzIon517Xh9mXvpyTGB+A/H3yTwmPsN+zl61ljx40hGJqnun7RSI+GklLL/bcJmF4bGFSac33HCDgYSL6Uuy85g2bZoZOHCgYcVZBOyFzNP+Dz/80KDpD4t/LuHzJO2DDz7oVoJlv23btua447I7ij/88IPTwjOZVgTzGiHzlId9/8iRIyXabaUev24/gcT7YbqvCCgCioAioAgoAkWHQCm76E0220qjHa1atXKpZ8+enUYuTZoXBDCBadOwrmlcp7pzJ4mmvzDcQ+LDHtOgGlUqOlMdXFmu3rApL6egeTwE8CePVr127drmt99+MzNnzozrFHlJM7YLke/YsaNp3769Wb9+vRsJoN5EvuYzVrEWpAgoAoqAIqAIKAIFjoAS+gKHWCtQBBQBRUARUAQUAUVAEVAECg4BNbkpOGy1ZEVAEVAEFAFFQBFQBBQBRaDAEVBCX+AQawWKgCKgCCgCioAioAgoAopAwSGghL7gsNWSFQFFQBFQBBQBRUARUAQUgQJHQAl9gUOsFSgCioAioAgoAoqAIqAIKAIFh4AS+oLDVktWBBQBRUARUAQUAUVAEVAEChwBJfQFDrFWoAgoAoqAIqAIKAKKgCKgCBQcAkroCw5bLVkRUAQUAUVAEVAEFAFFQBEocASU0Bc4xFqBIqAIKAKKgCKgCCgCioAiUHAI5HlhqYJrkpasCCgCioAioAgoAoqAIqAIKAKpIqAa+lSR0nSKgCKgCCgCioAioAgoAopAMURACX0xvCjaJEVAEVAEFAFFQBFQBBQBRSBVBJTQp4qUplMEFAFFQBFQBBQBRUARUASKIQJK6IvhRdEmKQKKgCKgCCgCioAioAgoAqkioIQ+VaQ0nSKgCCgCioAioAgoAoqAIlAMESibnzaVqVjddLhxlNm5bZPZvn6Z2bpijln+w/9v7+5epKrDOIA/s7u6zvqyW7pSrrZYmFqWWSYEIfR2V1TURdBNdFcU3QXd9V94UwZRSVZXSV1EBBEGgilYIaYmvoS56sio287O7G4zxzqO0uhZ93gu2s/ALs855/k9v+Fz9eUwc2ZrjB7dnWlsKUrx9qPvxJyuufHxvg/j98rhTOs0ESBAgAABAgQIECBwSWBmd+hLzUje0xvd5YHoHVwVC9c8GStf+STKy9Zl8p2KqSj3lGPD7Q/GG5veyrRGEwECBAgQIECAAAEClwW6BwYG3r18OL1qqlGLMzvfj8rubVEbORQLVz+eDGgF/OqvX2caNjJ6Oh5b+UQMzLsljlWPxvHqsUzrNBEgQIAAAQIECBAgEDGzO/RNwdbHberVk1HZ81mM/bk/MZ1763Bm219O7YvToyNJ/ysPvJp5nUYCBAgQIECAAAECBHII9O2I9XN/JIc9CwbbT1+3/vyX7UnPkr7BWL1kzXX7NRAgQIAAAQIECBAgcElgxnfo2yEnJ2rJYamru/30devvjnwb9YnxpO+Zu5+9br8GAgQIECBAgAABAgQuCeQa6G8UtTHZiH3Nj960XhuXPXyjY6wjQIAAAQIECBAgMOsEbkqgL3XPnTbkiX++DDunuXb5ohXTXm8BAQIECBAgQIAAgdkokGugn7h4NjHsmtsXvUvumpbn8erxtH/t4D1prSBAgAABAgQIECBAoLNAroG+duq3dKf+dU+ndZbiRFugX1xenGWJHgIECBAgQIAAAQKzXmBGvxR7tV5l7+dx66aXkx+ZGtz8evQNb4yxP36OifGLUflpezTOn7p6SXp84vyJtO6fN5DWCgIECBAgQIAAAQIEOgvkGuinJupxcMszMbj5tebfGzF/eFPy19p+9Miuawb68X+ekNPq7enK9W21RnoRIECAAAECBAgQ+F8K5JqcS6XuWPnqtigPrU+wxs8ciQu/74zJsfMxXjl6TcDbFyxLr1dr1bRWECBAgAABAgQIECDQWSDXQN+//rk0zFf3fxPHtr/Z3Hmq8+5tV4YWDaVH58Yqaa0gQIAAAQIECBAgQKCzQK5fiu0buj/d6cyPW5t1tjDfWtT+qMrDlcPpHAUBAgQIECBAgAABAp0Fcg30XeX+ZKepRi1Gj+3pvOt/XBlatDw9e+D0/rRWECBAgAABAgQIECDQWSDXQP/vNpP1v5pl9rvzrXWrF69Jlh+qHIz6ZD2p/SNAgAABAgQIECBA4NoCuQb6UunGxt279L5Y3LckeadfHdhx7XfsKgECBAgQIECAAAECqcCNJfB0+ZVFd98tyYnW4yun83ph7YtJe31iPH44+v10luolQIAAAQIECBAgMKsFcgv03eWB6FvxUIJZGzmYGXVw/tJYf9uGpH/HgS+jMdnIvFYjAQIECBAgQIAAgdkuMKPHVnbNKccdL22J1p353sFVUerqTjzPH/gus+uzq59PescaY/HZr59mXqeRAAECBAgQIECAAIHmj7LOBKHU0xvzVz5yxYjK3i/i7K6PrjjX6aBUKsWTdz6VXP5gz3tRa4Z6LwIECBAgQIAAAQIEsguUhoeHp/c4mrbZrV+GXbBqc0zWLkbjwkjUqyfj0hNu2pqUBAgQIECAAAECBAjcNIEZBfqb9q4MJkCAAAECBAgQIEAgk0BuX4rNtJsmAgQIECBAgAABAgRyFRDoc+U0jAABAgQIECBAgECxAgJ9sd52I0CAAAECBAgQIJCrgECfK6dhBAgQIECAAAECBIoVEOiL9bYbAQIECBAgQIAAgVwFBPpcOQ0jQIAAAQIECBAgUKyAQF+st90IECBAgAABAgQI5Cog0OfKaRgBAgQIECBAgACBYgUE+mK97UaAAAECBAgQIEAgVwGBPldOwwgQIECAAAECBAgUKyDQF+ttNwIECBAgQIAAAQK5Cgj0uXIaRoAAAQIECBAgQKBYAYG+WG+7ESBAgAABAgQIEMhVQKDPldMwAgQIECBAgAABAsUKCPTFetuNAAECBAgQIECAQK4CAn2unIYRIECAAAECBAgQKFZAoC/W224ECBAgQIAAAQIEchUQ6HPlNIwAAQIECBAgQIBAsQJ/A4ZWhFD1WvS1AAAAAElFTkSuQmCC;" vertex="1" parent="1">
          <mxGeometry x="871.0200000000001" y="170" width="156.69" height="80" as="geometry" />
        </mxCell>
        <mxCell id="OQrLplNJzSCJj79ujB7T-39" value="" style="shape=image;verticalLabelPosition=bottom;labelBackgroundColor=default;verticalAlign=top;aspect=fixed;imageAspect=0;image=data:image/png,iVBORw0KGgoAAAANSUhEUgAAA94AAADUCAYAAABqHvvQAAAMQWlDQ1BJQ0MgUHJvZmlsZQAASImVVwdYU8kWnluSkJCEEkBASuhNEJASQEoILYD0ItgISYBQQgwEFTu6qODaxQI2dFVEsQNiR+wsig37YkFFWRcLduVNCui6r3xvvm/u/PefM/85c+7MvXcA0DjBk0hyUU0A8sSF0rjQQObolFQmqRtggA6oQAe48PgFEnZMTCSAZaD9e3l3AyDy9qqjXOuf/f+1aAmEBXwAkBiI0wUF/DyIDwCAV/El0kIAiHLeYlKhRI5hBTpSGCDE8+U4U4mr5DhdifcobBLiOBC3AKBG5fGkmQDQL0OeWcTPhBr0XoidxQKRGAANJsR+eXn5AojTILaFNhKI5fqs9B90Mv+mmT6oyeNlDmLlXBRFLUhUIMnlTfk/0/G/S16ubMCHNazULGlYnHzOMG83c/Ij5JgKcY84PSoaYm2IP4gECnuIUUqWLCxRaY8a8Qs4MGdAD2JnAS8oAmIjiEPEuVGRKj49QxTChRiuEHSyqJCbALE+xPOFBcHxKpuN0vw4lS+0PkPKYav4czypwq/c131ZTiJbpf86S8hV6WP04qyEZIgpEFsWiZKiIKZD7FSQEx+hshlZnMWJGrCRyuLk8VtCHCcUhwYq9bGiDGlInMq+LK9gYL7YxiwRN0qF9xVmJYQp84O18HmK+OFcsMtCMTtxQEdYMDpyYC4CYVCwcu7YM6E4MV6l80FSGBinHItTJLkxKnvcXJgbKufNIXYrKIpXjcWTCuGCVOrjGZLCmARlnHhxNi88RhkPvgREAg4IAkwggzUd5INsIGrraeiBd8qeEMADUpAJhMBRxQyMSFb0iOE1HhSDPyESgoLBcYGKXiEogvzXQVZ5dQQZit4ixYgc8ATiPBABcuG9TDFKPOgtCTyGjOgf3nmw8mG8ubDK+/89P8B+Z9iQiVQxsgGPTI0BS2IwMYgYRgwh2uGGuB/ug0fCawCsrjgL9xqYx3d7whNCO+Eh4Tqhk3BrgqhE+lOUo0An1A9R5SL9x1zg1lDTHQ/EfaE6VMb1cEPgiLtBP2zcH3p2hyxHFbc8K8yftP82gx+ehsqO7ExGyUPIAWTbn0fS7enugyryXP+YH2Ws6YP55gz2/Oyf80P2BbCN+NkSm4/tx85iJ7Hz2BGsATCx41gj1oodlePB1fVYsboGvMUp4smBOqJ/+Bt4svJMFjjXOnc7f1H2FQony9/RgJMvmSIVZWYVMtnwiyBkcsV8p2FMV2dXdwDk3xfl6+tNrOK7gei1fufm/AGA7/H+/v7D37nw4wDs9YTb/9B3zpYFPx3qAJw7xJdJi5QcLr8Q4FtCA+40A2ACLIAtnI8r8AA+IAAEg3AQDRJAChgPo8+C61wKJoFpYDYoBeVgCVgJ1oINYDPYDnaBfaABHAEnwRlwEVwG18EduHq6wAvQC96BzwiCkBAawkAMEFPECnFAXBEW4ocEI5FIHJKCpCGZiBiRIdOQOUg5sgxZi2xCapC9yCHkJHIeaUduIQ+QbuQ18gnFUCqqgxqj1uhwlIWy0Qg0AR2HZqIT0WJ0LroIXY1WozvRevQkehG9jnaiL9A+DGDqmB5mhjliLIyDRWOpWAYmxWZgZVgFVo3VYU3wOV/FOrEe7CNOxBk4E3eEKzgMT8T5+ER8Br4QX4tvx+vxFvwq/gDvxb8RaAQjggPBm8AljCZkEiYRSgkVhK2Eg4TTcC91Ed4RiUQ9og3RE+7FFGI2cSpxIXEdcTfxBLGd+IjYRyKRDEgOJF9SNIlHKiSVktaQdpKOk66Qukgf1NTVTNVc1ULUUtXEaiVqFWo71I6pXVF7qvaZrEm2InuTo8kC8hTyYvIWchP5ErmL/JmiRbGh+FISKNmU2ZTVlDrKacpdyht1dXVzdS/1WHWR+iz11ep71M+pP1D/SNWm2lM51LFUGXURdRv1BPUW9Q2NRrOmBdBSaYW0RbQa2inafdoHOoPuROfSBfSZ9Ep6Pf0K/aUGWcNKg60xXqNYo0Jjv8YljR5Nsqa1JkeTpzlDs1LzkGaHZp8WQ8tFK1orT2uh1g6t81rPtEna1trB2gLtudqbtU9pP2JgDAsGh8FnzGFsYZxmdOkQdWx0uDrZOuU6u3TadHp1tXXddJN0J+tW6h7V7dTD9Kz1uHq5eov19und0Ps0xHgIe4hwyIIhdUOuDHmvP1Q/QF+oX6a/W/+6/icDpkGwQY7BUoMGg3uGuKG9YazhJMP1hqcNe4bqDPUZyh9aNnTf0NtGqJG9UZzRVKPNRq1GfcYmxqHGEuM1xqeMe0z0TAJMsk1WmBwz6TZlmPqZikxXmB43fc7UZbKZuczVzBZmr5mRWZiZzGyTWZvZZ3Mb80TzEvPd5vcsKBYsiwyLFRbNFr2WppajLKdZ1lretiJbsayyrFZZnbV6b21jnWw9z7rB+pmNvg3Xptim1uauLc3W33aibbXtNTuiHcsux26d3WV71N7dPsu+0v6SA+rg4SByWOfQPowwzGuYeFj1sA5HqiPbscix1vGBk55TpFOJU4PTy+GWw1OHLx1+dvg3Z3fnXOctzndctF3CXUpcmlxeu9q78l0rXa+NoI0IGTFzROOIV24ObkK39W433Rnuo9znuTe7f/Xw9JB61Hl0e1p6pnlWeXawdFgxrIWsc14Er0CvmV5HvD56e3gXeu/z/svH0SfHZ4fPs5E2I4Ujt4x85Gvuy/Pd5Nvpx/RL89vo1+lv5s/zr/Z/GGARIAjYGvCUbcfOZu9kvwx0DpQGHgx8z/HmTOecCMKCQoPKgtqCtYMTg9cG3w8xD8kMqQ3pDXUPnRp6IowQFhG2NKyDa8zlc2u4veGe4dPDWyKoEfERayMeRtpHSiObRqGjwkctH3U3yipKHNUQDaK50cuj78XYxEyMORxLjI2JrYx9EucSNy3ubDwjfkL8jvh3CYEJixPuJNomyhKbkzSSxibVJL1PDkpeltw5evjo6aMvphimiFIaU0mpSalbU/vGBI9ZOaZrrPvY0rE3xtmMmzzu/HjD8bnjj07QmMCbsD+NkJactiPtCy+aV83rS+emV6X38jn8VfwXggDBCkG30Fe4TPg0wzdjWcazTN/M5ZndWf5ZFVk9Io5orehVdlj2huz3OdE523L6c5Nzd+ep5aXlHRJri3PELfkm+ZPz2yUOklJJ50TviSsn9kojpFsLkIJxBY2FOvBHvlVmK/tF9qDIr6iy6MOkpEn7J2tNFk9unWI/ZcGUp8Uhxb9NxafypzZPM5s2e9qD6ezpm2YgM9JnNM+0mDl3Ztes0FnbZ1Nm58z+vcS5ZFnJ2znJc5rmGs+dNffRL6G/1JbSS6WlHfN85m2Yj88XzW9bMGLBmgXfygRlF8qdyyvKvyzkL7zwq8uvq3/tX5SxqG2xx+L1S4hLxEtuLPVfun2Z1rLiZY+Wj1pev4K5omzF25UTVp6vcKvYsIqySraqc3Xk6sY1lmuWrPmyNmvt9crAyt1VRlULqt6vE6y7sj5gfd0G4w3lGz5tFG28uSl0U321dXXFZuLmos1PtiRtOfsb67earYZby7d+3Sbe1rk9bntLjWdNzQ6jHYtr0VpZbffOsTsv7wra1VjnWLdpt97u8j1gj2zP871pe2/si9jXvJ+1v+6A1YGqg4yDZfVI/ZT63oashs7GlMb2Q+GHmpt8mg4edjq87YjZkcqjukcXH6Mcm3us/3jx8b4TkhM9JzNPPmqe0Hzn1OhT11piW9pOR5w+dybkzKmz7LPHz/meO3Le+/yhC6wLDRc9Lta3urce/N3994NtHm31lzwvNV72utzUPrL92BX/KyevBl09c4177eL1qOvtNxJv3OwY29F5U3Dz2a3cW69uF93+fGfWXcLdsnua9yruG92v/sPuj92dHp1HHwQ9aH0Y//DOI/6jF48LHn/pmvuE9qTiqenTmmeuz450h3Rffj7medcLyYvPPaV/av1Z9dL25YG/Av5q7R3d2/VK+qr/9cI3Bm+2vXV729wX03f/Xd67z+/LPhh82P6R9fHsp+RPTz9P+kL6svqr3dembxHf7vbn9fdLeFKe4lcAgxXNyADg9TYAaCkAMOD5jDJGef5TFER5ZlUg8J+w8oyoKB4A1MH/99ge+HfTAcCeLfD4BfU1xgIQQwMgwQugI0YM1oGzmuJcKS9EeA7YGP01PS8d/JuiPHP+EPfPLZCruoGf238BoIF8bwqzkqAAAACWZVhJZk1NACoAAAAIAAUBEgADAAAAAQABAAABGgAFAAAAAQAAAEoBGwAFAAAAAQAAAFIBKAADAAAAAQACAACHaQAEAAAAAQAAAFoAAAAAAAAAkAAAAAEAAACQAAAAAQADkoYABwAAABIAAACEoAIABAAAAAEAAAPeoAMABAAAAAEAAADUAAAAAEFTQ0lJAAAAU2NyZWVuc2hvdL9410gAAAAJcEhZcwAAFiUAABYlAUlSJPAAAALbaVRYdFhNTDpjb20uYWRvYmUueG1wAAAAAAA8eDp4bXBtZXRhIHhtbG5zOng9ImFkb2JlOm5zOm1ldGEvIiB4OnhtcHRrPSJYTVAgQ29yZSA2LjAuMCI+CiAgIDxyZGY6UkRGIHhtbG5zOnJkZj0iaHR0cDovL3d3dy53My5vcmcvMTk5OS8wMi8yMi1yZGYtc3ludGF4LW5zIyI+CiAgICAgIDxyZGY6RGVzY3JpcHRpb24gcmRmOmFib3V0PSIiCiAgICAgICAgICAgIHhtbG5zOmV4aWY9Imh0dHA6Ly9ucy5hZG9iZS5jb20vZXhpZi8xLjAvIgogICAgICAgICAgICB4bWxuczp0aWZmPSJodHRwOi8vbnMuYWRvYmUuY29tL3RpZmYvMS4wLyI+CiAgICAgICAgIDxleGlmOlVzZXJDb21tZW50PlNjcmVlbnNob3Q8L2V4aWY6VXNlckNvbW1lbnQ+CiAgICAgICAgIDxleGlmOlBpeGVsWERpbWVuc2lvbj45OTA8L2V4aWY6UGl4ZWxYRGltZW5zaW9uPgogICAgICAgICA8ZXhpZjpQaXhlbFlEaW1lbnNpb24+MjEyPC9leGlmOlBpeGVsWURpbWVuc2lvbj4KICAgICAgICAgPHRpZmY6UmVzb2x1dGlvblVuaXQ+MjwvdGlmZjpSZXNvbHV0aW9uVW5pdD4KICAgICAgICAgPHRpZmY6WFJlc29sdXRpb24+MTQ0LzE8L3RpZmY6WFJlc29sdXRpb24+CiAgICAgICAgIDx0aWZmOllSZXNvbHV0aW9uPjE0NC8xPC90aWZmOllSZXNvbHV0aW9uPgogICAgICAgICA8dGlmZjpPcmllbnRhdGlvbj4xPC90aWZmOk9yaWVudGF0aW9uPgogICAgICA8L3JkZjpEZXNjcmlwdGlvbj4KICAgPC9yZGY6UkRGPgo8L3g6eG1wbWV0YT4KoLOXZAAAQABJREFUeAHsnQd8FcX2xw8kkFBCD7333rt0REWKKGJ7+uwNe3n6LH+7T3xYQX2KWJ71KWJXBBRUqiBdeif00HtJ4D+/CbOZu3dvS2767/AJuzs7Mzv73XL3zDlzplCtWrVOC4UESIAESIAESIAESIAESIAESIAESCBLCBTOklpZKQmQAAmQAAmQAAmQAAmQAAmQAAmQgCZAxZs3AgmQAAmQAAmQAAmQAAmQAAmQAAlkIQEq3lkIl1WTAAmQAAmQAAmQAAmQAAmQAAmQABVv3gMkQAIkQAIkQAIkQAIkQAIkQAIkkIUEqHhnIVxWTQIkQAIkQAIkQAIkQAIkQAIkQAJUvHkPkAAJkAAJkAAJkAAJkAAJkAAJkEAWEqDinYVwWTUJkAAJkAAJkAAJkAAJkAAJkAAJUPHmPUACJEACJEACJEACJEACJEACJEACWUiAincWwmXVJEACJEACJEACJEACJEACJEACJEDFm/cACZAACZAACZAACZAACZAACZAACWQhASreWQiXVZMACZAACZAACZAACZAACZAACZAAFW/eAyRAAiRAAiRAAiRAAiRAAiRAAiSQhQSoeGchXFZNAiRAAiRAAiRAAiRAAiRAAiRAAlS8eQ+QAAmQAAmQAAmQAAmQAAmQAAmQQBYSoOKdhXBZNQmQAAmQAAmQAAmQAAmQAAmQAAlQ8eY9QAIkQAIkQAIkQAIkQAIkQAIkQAJZSICKdxbCZdUkQAIkQAIkQAIkQAIkQAIkQAIkEFOmTJkniIEESIAE8jqB2NhC8vXrdeWGYeVlz/5UWbXheF4/JbY/jxAoXKiw3N3lfjm77jmy8/AO2XVkV8CWV02oJnd1vk+61ugmc7fOkdRTKQHzune88XgNuffaipJYLlZmLTjs3s1tEiABEiABEiCBXEwgNhe3LUub1qRJE+nSpYtUqVJFYmJi9LG++eYbWbRoUZYeN6sqb926tQwePFhXP3LkSDl69GhWHSpH6y1VqpTcfffdug0//PCDzJs3L0fbw4PnHgKPDa8sjevG6wb9ueRI7mmYR0saNWokAwcO1HveeustOXTokEeu0Em33XablC9fXr+38P7KLxIXFyc4t0KFCslPP/0kS5cuzdCp4Z2Id+PevXtl9OjRGaojnELn1T9futXsrrO+MvvFoEWgmDev2FyKxBSVS5pdJh8uej9ofnvnwcOpUqNKUbnpkgry8bd7Zfuuk/ZurpMACZAACZAACeRiAgVS8f7nP/8pHTp08Lssa9euzbOKd/PmzaVVq1b6nBISErJd8cbHf7ly5fRxN2/e7Mc2WgmJiYnOeW7ZsoWKd7TARqmeuFIJEleqpKQcPy5HkvdEqdbQ1ZQrHSOXnF9WZ1y65liuV0hatmwpXbt21e394osvMqx4d+/eXYoUKSLokMpPijfeYWeddZbmk5ycnGHFu1u3blKvXj05efJkWIr3xRdf7HRgHjx4UCv/oe6+YrHF5O+trtHZftswVQ6dOBi0SIqycH+36lu5qMnFMqTxRfLDqu9kz9HdQcuYnSPe3iFDzi6jOiREXn20ulx693qzi0sSIAESIAESIIFcTqDAKd5t2rRxlO7Tp0/Lrl27ZM+eNAVhxYoVufxy5d7mPfTQQ1KnTh39gXvZZZfl3oayZVlKoOOdV0tis4aScvS4fHvdP7L0WHblT9xRRQorZQTy3Fvb01b4PwlEQACdh3h3wcoOgdU9HBnY6AJtvUbeL5d/EU4RpWynKd7IfEnzy+TNua+HVW6vGkKxYPkRadu0uLRpUkxbv5O2nQirLDORAAmQAAmQAAnkLIECp3j37NnTIf7kk0/KkiVLnG2ukAAJ5D0CULj7dknQDU/ekyJzFuduN3M0dOXKlY4VF27QFF8Chw8fdvhk1M3ct8bQW4888oijdIfOnZajkBSSAQ0H6Y2Vu1fI5gNJYRXdd2yfzN48UzpX7yp96pwt780fK8dTw4tJ8K83d8gXo+ro4zxwQ0W54+ms8zAK62SYiQRIgARIgARIICwCBU7xrly5sgYDazeV7rDuEWYigVxN4MoLykkRFVgNMubzwEGtctNJLF68WPBH8SaAGBWPPfaY984sSO3Tp4/UqlVL8LuQkpKi3ffDOUybKu0koWhap8/4ZZ+HU8TJ84XKD8U7plCMdK/VU35eN8nZF2xl8cqjsnXnSalasYj07Zx27GD5uY8ESIAESIAESCB3EMgRxRvjEa+44gpNYMKECZKUlCQdO3aU3r17S+3atQVj6+bOnSvjxo2TU6dO+ZCCGyAC5jRt2lRq1qwpJ06ckHXr1snEiRPFy1W8WLFicvXVVzt1VK1a1Vm/5ZZbnHWs/PLLL7J69WqfNGz069dPjxPEWMPx48dLxYoVdRraXLRoUdm6dat89NFHsn69/3g7jONEPrhhI++mTZtk1qxZ8uuvv/odx07AuMRLLrlEH6tkyZJ67DRc4lF2ypQp2qXbzu9eR/C4vn37CpZgtGrVKhk7dmzIcu56Am27uYIJJDY2VtxcMRb7u+++86wKH7wYb1+9enW93/CZPn26Z/5QiW3bttW8kQ9WxalTp/oVAVuwqV+/vpQuXVq2b98uy5Yt87zfUBheEuAI/p9//rnexnXFvQpr5R9//CFfffWV33HyakJC1UrSYGAfKVmlohqvnSAnlfXxyK69smXOItn252I5lZLqnFpMXFFpNPhsZzuhWlrHVkzRItJ02PlOOlYObU+WTdPm+qSZjQYDekuR4sVk98p1smPxCilVvYrU6NZeKrduKqnq/t29ar2s+HKinDziHzRwYK/Sphr59Pvg1uP4+Hj529/+pvPjOXI/s5UqVXKCnn399deye/dup26MF0ZQNNwHXte7f//+gvcLYhzgfeSWXr166XeWOx331LFjx9zJPtvt2rXT9yzeI3g/LliwQL788kufPNHaGDp0qKjZLvT7dMaMGX7V4n2K53zOnDk+nZd4rnCOUF4//PBDv3cNhvng+Tyuxv/jfekWPGNesTemTZvmd53cZfH+uOCCC6Rhw4ZSuHBh+euvv8Ie84574qabbtJV/vzzz3rsPcbNhyOdq3dxsi3ctsBZD2dl/d51cjL1hHZThwIeruKNumfMOyzD+pdR16GQdG5dQmYvPBzOIZmHBEiABEiABEggBwnkiOJdrVo1rbjivHfs2CEPP/ywVKhQwcGAdXxgYszdG2+84aRD0X7iiSe0suQkqhV8dPXo0UMQ5frdd9+1d+k6oDi7BQq8Ox0ftF6KNxR9fFDj4xhK2r333utTHZROBDZDYB4j+JhDWxs0aGCS9BJ527dvL+ecc448/vjjfh+nyHTnnXdq5c6noNoAtxYtWugPQ5QNJFBmhw0b5rMb7Dp16iQ333yz/vD12ZmBDVwbNz9U48V1//79foo3+Dz11FO6Q8M+PDh37txZ83n66ac9+dj57XUoyHfccYduQ2pqqqfSfeONN8p5551nF9P3HoLTnXvuufLoo4/qjhQ7A64/lGwEaMJ9iY4UI7hXcY1x/XG987q0uHKINBjQx+80yjWoI9W7tJXNsxfInFffc/bHl06Qxhf58sTOQjGF/dIRbC2Q4t3sssFSODZGts5dLJVaNZH65/d2joEVHB9jx6c89G+fdGw0qpM2Fvdkymk5cfK03347Adfr/PPTOgQQSdyteKNDz+yHi7OteF944YXOfeCleKOjDJ2KUMy9FO/LL7/c5z1n2vXbb7/Jxo0bzabf8oYbbhAo9UbwDjFKrhmPbPZFY4nzgGINJdZL8cbzAIFybnsNYZYIw+7777+XnTt3+jQHzx3efRAvxRvvRLzHvcR9new86ATDO9lmgfcI3oPhuPE/8MAD2sKN9/uYMWOcoHf2MQKtt6rcWu86qAKqpZ5O75AKlN+dvv3QdqlRuqaOcu7eF2x76ZqjMkzK6CyDVMcTFe9gtLiPBEiABEiABHIHgRxRvO1THzJkiMCiCysJFDR8DJctW1ZKlCihLRcmLz5oX3jhBWfqL3xQQUlGvsaNG+v0AQMGaEUeCriRAwcOyPLly82mtnLCmoHjuS3kdj6ngLWCcnfddZdOgdUGH+VIszsNTHZMXYMo3xDkxbHgwogPe1iLYTmDkudWoKHUmXHoaOO2bdu0RR+MoDyjTvsD0xzPXkLpRllEacexDR9ECsbH//vvv29nz9B6JFxhxXYLlFQoDxAotLDIQ8AFH/3NmjUTBGyDch6OQGk2VitwRuR698c6Ps5NpGTwwTFxH6EdiJYO6/eIESO0hwT2uwXXGtcHTNesWaOvY926dXU2dIhAAffquHHXE2wb1/f5558PlsVvH7wg3B1OfpnCSEhs2sBRuk+nnpK965Nkz+r1UrRkCSlbr6bAEl7IRDA7U9+JQ0e0smyqr9hcXb9icfr+2/anb/yE/Ru3mGwBl+Ub1ZGqHVrq/cf27pfDO3dLnFLuS1ZOVMcu7FcuoURhKRaflr7vYOSKj1+FWZgwf/58pyMO1xn3WyjBfW2UbtyTuL+gIMI67PXeCVVfbt4Pr5MaNWroJsI7CB2NoQQdgLbSDW8DdI7iWQRfPNfBBNHlzWwQ6OR1e1gFKxsXEycViqfVv/3gtmBZA+7DmHAo3pharGKJSnoO8ICZrR0LV6R7frRtVszaw1USIAESIAESIIHcSiDHFW8olPv27RMEtsEHkxFMk2MrP/fff7+jdMNt2VYejWUcCttVV10lkyZNciylUBCh4BqB8g6rJZQzO93sD7Y0833D2mVbbKDQGtd5lB80aJCjdEP5gwIJ5RKCOl577TXtQg4rK5RiuwMA520E8/tOnjzZbOqlURJ9El0bsPaCl1F4Ma4dx4TCjvptdq6iYW9mhis8FIwnAMZy3n777foewMGhTIwaNUpHFMZHMa6tbXX0aiB4X3PNNXoXON93330C93ZbYAEz0zfhmPhYty1ysJTDTRYdOXClDcQI9yrmFzauwbD+maEMF110UcRKs91GrONeQlsjEXTmREOqdmzlVPPHqPdkq3IttwWKd3xZX2URrt+zXxrrZOv+6O3aMp167IRPupMhxApc21PVNZw54k1JXrbayQ3Fu2LLxs62WalVtahZla070p4xJyGXreB5NoLOsXCi/5s8eBeiE8qMC4e1+fXXXxd4juQXwbvOvO/wHrB5BTpHdLaZjkhMp/bBBx/orEh78cUX9bjtQGWRB+8KCDwOvKz7gcoivXR8+rOQdGBTsKwB920+sNnZV65YubAV75Xr0ocmlEqIcergCgmQAAmQAAmQQO4lkGYqysH24YPywQcf9FG60RyM6zPjfGHthgUUgvHUbqUIitnMmTP1flglvcYJ6p1R+G/RokU+SjeqhIu6/ZFo3Lyh3KNDwSjdyAul+J133sGqFljpbbEtNLYbp8kDK/bs2bPNpucSH5BG6UYGdGjAcg6BYpnTAldWIxjfCmXWCKZ3g5sqBB/GGG8aTODeb5RuKMNw03cr3Shvf6A/++yzPko39sPF1HT0YCxvIIFVzCjdyPPtt9/qa4p1+9phOyMCrw/ELIjkD5bUaEiJSunDPfau8Xd9Prh1hyQvTfNMiMbxAtXx5xsf+SjdyIfx4esmTfMrUq1SuuK9Lim8qNB+leTSBHQQ4t0Hwf1glG5s45nBvVfQBePGIXjHGqUb23iWoXgHk1tvvdXxtorUywT1lo5Lc/XGerjRzJHXFrtcmfj0+uw8XuvKIUWOn0jzyilxxuPDKx/TSIAESIAESIAEcg+BHLd4w2UXylYwgVXYCD5EYflBAB1bihcv7mzC7dco4k5ilFbefPPNkDWZtkBxhOLtbqtdAT6ubYHSaKzBGOOMIEVwJbaVdzu/1zqCfbkF405hSYVXQE4LAlgZMUq22cYSHgVG4Q7mbgoLNix/EHRywHIeaEynXQ/c7b2uCepAx42pU1fs+m/evHmuFNHB6zB8AN4bmRUoVLC+54QcSNqmg5nh2N0euV2WfPil7FyyUk6pzqLsEljQt6hx5OFKfFwhJ+vR4/7DA5ydeXAFwf+MmE5Is40lLLx2J5a9ryCs41k1XkhmqIp93niXYloyr85GeN1gDDgEARgRayRSiY0p4hQ5kXrCWY9k5YQ1hVhs4cjezSmppyVOCqkhGJEckXlJgARIgARIgARyikBkv/RZ0EqMyQslCPJjBMqNsX6bNPfSRNh2p2d2G1YU2z3Zqz580EHhhuCjMFRb4VpsC1zY4Q6OshgHijHl+MPYd1iy33vvvZBKuBdTY6U1bbOPmd3rOC8IrP9eYyrhCg7WaCtczQOJrSCjQwEu14HcRW3Ooa4Jjgv+aJ8tgTo/kA7F2ygBdpm8tL7q25+lfv9eOshZQtWK0vXBW3Tzj+7ZLxumzpSVX0/yiWieFeeG6OmRyBbLvbxujXTrdyR15Na8Zrwz2gdPH7fgmTbPiXtfQdhGzAsjgYajBFK8McwIzzniNYTTmWqOYy8PHN/vbFZNqOasR7Jil9tv1RdOHcXPWLqP57MOp3DOnXlIgARIgARIIC8SyHHF27hAB4NnK1iYIsrLldgu72WVtPdndB3TcoUSO+ARrMwLFy4MWsT9QQ2LLdylMUa7du3ajhKPDgcEWjr77LO18o1p2AJJOO0MVDY70hE4CQILcyCBQg5FNtQYVrhmwwsCH9HooECAJi+rt7H040M7kHJu2oJje3UImP1ZucR5IMBcJAKPkVBeI+HUd+LQYZl415PSfviVUqFxfR2ZHOWKlSstTYb2l4Zq2rB5b34sm2dGx7Xdq01Hd+3xSg6Ytnl7+rjuGpXzl+JtW2px33qJeU689uX3NOOGj/MM9C7xehfCI8oMC8Hvj4nRYHiZdw7eP9ddd51OhheO+72y/1i64l29VA1TPKJltVLVnfx2fU5igJVqlYqod17azkNHlN85hQRIgARIgARIINcTyHHFO9AHk03OHq+M8c05NbYR1qVQgjHYRvBRhwBIkQrGZEPxhjs0Iu5iGp7WrVtrN3F8DF577bU6gJzbIhvpcXIqP6z36EgwCrhXO4z1GIp1IAEndFJcowKrYRojlHnmmWd08DN3GVgHYZWGopKRa+KuL6u2YcULNTbVfWxE48f9Eg05umefTHtGBeJT9165+rWkVu8uUkNNI4b5umOUa2/7W6+SLX8sFEQ9zwo5FWG923edVJ4Jp9W1LyTlSocOMmU/w+jkcIutzLn32WXd+7AN1+doit0paXc+2scwz4md5l535wn13jDn6cXH9hxxH8eUQ7pXWbsjwV02I9v270KgYR5ex8R7wEht1bmJPy/BOZgYHBhf/+eff/pkO6SmEDuWckziY+OlakJkARFNRTVKpVvttx70DQhp8ngt2zRNH1q1emN6oDWvvEwjARIgARIgARLIHQTyxOgwe/yee0x07sCY3goEWjMftvZY5vQc4a9BSVywYIE899xzcumllzpByPAhbcaBh19b9uT0+uB2H9lYZ5HXa1iAfY2Tk5PdxZ1tBBUDawSrM2M0EcEdc3W7xVirYM1yKyLuvNxWwanUvbd71XqZ/9Yn8s019+vgZuCCubZLVascENHpU2mdU+5pxwIWiMKOpG1pVm8zrViwKvF8GsG0hW7BUJFAYqzOxnvCnc9YSt3pGd22h4x4Pe+1atUKWTU8cBDA0P4z8RMCFTbvLy+l1X423eWPHDniJBmLspOgVoING7HzhbsO93Kj7AeaCcCrowD3AK5loD/7+CYPXNa95K+dS3SymVbMK0+wtMoJVfTu9XvXScqpwB5A7jqaN0iPZj95Rvo97c7HbRIgARIgARIggdxDIMct3uGgwNy1+BiEwoR5mDEmz3wEu8vD6hRoLK47b1ZtQwnEhyA+ejEllh2N2D5mpG1FZOO2bdvqKsJRcO1jZfU6FFt8lEMpiYuLC3h90A5cT0ylBsE0bK+88opeN/8h+JmRUHOrm3wYs4n7AvcIPATgGWFHhcc1wDUBN7iPvv3226ao3zLS6+JXQSYSYMWDFT+S62s6MjJx2JBFoYRjSi8timEgOarm3oYYCzmmBstqmTbvkNSunhY3oHPrEjJ7obeShHZgGjwoa+Br5pG324d52gOJGUeMslDQbcUYw0AiuWaBjmGnY9iEaSvee+652s1UY3YZ97pXEEGvNLscFGh0IngpykOGDLGz+qzbFnp46vz111/OfsR18FLGnQwZXIH3DJRrBE9EUEtb+e/Ro4dnMEm8U+zpH92HRnR0dDrAGytYPpSbt3WutK/aQVeB+biT9m9yVxdwG1HME4qmxfiYv83Xmh6w0Jkd7ZqlW7x//P1AqOzcTwIkQAIkQAIkkAsI5AmLN5TucePGaVxQrKBg2ZHO8SGJD9OXX35ZPv744xzH+tJLLzltQFRzfJTbAuvVY489Jp9++qlWzO19I0eOlNGjR0vPnj2dD3mcX+fOncVMnYOPcXvub7t8Tq0nJSU5h0Y0djvInLPjzMpnn33mjMnE1F3GnRO7MT1Yu3btdE50roQ7rADj6e0gSZg73XYphdJiOmtwPTAXt235hpIxfPhw+eSTT/TUY2eamu0LXFsMV0C0/3D/7OnYMtPgbg8Pl15P3yeV2zQTdfPpquByntisodQ8q73eRvv2b/IP9GWOeyApfV/n+2+UEhXLO3WZPNFevvZxslJQ02r9x/UVQ1ZvlDN0FPXu3VvnR2fLE088ETQyPeJLGMFzbe4vPJdmLLDZH40lOgnMcw5X83/84x/OOwHPTLBOgswc38TQAJN77rlHV4VOBXjdQKEOJDafQYMGOXNoowMS77Vod0ygHRh7DUHdeP+bGSXwjsUzntXy+8ZfJfV0WhDGIY0viuhwAxoOdvJPWjvRWQ+1UlYNqWjZKM1dfoWaz/vI0awZ9hGqHdxPAiRAAiRAAiQQGYE8YfHGKUHxxvRRGAOLcZiYixlKAKwS+EA0grSclvXr18vEiRO1wg0LMOaQhvsz2ortYB+gsDTBMgurJ/5gvXeXwfQ3ueE8bc5wZR04cKBWZmFJfPXVV53dUAyvv/56ZxvnNH78eP0hDxZQWjBuHWKzgRIcyXlOmTJFoMhDOYDVHYoU5oiHoPNm1KhReiw0joGphPDnxVcXKID/FSleTMrWqyVdH7hZn33K0eMSE1/U55og8rmj5XowwlzbTS8ZoMeDV2rZWM599XEn1+Gdu3XwNichSit796fK8rXHpGn9eGneoJgklouV5D2B3XYnTZokF154oT46pqCDgmbuO9wP9vvEbuKPP/4oV111ld6PIRKYgQD3J8piadbtMmYdw0Xs2RlMOpZ2Rx22MU2YmZManUnYj04idL7hPZjVAdX++9//ygsvvICm6OcJnZoQnCc6r/BseQm8XjZs2CC1a9fWjNBu46mE/Ob951UW06JBsfeSCy64QPBnBO9XE9MAHXPYV7p0ae1hhOkXgx3H1BGtJcZ4z9g0TXrU6iXda/WUd+e/LYdPBva4MMeNKRwjg84o3kuT/5JdRwIPqTFlzPKBGyqpa5G2NeqD8MuZ8lySAAmQAAmQAAnkDIEcsXjjw9FIJIoVrC+wluJjDoIPQfsjGdNQTZs2zVQddGm3IWhGa2ckbR0zZozuHECbIKatWELwcQiXR9tSjHS4RBvLLLZxfqYMzhsKvVdwMLttXudm9psl6o6mIHgZrg+iuJvrE6x+KOpQzsEBgnM05wnl5/nnnxevOb7tc/M6Fyg4hjnmQe7fv7/TDLifw6qNoGxGbL6oD+7D7nvIHMc+timPpdlvp+XF9e0Llgrm0TYSW0zNEnzmfoXL+PLxE2Tp/74zuz2XqSdOyuR7n5VN0+ZKRtzMT59Ofzd4HiBA4r/eSrumaO7DNwceg47i6NBZtGiRU5M5R1x7PLdG3Ncb1/lf//qXc88iH8rifsczCQt1ILHfU4HymHQ7L9p07733Ovc0jgclHG1B55X9rjDl7aX7HLDPK80uA8UW3jjmvsYx8Yfnyii8gepBhyi8T4yYtv722286XgXSTb0mD5boXAxXbD6o69ZbbxU70JqpC94CGNYSqZj2mWWo8uOXjdNZYgqpYS4Nzg+VXe/vXrOnFIlJi8L/+V+fhlUGmQqr+3tQ79I6Pzqcfp7F8d1hw2NGEiABEiABEshhAoVUgJ6cNxFnAAIsThgnjABJGFsIt9xQc2xn4DBRKYIxiJg7GvPyIljYxo0bBR+3wQSB2aA4IlgYlFqM78Y5QinNb4LxmYjaDoUAweRsxTirzhUf7xiuACskxoniwz2/8o2UIaYPK1W9ihRPLCcpx07IwS3b5UDSNjl1psMr0vqyK//40XWkRcNiSjE+LS0GLZdQAdLxDsGwBnT+TJ8+3VFuQ7UX9w6eZ3h2oKPJnskgVNnM7Me7AO7leM/Nnas6NrL4euC9Be8RDMPAFHyRxBIAG8S3QMcigiCGUvYzw8WURXvBB4o32ovnOrvkjk53S6/afeTIySPy968u9+xcsNvy+oC3pHLJKoLgbI9PfcTeFXT92ovKy0M3V9J5hj+RRMU7KC3uJAESIAESIIHcRSDPKt65C2PebE2wqZOCnREsX/mxAyDYOXNf7idQvXIR+eX9Bso6K/LMf7bLB1+nW15zf+vZwrxMoFRcaRl7wfsCq/ezvz8lwYKl1S5TR148N20ozh0/3iqRTCM29YMGgjm8V204LgNvTp+6Mi+zY9tJgARIgARIoKAQoOJdUK606zwRfGjEiBGu1PA258yZo13Bw8vNXCRAAiRAAiRAAiRAAiRAAiRQsAnkyBjvgo08d5x9qCmFgrUS4z0pJEACJEACJEACJEACJEACJEAC4RGgxTs8TvkuF8apZnQ6IkQuNlMO5TswPCESIAESIAESIAESIAESIAESiDIBKt5RBsrqSIAESIAESIAESIAESIAESIAESMAmQFdzmwbXSYAESIAESIAESIAESIAESIAESCDKBKh4RxkoqyMBEiABEiABEiABEiABEiABEiABmwAVb5sG10mABEiABEiABEiABEiABEiABEggygSoeEcZKKsjARIgARIgARIgARIgARIgARIgAZsAFW+bBtdJgARIgARIgARIgARIgARIgARIIMoEqHhHGSirIwESIAESIAESIAESIAESIAESIAGbABVvmwbXSYAESIAESIAESIAESIAESIAESCDKBKh4RxkoqyMBEiABEiABEiABEiABEiABEiABmwAVb5sG10mABEiABEiABEiABEiABEiABEggygSoeEcZKKsjARIgARIgARIgARIgARIgARIgAZsAFW+bBtdJgASiRuCVh6vLL+/Xl8duqxy1OlkRCZAACZAACZAACZAACeRFArF5sdHRaHOTJk2kS5cuUqVKFYmJidFVfvPNN7Jo0aJoVJ/tdbRu3VoGDx6sjzty5Eg5evRotrchtx9w6NCh0qxZMzlw4IC88sormWru1VdfLRUqVJBly5bJhAkTMlVXfizctU0JOb9nKX1q65JO5MdT5DmRAAmQAAmQAAmQAAmQQNgECqTi/c9//lM6dOjgB2nt2rV5VvFu3ry5tGrVSp9TQkICFW+/qyvSo0cPqV69uqSmpmZa8T733HMlLi5OqlWrRsXbg/XIB6rp1OMnTstH3+7xyMEkEiABEiABEiABEiABEig4BAqc4t2mTRtH6T59+rTs2rVL9uxJUwxWrFhRcK48z5QEsogALN2J5dJeLV9N3pdFR2G1JEACJEACJEACJEACJJB3CBQ4xbtnz57O1XnyySdlyZIlzjZXSCBcAn/88YeUL1+e948HsOFXJOpU1a8lI9/Z4ZGDSSRAAiRAAiRAAiRAAiRQsAgUOMW7cuW0QE+wdlPpLlg3ezTP9tVXX41mdfmmLli6G9aO0+fzx+LDcvDwqXxzbjwREiABEiABEiABEiABEsgogRxRvEuVKiVXXHGFbjMCUyUlJUnHjh2ld+/eUrt2bTl48KDMnTtXxo0bJ6dO+X64FypUSAcRa9q0qdSsWVNOnDgh69atk4kTJ4qXq3ixYsUEgbCMVK1a1azKLbfc4qxj5ZdffpHVq1f7pGGjX79+Uq9ePUlOTpbx48dLxYoVdRraXLRoUdm6dat89NFHsn79er+yXbt21edWp04dnXfTpk0ya9Ys+fXXX/3y2gk43iWXXKKPVbJkST1mGy7xKDtlyhQ5efKknd1vHcHj+vbtK1iC0apVq2Ts2LEhy/lVFEFCr169BK78NWrUkBIlSsjevXt18DFcx0DB3vr06aNd/zH2GmL4TJ8+PeiREdhsyJAhUr9+fSlTpoweLrBmzRr58ssvZd++yN2bEWDvqquukvj4eH1cXM9Dhw45bcAxTPA6J1Gt4JgzZ860kzzXcT1xPdDe0qVLy/bt2x027nvcs4I8knjxuWWcln4/9YCzzhUSIAESIAESIAESIAESKMgEckTxRkAqKLOQHTt2yMMPP6wjRJsLAaUKiipced944w2TrBXtJ554QisuTqJagdKGwFk//PCDvPvuu/YuXYc5lr0DCrw7HQq/l+INhQsK+7Fjx7TCdO+999pVaeUYgc0uvvhiJx0KHNraoEEDJw0rUNrbt28v55xzjjz++OOeivCdd94ptku8qQDcWrRoIVDmUTaQQJkdNmyYz250UnTq1EluvvlmOX78uM++zG7gnNAe401g6sN1xPmD33XXXaejiZt94PPUU0/pDg2ThiU4d+7cWfN5+umnPfngWt9+++1ONHqUS0xMlEaNGgmCnr344osyZ84cJIclRYoU0cHWTPsR2d5WulEJFOcLLrjAr76NGzeGVLxvvPFGOe+883zKgg0C4qG9jz76qO688cmQRzd6dUpwWr5w+RFnnSskQAIkQAIkQAIkQAIkUJAJ5IjibQOH1RIWXbh+79+/Xys8ZcuW1RbTwoXTpxmHlfyFF15wlC1YU6Ekw7LauHFjnT5gwACtyEMBN4Kpo5YvX242tcURihaO57aQ2/mcAtYKyt111106Bcrr7t27BWlQotwyevRoKVeunJMXx0pJSRFY6mGFh5IIhcutQMOKbpRutHHbtm3aog9GUJ5RJzoNggmUbpRFlHa00/BBtPPLL79c3n///WDFI9qH8x81apTmgII4Hiz/uJboKMAf2gvPAFvQKQFlFgLrPSzyEHCJjY3V03499NBDWjnXO878h04Wcw2QBG8DWI9xnEqVKumyDzzwgO5gwPUJJYhMjvaba4ix2//+97/9iqGDyPZoqK08M0JdB1SCTpqzzjpL14drgvPEvYtzR2cBrN8jRozQXhnYnxkZPny49jiIpA6wPHIkegpyg1ppbuZow5qN0e3gieS8mJcESIAESIAESIAESIAEchOBHFe8oVDCNfiRRx7RCpSB0717d608mu3777/fUbq/++47H+XRWMahsMFdeNKkSY6lFIo3FFwjUN5hTYcSbKeb/cGWZr7vr776SruWm7xQaI3rPNIGDRrkKN1Q1qBAGtdw1PHaa69pyzcsnlCK7Q4AnLeRt956SyZPnmw29dIobD6Jrg1MlwVecNuGwJKLY0JRRP3RVLxhnYfyDUFHyP/93/8554o0WMMxfRvc3Y1AeTaeAHBBh/XauIdDAYYiDIW4ZcuW2mPBVqCR1wjc/j/55BOzKTfddJO2IOM8b7vtNj+l3cl4ZqV48eKCDhK4kUPg/o9tL9m8ebNmavbhuGhjMIH1Ht4JEJwnlPCdO3c6Re644w6Bez46jzAcIrPXBZ069lAK50BBVtAhEk3FO75oWqfQ0eOn5FTm+hGCtJq7SIAESIAESIAESIAESCBvEUg3KedQu2Hle/DBB32UbjRl2rRpYsb5wtrdrFkz3UJYON0KChQzM84WSqDXHN3ROj24IWP8ry1wUYeSbMS4eUO5R4eCUbqxH0rxO++8Y7IKrPS2wApqxCv4G6zYs2fPNlk8lzNmzHCUbmSARRiWcwiUvGhKly5ddHU4V7fSjR1QNKFwogPECMauG/n8888dpRtpmN7t+++/17uhQA8dOtRk1UuMkYZAkbWVbqSNGTPGYY1OjWCCzpLXX3/dUbp/+umngEp3sHqC7UNHgLGKP/vssz5KN8qhvcbK3a1bt2BVhbVv/vz52jsCMQ/C/Yv2sIPY2DTFe8/+1LDazEwkQAIkQAIkQAIkQAIkUBAI5LjFG8GpoGwFE1iFjUAJx9hg2w0d+2C9NIJx0EYRN2nRWr755pshqzJtgdIFxdvdVrsCWN9t2bJli2MNxhjnDz/8UAdUs5V3O7/XOtyl3YLAbLCGwisgWgLXd6NYIhheuG2ES7gRo2SbbSzhUWAUbriQG4H13BzPq1MC+eA9gOsPzwK49HsFdcP1gNJtOiFg6X777bfNYaK2tNsOF3+v+wAdFugsMlb3zBzcHd8gM3VltuzJEzR3Z5Yhy5MACZAACZAACZAACeQfAtHTwjLIBC68oaRhw4ZOFrimG+u3k+hagYKWFQLrpO0q7HUMuFEb5RDKX6i2wvJqC6zpcAdHWYznxhhc/CHYFyzZ7733XkgF14spAsNBTNvsY2Z0HeOxjWzYsMGshlyase+w/ntF9IayDNZoK4YRGKlbt65Z1WP5nQ1rxe7Eqa3GYXuN20e9RulGUbi0Z4XY1zbUfYA24ZqDSV4WuJcXVkbvCmpaMQoJkAAJkAAJkAAJkAAJkEAagRz/OjYu0MEuiG0NXLlypcAqHEzmzZsXbHeG99njlANVYoJ0YT+szAsXLgyUVafDdd4WBN7CuGmM0YbiaBRldDggAvbZZ5+tlW9MwxZIwmlnoLKRpBsFGmUQTC1cMYHWYO0NJFDIoYia6b2QD4HIjBw+fNis+izt8cp2+3wyqQ0o9nB/R53Ih/HWgcZ3u8uGu228C+DOjU6TYILz9eqECFbGvQ+eBAhMGK6AAZ6naMrxE6ekWFxhKVEsx0exRPO0WBcJkAAJkAAJkAAJkAAJZIpAjivewZQvc2YmSBi2Mb7522+/NbuydQlFJZRgDLYRdCrApTlSwZhsKN5wTcY0ZZiKqnXr1tpNHMrotddeqwPI5bR11I7ybbtVhzpfWO/RkWAUcK/8OE+IrdDblny7g8MubyuemOorkLz00kuyePFiPbc5XL0R5AxzpP/555+BikScDi8DuLtDoc7IfRDpATHG3j10IVQdf/vb33zG2IfKH2r/9uQUqVO9qOowEqlUIVZ27ArcuRKqLu4nARIgARIgARIgARIggfxCIE+YpcxUU4AeqWKR3RcKgdaMQmyPZc5IO6CwLViwQJ577jm59NJLHQUJSqmJCp6ReqNVxo7Gjoja4YpxB4c132tYgH2Nk5OTnWptRR/jy73E7gBwexOY/Lg+iAGADgBEuTeCzg7bPdykZ3QJ7wUIrPamIyGjdeWVcrMWpnsitG2aHnchr7Sf7SQBEiABEiABEiABEiCBrCCQ4xbvcE4K01RBWYLygjmREeAsUDRmWC/DDfIVzrEzkgdzPiOQGayyGD8My6qXRNpWRKpu27atrsq4oHvVm11pcNWGVReKJaY5g8JsK8emHQiIhw4J4zGA62mijmMatldeecVk1UsEIjNij9GGGzmuLbih4wHTedn3AY5jFHKMEw/HdRsWbkTPR1Rx1IvAfffcc485fKaWuO64D3CtrrvuuqAB3CK9F7wahjnhbYu/Vx47DdfDTONmp2dm/avJ++SKgWnu7t3alZQJv6dHs89MvSxLAiRAAiRAAiRAAiRAAnmZQJ6weEPpHjdunOYM5RuKtx3pHC7ZUMhffvll+fjjj3P8esCN2QiimmNsti1QGh977DH59NNP/QJ7jRw5Uo817tmzpzO+G+fXuXNnadOmja4GCpNtbbbrzu71sWPHOod8/vnndWA4kwBl8sorrxRE27aDpH322Wd6HnXkg8JrT6l28cUXS7t27XQVUKrdwwrMvOZQZjHft7FQQ+HE9TcdEpjrPVyB4m8UUCjuaHM0BOdtOgZwD2BucdvyDSbDhw/X06Jh6rHMCqbVwywB4f7ZwyIye2xTftGKo7LvQFqAuIG9S5lkLkmABEiABEiABEiABEigQBPIExZvXCEo3l27dtUWTVg2MS8yFFAzHZO5isaqarZzYgmr78SJE7XCjQBbUKpuvPFG3VZsG+XQq22wHsNKigBr+IOF111m6tSpjvXYq47sTENbevfuraO3Q6m8++67dRR293Wx24RzGj9+vHafN9ZgjFuH2GwwT7f7en7wwQf6eBg7DY+C999/3+FqjgHrOuYHD1dwDHSEvPrqq/r4Q4YMEUyPZgKPVa5cOeAY7Vq1aulzMcfCuV122WV6Ex1G6ByACzvOq0+fPvrP65qa8vlh+ekPe+XWyyvoIGuwfn/yfZrLfX44N54DCZAACZAACZAACZAACWSEQI5YvG0XYLdiFewk4AIMaykUGgiUGVhVjcC9eNq0aWYz6NJuQ9CM1s5I2jpmzBjdOWDmkTZtNYolFFO4USclJVlHEO2Wbqyk2IHzM2Vw3lDovQJ12W3zOjez3yx9DprJDSitsO6aQHnmXFEtjgfXcijDtkAxhqJrlzHnCcUU1nOvOb6x74YbbtBWXVOfiR6ObTBFJ4fXeZr7xpSzl4iUb7wl0I6HH37Y2Q2Pg3DFnRfBAGHVRsA8I/Y1RTsRNC7c+9bUkZuXb3ySLCdT0gIR3np5Ym5uKttGAiRAAiRAAiRAAiRAAtlCoJCy2IUO1Z0tTYnsIAjKhXHCcDFG9HC414aaYzuyI0QvN9yhMY9zjRo1BMHCEG3bayy0fUQEZqtfv77A2opx1BjfjXOE4pmbBe7TLVq00K7l6FRYtmyZDmIWrM0IiIao7egwQDA5W0kNVg5jvHEsWJ3B56+//srVfKBwY4gE5qVHYDdE688L1zTYNQi0746rEuWOK9OU7kvvXi8Llh8NlJXpJEACJEACJEACJEACJJDvCeRZxTvfX5lsOEG47GdEYMXP7R0AGTkvlokugbnjG0npkjEyW0U6//uDgad2i+5RWRsJkAAJkAAJkAAJkAAJ5D4CVLxz3zXJlhYhwNuIESMydKw5c+ZoV/AMFWYhEiABEiABEiABEiABEiABEihgBMIfvFrAwOT303WPRY7kfM1Y7EjKMC8JkAAJkAAJkAAJkAAJkAAJFFQCtHgX0CuP8cYdO3bM0Nlv2LBBEIyMQgIkQAIkQAIkQAIkQAIkQAIkEJoAFe/QjJiDBEiABEiABEiABEiABEiABEiABDJMgK7mGUbHgiRAAiRAAiRAAiRAAiRAAiRAAiQQmgAV79CMmIMESIAESIAESIAESIAESIAESIAEMkyAineG0bEgCZAACZAACZAACZAACZAACZAACYQmQMU7NCPmIAESIAESIAESIAESIAESIAESIIEME8g2xbtOnTqCPwoJkAAJkAAJkAAJkAAJkAAJkAAJFCQC2aZ4FySoPFcSIAESIAESIAESIAESIAESIAESMASoeBsSXJIACZAACZAACZAACZAACZAACZBAFhCg4p0FUFklCZAACZAACZAACZAACZAACZAACRgCVLwNCS5JgARIgARIgARIgARIgARIgARIIAsIUPHOAqiskgRIgARIgARIgARIgARIgARIgAQMgVizwiUJkAAJ5GUCCUUTZEDDwdKhWkcpHVdGShYtIZ8t/VS+Wj4+L58W204CmSLw4rmvSuWSVeTQiYOy4/AOmbRmgsxImi6nT5/OVL0sTAIkQAIkQAIkEBkBKt6R8cpU7sT67aVs9SYSXzpRChUqpOta+uMbknLiqFPvBZ2bS1yRWDmZkipfzVripHdpXFtqJJbR25Pmr5R9h9PLOJlyyUqbutWkYbWKUr5Ucec835n0hxw7cTKXtDCyZvRsUU+a16oiu/Yfls+mLYiscA7kvrJ3eyldIl6WJ+2QKYtW50ALsv+QeJ5G9HtBKxj20eNj4+3NXLXepEkT6dKli1SpUkViYmJ027755htZtGhRrmpnuI1p3bq1DB48WGcfOXKkHD2ae99R4Z6TV75SpUrJ3XffrXf98MMPMm/ePK9suSYNHVJ4DvBXoXiiNEtsLoklKubKDqn88PuXay48G0ICJEACJJDrCFDxzoZLUqhwjHS7abSUKF/d72irpn7oo3hf0q21o6zaivdFXVtKtfKldfkVSTtzpeIdU7iwPH/tQKlaLq2d9sl+9vuCPKt4d29aV5rWrKzbH67i/dSV/aVCqRI2gpDrW3bvl2c/mxwyX6gM/Vo3lCKxMZJYqmSBUbwblmvkKN1LdiySdxa8LbuO7JLjKcdC4cqR/f/85z+lQ4cOfsdeu3ZtnlW8mzdvLq1atdLnlJCQkO2Kd/ny5aVcuXL6uJs3b/ZjG62ExMRE5zy3bNmS6xXv4T/cJCWU90ftMnXlgbMe0gr4RU2G5UrFOy///kXr/mI9JEACJEAC+ZcAFe9suLYNev7NUbpPpabI/q0r5eSxwyLK0+/ksUPZ0ILsOcSwbq0cpTsl9ZSs2bZLjhw/oVwaRQ4fO5E9jcglR6muOkniixaJqDWFz3hBRFSImTWBWmVqOyTGzh8jmw8kOdu5baVNmzaO0g133127dsmePXt0M1esWJHbmptn2vPQQw9JnTp15OTJk3LZZZflmXZndUNTTqnfnGP7ZdH2BfLTmh9lSOOLpHiR4lK4UGE5dfpUVh+e9ZMACZAACZAACZwhQMU7G26Fig076aOcPpUqk0YMVev5c2xdu/o19HmmnjotV7/0cT49y/BumJ/mr5ByJYv7ZK5TqbwzXGDjzj2yceden/3b9x702eZG+ARKFi3pZN51JNlZz40rPXv2dJr15JNPypIl6UNKnB1cIYEsIJB8eKdTa+n40rL3qO87yNnJFRIgARIgARIggagToOIddaT+FcYnlNeJB3esV8v8qXTjBMueUTQ3Je/Jx2epL2XI/z6fttAvz3ntGsvf+6S5F09euKrAuIH7gcjiBFj4crNUrlxZNw/WbirduflK5b+2nTyVHmejkHBSk/x3hXlGJEACJEACuZkAFe8suDolE2tKlabdnZpjisTp9biS5QRu57asmzFOUlOi54Zdu2I56dCwhnbv/mrWYolVQZvaK0t0ZxWcrXLZBNm576BMVMHZFm/YajdDr5eMj5MezetKg6qJUr1CGdl14LCs2ZosExeslENHj/vlR54ujWs56QgKBylTorjA7dyWb2b/JSdUwDhbiscVkQEdmuqk35euk+R9h6RJjUpyVtM6ug0IIDd31Sb5WSmpp1wReBGarnvzetK4ekWpU6mcHD+Zql3bf/9rrWxKDm7FaV2nmipbVyqVUUGHisbKgSPHZOvuAzJt2TpZuTndImS31V5H8LgODWvqNibvPyRzVBt/XbLGzhK1dZxb1yZ1pF6V8tp1ffOufYIx/lMXr85Q50aZEsWkX5uGun0H1TX9aZ6/a3NG7wNcom/++EuqqTH+CAbYvHZlfV1WbN4h42csltRTucetFQGyrrjiCs1hwoQJkpSUJB07dpTevXtL7dq15eDBgzJ37lwZN26cnHK1G4HcEESsadOmUrNmTTlx4oSsW7dOJk6cKF6u4sWKFZOrr77auSeqVq3qrN9yyy3OOlZ++eUXWb3aPyBev379pF69epKcnCzjx4+XihUrCtLQ5qJFi8rWrVvlo48+kvXr1/vUh42uXbvqfHDDRt5NmzbJrFmz5Ndff/XLayfgeJdccok+VsmSJfXYabjEo+yUKVO0S7ed372O4HF9+/YVLMFo1apVMnbs2JDl3PUE2nZzBRNIbGysuLliLPZ3333nWVWfPn2063/16mkxOAyf6dOne+YPldi2bVvNG/lWrlwpU6dO9SsCtmBTv359KV26tGzfvl2WLVvmeb+hMLwkwBH8P//8c72N64p7de/evfLHH3/IV1995XecaCTgvT7wzHsa9e1V7+WCErQxGvxYBwmQAAmQAAkYAlS8DYkoLivUbSv1ul3qV2NcQjm/9M0LJ8vR/aGVPb/KAiS0a1BDLuzSUu+dsWy9jLhmoA60ZbIjQFubetXl/z6aIGvVGGwjUEbvGdLTL2+rOlVlcKfmMvLLqfLXxm0mu162rF3VOZa9o2zJYn7pUxev0Yq8nS+xdIKTL1lFDL9vSC+t8Js8aGszFdQMlnQ7qBkU5ocvOVsSS6e7F6NMw2qJcn77JjovFH23QFl/5u/nK0U9zQPB7EcwuMbVK0mfVg3k9R+mC7gFkhvO6azzmf1oY2uliLeoXUVGfzfNJEdlOfSsVjJUBdWzBR0r3VSwt0Edm8nT/5skew4dsXcHXUewt39fO8gZe/7mhJl++TN7H0CZv7qvb9AwdI50b1ZX7h37jY7W73fQKCQUU2NWI5Fq1appxRVlduzYIQ8//LBUqFDBqQLrUFQRsOuNN95w0qFoP/HEE1pZchLVCpS2Hj16CKJcv/vuu/YuXQeUZLdAgXenQ+H3Uryh6ENhP3bsmFbS7r33Xp/qoHQisNnFF1/spMfHx+u2NmjQwEnDCvK2b99ezjnnHHn88cc9FeE777xTK3c+BdUGuLVo0UIr8ygbSKDMDhs2zGc32HXq1EluvvlmOX7cvyPPJ3MYG7g2bn4o5sV1//79foo3+Dz11FO6Q8M+HDh37txZ83n66ac9+dj57XUoyHfccYduQ2pqqqfSfeONN8p5551nF9P3HoLTnXvuufLoo4/qjhQ7A64/lGyMX8d9iQ4XI7hXcY1x/XFvhivFihQTCSPwfBn1Pse7yMiR4yepeBsYXJIACZAACZBABASoeEcAK9ys+7eukh0rZznZKzbsrD/EUo4fkd0bfKcKCje4mj3nqtv66xzItfLIZf20Io2pyTB++ERKioqMXkZbedU3vyNQoB+4uI+zDQvlpp37pGr5UnoaLUTIfmhYX7lrzFc+yvPa7btk7upNTjlY1vHRiw+zpZt8lfRQwdWGqWjuUNhxnjuV5Xv/kaNSUSnYsNDaQceKxxWVkdcNVpb8NDdJnNeyTdulRHxRwRhzpF/avY1up1uBvqJXO0fpxtRmq5Q1HxbkCir6N5TDUsXjBZHZAwmCpUE5x/ktUR4DaAsUbggsvIhCj/qiIX1bNXSUbjBZpI4Hhk1roCOimFRS3gtPXdVfbv9PeHNUI/+IqwfqqerQvle//V3+WLnRp6kZvQ/sSqB0Y4w/OmmOn0yRtqqTB9ekfEIJgav9d38s1dlLFovT95RdNtT6rOUb5Pu5yzyztanc1klPVbEUIpEhQ4YILLrgDAXt0KFDUrZsWSlRooQUtu4HWMlfeOEFZ+ovWBqhJCNf48aNdfqAAQO0Ig8F3MiBAwdk+fLlZlNbOYsUKaKP57aQ2/mcAtYKyt111106Bcrr7t27BWl2p4HJPnr0aB3lG9vIi2OlqHcALPWwFjdq1EgreW4FGkqdGYcOJtu2bdMWfTCC8ozI4XjOgwmUbpRFlHYc2/BBtPPLL79c3n///WDFw9oXCVdYsd0CJRWWZwgUWljkIeACq3mzZs0EAdugnIcjUJpvuukmnRWcEbne7YGADpOzzjpL5wEfHBP3EdqBaOmwfo8YMUJ7SGC/W3CtcX3AdM2aNfo61q1bV2dDhwgUcK+OG1PPweMHzKq0qtRathzY7Gzn5hWbRbi/f7n5fNg2EiABEiCBgkmAincWXPe9ScsEf0b6/eNziSkaL/u2rJQFXzxnkj2X14/6nxRS/067HIkf+fBHiT2jBIQ7HzaCe8FVe/T30wRRxiH4XO7fvqnsOXDE2R4+IP1D8MlPJ8mqLekWeFiCH7v8HP2hPXxAN3nq04m6HP6DW7btmv3uXZdrpX7NtmR5+evfnHzhrECZhML91P8myp6DaW1DOVhgbRY3ntvZUbo//X2+o8ghLxTnV2+6UCuX1/frrBVLc97Yb4K/4SPu7re/1i7mSDcC6/525YofTHYoRf/B979z3HAj/EcAAEAASURBVOZ7KHf3W/p31UXOa9tYxk6aHax4WPtwjS7r0UbnRVvhnbBu+269jU6Ixy4/V1v3cX07Narlp0C7D4IhAc9edb7uhEF9LyjvhQXrtvhkwzEzeh/YFYH3P979Vnac4VguobiMvvkiff/0bdnQuV4lVKeF2/PArsdrfc/Bo56Kd5n4MlKnbJrysfPwDp/7xasedxoUyn379skjjzyirclmf/fu3bXyaLbvv/9+R+mG27KtPBrLOBS2q666SiZNmuRYSqEgwoppBMo7rJZQzux0sz/Y0sz3DbdiuJYbgUJrXOeRNmjQIEfphvIHBRLKJQR1vPbaa9ryDSsrlGK7AwDnbeStt96SyZMnm029NEqiT6JrA9Ze8DIKL8a145hQ2FG/zc5VNOzNzHCFh4LxBMB847fffru+B3BwdGKMGjVK4uLipGXLltpjAR0cwQS8r7nmGp0FnO+77z6Be7stsKTDPRyCY0IJ37kz/V0LS3mvXr10Rw6GJgRihHv1tttu094PqAvWcDOU4aKLLpLnn38eyZ6yaf8mJ71HrV4yYfUPET8vTgVZsBLN378saB6rJAESIAESIIFMESicqdIsHHUCx06kyFFljcXSFlitkY4/fzuInTN9fe+ho/LyN785Sjf2oOyPfy5zXJQxfhgKK+TLmYt9lG6kwfqN+aUhjZQrNxS0rBAohI9/MsFH6cZxFq7fIovWb9WHxJhwKJoQuMkb66lOUP9hrPYvi1brTYzdRqeBLeY8YYlFXrfgOFCsg8mbP810lG7kw5hyo9xXLOPr+h6snmD7MGc4LPiQuauTHKUb27D2/OfHGVjVYo+9NGn2Eq7p//r7AEfp/tfnP/sp3cgfrftg0oIVjtKNetGJYjoNDH+kw3q/VHkqRPJnxyXoV+9cubzF3+SuzvfKmwPHokpJPZ0qb897S69H8h/uvQcffNBH6Ub5adOmiRnnC2s3LKAQjKd2K0VQzGbOTHPdh1XSa45uXTgK/y1atMhH6UaVcFGHkmzEuHlDuUeHglG6sR9K8TvvvGOyCqz0tsDyasQr+Bus2LNnB+9gmjFjhqN0oy6MYYblHAIPgZwWjF03gjHTUGaNYHq377//Xm+io2Do0KFml+cS7v1G6cZQALjpu5VuFIQ13HgKPPvssz5KN/aPGTPG6ejp1q0bkjwFQx9wHCPffvutvqbYtq+d2W8vtx/apqcUQ1qD8g3ltQFvyo3tbpFLml0ujSo0trPmyHo0f/9y5AR4UBIgARIgARIIQoAW7yBw8vqur2cvCXkK9aqkj2ttVquKmu6qbLpyfUbLLqpczSH4aKylFLkNaiqsaAtcqfcfTv+Y9KofSqSRcsp1+e4Levq1NUG5MBuB+7g9Ln23ChZXPBGu9kXkHlUWgcCMUmjKhFraFn6TF3OVQ6ksXVyNmYyCYNy4kV/V2Hi3wJqMwHNww3ePc7fzVi1XSp5Wlu6YwmkX0u3NYOeN1n2wYK2vlQ/HSFbcUX9ckbT7CGmHjh2XZz/ztaQiPVwZ1vRSKV88/d5dnrxUXpn9ouw6kh63INy64LILZSuYwCpsBEo43I9tN3TsK148fZw53H6NIm7KRWv55ptvhqzKtAXPLBRvd1vtCmB9twVKo7EGY4zzhx9+qAOq2cq7nd9rHcG+3ILAYLD6wisgp6VSpfROOaNk222CR4FRuDGuPZDAgl2mTBm9G50csJzDddxL7Hrgbu91TVAHOm5MnV71zJs3zy8ZweswfADeG6Hk7Xlv6jm9b2h7s1QuWUXOq582XCa2cKys3LXCr/hO1Rl579iv1bs27T1yXLWRQgIkQAIkQAIkEDmBnP8CirzNLBEmgfU7grtHopoaShE1AkU1lMCqmxWKd5IaUx5KaqsI30bgmt5RRRYPJm6l9ONf58k/1Vh1CKKS4w/jkXfsO6Cjbs9asUHvC/Sf2wvB5DPR2s24c5Oe0WVlpTAbMS7bZtssYbGH4l1CRaIPJBhHbUtn5S1gDyOw90XrPtipory7xQyNMNY+9/6MbH+1YrwkFk+UaqVqSPuqHaRJYjN57fw35fFfH/VUHoIdY/PmzcF2630NGzZ08kC5MdZvJ9G1YiJsu5IzvQnrvO2e7FUh3KgNa7iVh2or3NRtgQs73MFRFuO5MaYcfxj7Dkv2e++952NBt8uadS+mxkpr2mby5sQS5wWB9d8dtR7pcAUHa7QVwwgCia0go0MB4+fByEtszqGuCY4L/mifLYE6P5AOxRtlQgk8RS5WHVeQIyePyNwtf8juo7tlwfb5nkXhJYVYGhQSIAESIAESIIHMEaDinTl+ubo0xkyHEttC7BUJ3F1+/Y7oW7txjB37Q3/Y2RbleWs2hwxkZlu7cQy4KiMS+PXndBJEMofAGoz1OwZ1l6v6tNdWWONarzP4/IdP0KwX+5ocUZYsLzHKrLFme+VBmuksgOs9gpvNW5Ok3bvd+e1jZuY+wJCIcAS2s+pWp084ZeARYYYIYGyqkSYVmsozfUdIkZiicnP72+Ten+4wu8JaGhfoYJltBQtTRHm5EtvlvayS9v6MrsOyGUrsQGuwMi9cuDBoEbjO2wKLLdylMUa7du3ajhKPDgcEEDv77LO18o1p2AJJOO0MVDY70jGtGgQW5kAChRyKLKKfBxME5IMXBJRldFBgWjAvq7ex9CMwWiDl3BwHx/bqEDD7M7qsoDqrjNK99+heuePHW+RoytGMVsdyJEACJEACJEACERCg4h0BrLyWNcVlLfFqPywZNZV7OQSu6Rj/nBMSzhzPW/akjTVH+xBNHeOrI5XlSTvk/ne+1QHYmteqrOa0biQtlIs9PpphQb5tYDd5+L/pSl2k9UcjP+ZaN4Jo4F4u+KXOuLUHu15QuuEiWl5NI/b0lf11lfdf1FtuU5HQ4R5vS3bfB4hY//w1g+wmhFxHZ8uLX031y7d81zLlYp4sUCqql6rutz9UQjDly5Q1QcKwjfHNGFebEwIrbCjBGGwj6FR4/fXXzWbYS4zJhuINd2hMU4Xpr1q3bq3dxKGMXnvttTqAnNsiG/YBcjgjrPfoSDAKuFdzjPUYinUgASd0UlxzzTVy/vlqWIdi88wzz+jgZ+4ysPjDKg2FOiPXxF1fRrZrlanlFPt53UQq3Q4NrpAACZAACZBA1hNgcLWsZ5yrj5CUnD4eEeO3c7NssKztNSO0lrrPCworFLkR436Rm18fp13Okae6mm4tp2XbnnTF23avt9sFV3uIsQDb+8z6JnVtMRYcgeiMFTuuSKzjbm/yYZmX7gO73WZ9xqbpejWmUIyK/h/9/kQz1RQO4h4TbdqQW5YItGYUYnssc0baByVxwYIF8txzz8mll17qBCGDgmnGgWek3qwsg060UGLG9COv17AA+xonJycHrG7+/PmaNYLVYT54CCK4Y65utxgrOCzoRql358nq7TLxaZ2sOM7MJG+XeK823KBmk8CsB/i76bwuXlmYRgIkQAIkQAIkEIIAFe8QgPL77vlrNzuneGXvds6610qwOa698kc7bcvufWJcmfu1bqQjdQc6RiRtPXT0uFJQ06cwC1RndqWvVtOxGenfrolZdZaYFg0KNCTc8fafTVvgRKevrwKdDerUzKkPK9l9H8Cqf9/Yb7T3ATwQwvl7a0Ja1HCfhp/ZOHQivbPCa39m0zA3slFmMQ8zppoKJAiOldNilEC4nWNKrEASaVvXrVvnVBWOgutkzoYVo9jCpTvY9UFT7Lmu7WnYTDMR/MxIqLnVTT5MDWfuEXgIIMCeLYsXL9ab4HbdddfZu/zWI70ufhWEkXDoROihSKaaPi0bSLemdfVfrxb1TTKXJEACJEACJEACERCg4h0BrPyYFWO2F56Z0xkK2YMX95WSVsAuKHj40HrlxgvlqSvPy1EECIT24dQ/dRuKqEjrL15/geMmj0TMcd2ydlU9z/W7d13m19Y3bxsmdw3uoSOzm5167LOafxsu3ZCdYYw1N2WzaokpzVZtSVO+EeH8hnM663PD8epWLi93qvHoRj751TsgktlvLxFFHAwhl3VvI3aU+Oy+D9CKbXsPyFY1fCDcP0RCD0cKFYr+aw0K1bhx4/ThYa1EZHE70jlcsqGQv/zyy/Lxxx+H08wszfPSSy859SOqOcZm2wJr9WOPPSaffvqpn2I+cuRIGT16tPTsqWYNOGM9xvl17txZ2rRpo6uBy7s997ddd06tJyUlOYdGNHY7yJyz48zKZ5995ozvxtRd9pRqmB6sXbu0TkiMxw53WAHG09sR5zF3OlzLjbz77ruC+iC4HpiL27Z8I4jb8OHD5ZNPPtFTj5ly0VwWlug/G9FsH+siARIgARIggfxMIPo+mfmZVj49tzeVJfGF6wYLomC3qlNVxtxxiWNZhoJrZONO33HBJj07lz8vXKXnnEYE9gpq7PKIawZqZRKWcCjRRoyCabaxLB5XVM8DjrnAoTgcVWOgMTe4Le9NnmNv5tj6O5Nnq/m3B+rgb31aNZDeLevr+cLt6zFt6TqfObNDNRZu52/8MF0HkoNC9cil/WT4f75wrnVeug/c52pb7xKKJsgeFaU52gLFG9NH1axZUwfTwlzMuI/MFFDmeOGMwzZ5s2q5fv16mThxolbwYAHGHNJwf0ZbsW0Uaq/jwxUa035h7DL+EDHbXWbq1KnOnNNedeREGubjHjhQPTOqY6RevXry6quvOs3APN3XX3+9s41zGj9+vHafNxZojFuH2GygBEdyPadMmSJQ5DEuHlb3J554Qs8Rj3rReTNq1Cg9dh7H6NOnj/7z4ov8WSEJcQlOtUdOHnbWg62gQ5NCAiRAAiRAAiSQeQLs/s48w7BrOH36VNh5M5rR/kgMIw6TPgzGCd/6xhc6WJkpDwXPVvK27TkgE+b5z/Hq1c5TYR74lMUjzCL6cE99OlHe+3mOozAisretdON8Js73byuinKekpl0DfPjaSjfKvPT1r54Rv835nDEW+52yYXZagge+ss/xVKDKztSelLxPB0bbpebAhqC95nrgeJ+oqdH+8+OMM7l9F6a94tEeTJmGwHSQEvFFfcZrZvQ+MOePOr0YmPO28yFvNCX5yE6nus7VQ49BtSNGR9Kue+65R2AtNS7F+rpYruWYhmratGlOW4Kt2G0Ils/eF0lbx4wZI+gcQJsgpq1YQqCEw43athQjHS7RxjKLbbg9mzI4byj0XsHB7LZ5nZvZb5aoO5qC4GW4Pojibq5PsPqhqEM5N8H1cI7mPKEMP//88+I1x7d9bl7ngvHwhnn9+vWlf//+TjMQmA9WbQRlM2LzRX2Yis19D5nj2Mc25bE0++0093ph5QnS6cyzkXo6VY6lHHNn8dxu5JpmMpxpKj0rYiIJkAAJkAAJFHAChWrVqhVcW4gSIBOsBpYYSu4lgE/yymVLST3ldl5YKbTblTswlMCjJ07mykYjEjnaWrpEvGD6tM279umAYsEaC/dtnGO5hOKy5+AR2bp7v3Z7DlYmJ/fB9b9BVZxjMVmjAqVtUeeY1Q9tXrsPihUpLu9d8IGeUgzXClHOkw/vlB/VtGMzk6ZnyeVDUK7mzZtL2bJlBdHD16xZE3KO7SxpSBiVYg5pzB1do0YNQbCwjRs3Sqh3MQKzQXFEsDAotRjfjXOEUprfpFq1ajpqOxRbBJOzFeOsOlco3BiugDniEWUdkfOzgu/N7YdL3bL1VMT/GhIfmzY12pwts+X56f8K69T+3reDnKeG4xjBrA/hxpYwZbgkARIgARIgARJQRhAq3rwNSIAE8gOB9lU7yu2d7hK4mhsZv+xz+WTJR2aTy1xGAPNfZ0RgUc6PHQAZYRGqzJhB70r54hWcbEuT/5JXZr2ghmPscdKCrbx0wxDVUZn2TK3aslOe+GRisOzcRwIkQAIkQAIkEIBA+qDYABmYTAIkQAJ5gcCfW+fItV9dKaXjy0i5YuUEUydtPpAecCsvnENBaiMCvI0YMSJDpzxnzhztCp6hwgWs0MtKyS4SU0T2H9snu5WyHckMALExhaVSmZIOsbcnznbWuUICJEACJEACJBAZASrekfFibhIggVxMAGPM9x1T85erP0ruJoBI6RkVMxY7o+ULUrnlu5Zl6nQ/VvEkIHsPHXWmJMxUhSxMAiRAAiRAAgWUAF3NC+iF52mTAAmQQE4SwBjnjh07ZqgJGzZskC1btmSoLAuRAAmQAAmQAAmQQE4QoMU7J6jzmCRAAiRQwAlgjPaMGd6R+Qs4Gp4+CZAACZAACZBAPiSQcV+/fAiDp0QCJEACJEACJEACJEACJEACJEAC0SZAxTvaRFkfCZAACZAACZAACZAACZAACZAACVgEqHhbMLhKAiRAAiRAAiRAAiRAAiRAAiRAAtEmQMU72kRZHwmQAAmQAAmQAAmQAAmQAAmQAAlYBKh4WzC4SgIkQAIkQAIkQAIkQAIkQAIkQALRJkDFO9pEWR8JkAAJkAAJkAAJkAAJkAAJkAAJWASoeFswuEoCJEACJEACJEACJEACJEACJEAC0SZAxTvaRFkfCZAACZAACZAACZAACZAACZAACVgEqHhbMLhKAiRAAiRAAiRAAiRAAiRAAiRAAtEmQMU72kRZHwmQAAmQAAmQAAmQAAmQAAmQAAlYBKh4WzC4SgIkQAIkQAIkQAIkQAIkQAIkQALRJhAb7QpZX2ACifXbS9nqTSS+dKIUKlRIZ1z64xuScuKoU+iCzs0lrkisnExJla9mLXHSuzSuLTUSy+jtSfNXyr7D6WWcTAV0pWSxODl09HiWnX180Vi5a3BPdc18D7Fz3yF5d/Ifvon5aKuwOuFSxeNlv7rXTuej8yqop1I8roicUhfy2ImT+RpBRs8T79c+LRtoNp9NW5jvOeXrm4An50OgWNEict05nXTahD+Xy7rtu332c4MECgIBfCseP5miv68jOV98+mXnNxCeVxwvI7/VWd3WQLpI/SoVpG396hrrwnVbZNWW5EgQF6i8VLyz4XIXKhwj3W4aLSXKp92U9iFXTf3QR/G+pFtrRym3Fe+LuraUauVL66Irknb6KN6xMYXl1Zsu0orh/DWbZeyk2fYh9DrKPnJpP72OH97v5iz1y4MHtlqFNOU+ef8h/YLyyxQgAQoa/vBSQ9mslu7N6srgTs2lctlSElO4kKSknpJtew7I+JmLZM6qTVE9fHyRItKqTlW/Og8fO5HvFO949cK/9uyO0q5+DYECYwQdQWu375Lpy9bLlEWrTTKXuZwA7ttr+naUCqVL6ucEzT19+rTsVZ0pC9Zulh/mLpPtew/m8rMI3bxonGejahXl3LaN9cF+mr8irI+eRMUVHaUHjhzTf6Fbmj05KpVNkH8O7escbMqS1fLdH/7v/JLxcfLUlf0F7/6VW3bKmxNmOmW4EpzAlb3bS9cmtf0yHTuRIlv37JcVSTtkwrwVknrqlF+eaCREcu9B4TirSR192NXqgzg3KN7o5Lq4WyvdphHjfpFNyXujgSXiOm49/yxpWDVRl9t96Ig8879JfnVc2budtKtXQ6efTE2VB977zi9PXky478LeUq9Ked30ZZt2yGvfT8uLpxG0zbjP+rVpKFXLlZYisTE6b6rqgV67LVle/2FGwO/VXi3qq9+DRuq7u4zgG3vvoaOyYvMOeXvi7LB+G0yjhg84S5rXqqI38W36/s9zzC6fJRTXG8/tIlXVtzq+aSH4rk3atVfG/DRbNu7c45Pf3kDZy3q2lbqVygm+4Y4cP6me8V3y0dR5QZ8rHOVv6j3WXn3vJZYuoavcoQxKs1dukM9V57OXXNilhVQ/oyfYukhnZRw8v30TXaR4XFEq3l7wzqRR8Q4CJ1q7GvT8m6N0n0pNkf1bV8rJY4d1F9rJY5lXUmMKF5ayJYvp5lavkKacu9teTClRZUqk5YGy6iX4OP/3tYP0rv/+Mlcmqo/PcOWOQd2lWc3K+oV03av/C7dYhvLBK+DS7m18yuLFCIvV3Rf01C+2SQtW+uzPzMahY8d9XkLnqJexYZmZenNbWfwwjbhmoP6RcbcNP1iNq1fSf1S83XRy5zaeSfROuwXeNuVKFpe+rRpKkZiYPK9s5eR5Pn/NIPWhEyuLN2wVKA+5RaBQQ/k2Muys1jJRKYEnVAeaLUWLxKjOy7R82WnRsduQV9fRme35O6C+X8G0bb3qclHXVvLCl1NkmVLCoy259d4L9zwvV4pCifiigg7snFK60VYo3eZZwRLfEUnJ+5zTgOfXOW0ae/4uOpny4AreW+3OWCjR/C6Na8l/fpyuOoryx5sASuXN/btKj+b1/K4OFNuGqqO1tlJUvQxFQzq3kEu6t/Yph29s/J42ql5RHnj3O6XcnvDZ77XRum416da0rrPLKKxOwpmVni3qyc3ndXUn63uuTqXy8tzVA+SVb37zNCo1rVFJG9WMFy0qgdEEyv6zfx8gj388wbOjDff1o5f109909oHx7sL510wsq95dU+1dXI8SASreUQIZrJqKDdNcvE6fSpVJI4aqrPnjxRbsnLNqH14yRumG5e6bP/6SlZt3aqV/QIem2lvgGmWxXb01WdbvCNxDGEn70Ov49ewlTpGWyoro+cHl5Mh7K/ghgkcEOjAguw4clj9XJ8m8NUlSvlQJgTUQXgZmf947w4LV4j6tGjhKNz6klidtl5nLN8ieg0ekVqWy2vqFH9a8LtE8T7wvjLfMwSNZN3QlJ5jjuUWH5bjpi3Li8Pn+mL8uWaM6nVP0+xEfrk1qVNZWKyg3/xjaR4a/8YUczedDPCK5yPgtgdIN+WrW4kiKZnleeL2MVVZNI21UB0p+/N3r1KiWOUW9hOKGc8Xvfn6Q68/p7Cjd+A2ctnStwKpfGEq36mw5q2kd7f3lPlcoy0bpxrcf7s/k/Yelf/vGAiUYndb/pxTWh/77g7uozzaMFXeqzu9QAm+Um5Sl28jC9VtkshpOGqPe2f1aN5IWtdOs5XcM6iE3jPqfjycqXNLx3WaUbhhFlmzcJm3UOaDDAd91T1xxnlz36qfaem6OgeV1/To5Sjes+fjGxTc1vG7RJnQc4lv7s2kL7GJcjwIBKt5RgBiqiviENFeegzvWq6xUukPxCrZ/sPp4NDLqu2nyx8qNenPR+q3aZfaGczvr7UHKDX3Ut7+brFyGINCsZhXHa2LWig0yWrG15fe/1sr7v8yRc9s0spO5nksJDOzQTLcMHxz3v/ON7Nh30GkprLNwO66n3NNKnvn4dXbmsZVonufabbu0VSGPIQi7uee3bypfzlycbyxaYZ94NmT83+8LfIYawOPg39cN0h20GIoAC9Knv8/PhpbkjUMYxQZD0yLxrMuOs+vcqLaP4n1OPv3N637GEotrEKs8n6Ck9VTKWn5QvPHM9VSu4hB0iD3ywQ+ybe8B5/bB9wzi85xSiqZbhljfmLD44vcSMnP5ehl756XalbtWxXJSLqG47sh2lzfbGLIHt2/EYwpmqIGnqFGct+zeL//+YoqpQl+LV2+6ULmBpw0VgwHEtAeZ4H1pyv6kPJo+mDJXl8V3cVnVQQClHZ1GPZvXl18WrXLqhTcAOr8gGEb40H+/d95fGJ896uaL9L5+6t6n4q1RRPU/Kt5RxZlWWcnEmlKlaXpPV0yROL0jrmQ5gdu5LetmjJPUlNAuK3aZaK6jZ6x+1Qq6SozRNtKpUU01Zjut3Sbtl4WrZY8aAwXBi21wp7SPe2yb8edFYmNl2JlxW0iHYAzptKXr0jbU//goQe8h5Ncla7XCh5dAw6oVlaX1kPy1cbvAVdw9Ng7HbHFmrAzGsBilW1ek/puyeLVc3beDHsfToUFN/UNi3Kbs9s5YtkG7xHdVPZ7o3YRbDsa8fTljsXN+ps6MLtETObBjU118yYbtemyQV10VlDW5d8u0H4jZ6mVpu7ghP9o9UFnyjWBsbla4ejeqnjbGDcf51mMsKNLxgv5ejQkOJnBvalOvmtSrXEG1PUZ7HeCHfL4aTxxK8OPUTd0HdSuXl+rKjRMfBPghmrxwlRqPtcunOMb0ovcZP2qwNrkFLmGVyiToH1v3fYK8uObwkID8ru7NZDWuqYnypkAveAPVG45656rxWD+rY7t/nPWPlvpAaaxczuooV7XjJ1NljWoffsxDuUzC1axTw5r6uPhv9dZdPj+kzo5MrlQqU1LXsGHHbh+l267WzdTeB2t4N8WihlqWVx8YuBYbd+6VVcqTZLri5WaC84Kr4kEV5BBBB3Hvw5VtyuI1mgs+XnFtYUGYrJ5tdO54Cd4NPZrX1dcAdcLzYo065kRVxiuAYmbPE736Vcv5D73B+8ftlo32mvM0bTdjBmtUKOv33lu8YZv2xjF57SXelxgT10C9e8snlFDj+PbpMcFe95tdLiPreG7RTrxL+rdrEvIZdh8D93hXNT4YY0HxIblZt3WnTFXvW//P1nRG+KaFR1I1NYQFz2Pz2pX1s4JxkuPVu9b9frePG+l9YJfFO72eeocYmaE+mLM7jgGGJ42ZMEseuLiPbkbdM+NoTZvwDmlRu6rA6gj35jIl4mWfsjrB62KJum/sj2tTJlr3HuqD1S4rf/9Mm72WeHfjnodAWTC/0V55s+v3D8fGu6a0+gbCbwN+g/BNAGW0qVKMIAgW1bBa+u+kTjzzH3679DeM2g8PsZhChfUzjXcs7j/EgHDLUBW3B9bX3coLKdBvOp7XksWK6nfRN7P/cleR4W3cf43U0DHIcvU84nnDOGEzFlnvCPAfhpx1a6Z+J6skqrYflsXK6PGLehd0Vvcy+OEeXrppu2fpzHwfeFYYIBHfTLh2kHdUzCNb6TZF3L9hSMe1hws6BL9j9nOItuP9ZwSdvkbRNWlmiXcmxohDXlNGjEcvO8fs8lsirxEo926Bpxq8lSDwVrPbdHbrhjodlupPfpun1/EfLNbmvsU2vrdtxbu9+gYxv134NrfvT9OZjXLgAS/TrBgqg/oLqlDxzoIrX6FuW6nX7VK/muMSyvmlb144WY7u3+mXN7sSoHzYD6g5rhnPa7axXKOUBKN4Q0m/sEtLe7dex8vOnY4xNLbiXVEpBSYPeg7x8WsE46vg7nReu8byyIc/+nxs44fB9O4tDzBmbrX6ocOLAu3Ax/CGMwEp7PYWVZ0DUATMiwfHrq3a0aNZPXlUHTOU8mTaGmyJj/bBnVrodmCMz11jvvLMPky59Ziex3kqMJ5byqhxRUPPauUko8Mh0I+0kykDK6WLF3NK4QM7WCAPJ6O1UlR92GN8PT56bcH1xQ8QFG+MUYLi5SUYb4whAubH0uSBVRYuU+hUsd3/BnVspu9bRP30UrwxfhCdGgi456V4J5ZOcO5BuJHdN6SXEzAEx4ZihJ5o9BrbPb5Q5h++5GzdA23aiCU+yBBYBHmDfSCBj3090bts/5DadWZ0HZ8b5jkJFM8hWN0IuGOP/TN5cS3g2o0Pxic/mei8C7Af52WeaZMfS3zE9FLj1/A+MYIOC4yPg5eKLa3rVJN7hvT0eS5xHfChjkCKI5X14S/lRmcks+eJei7r0cbnupu656ohFjs8gs61VMqS13li/J87vUyJ4p6KNwJlXmw90zimVsTVhyvex0+r4E5QAqIl+BCuoALnQNkaot7ZCKjnpTB7HQ/3Kq63LXhX4p2GZxBtNb8JJo/NCB0x6Ay1Bdcf77x7x37jGV040vvArhvr6BC277f9SunJbsUb7UBnnBG8N2wZc8eljqu1SUeMDfwW4x7AEJ9Xvvndp3PC5mrKYBnJvYf8sJ69fOMQn+cs2r9/OE4gQVA6CBTub/5IH8LllT+7fv/MsfE+7qCUErib/+fHGdKxYS39mwTFZLuymHop3vjtuv5MxHhTD5b4lkHwPbxjnv/iFz/lBe9T83uJ30V03Npix7IJ1FFp549kHZ0+5rd29oqNUkopavi+QkcH2hWoU9ZuE46Hc8Q59FDv+MplSinFNFYr3W7FO7PfB5GcG/J2Udwh6DD2Umb1To//wMXI/HXp32OIo3Tn4B5ml17ivL0Ub/wu3XthL50H33T4Jg0m6HgxUqFUWoe52cbSxB/A+p4D6XnRJtOBhY4F+9vq9oHdnOuLcni32NKhQQ1n07638DsEK7oteAaoeNtEMr9OxTvzDP1q2L91lexYOctJr9iws/4QTjl+RHZv8B1jF25wNfRoGfHqqTP7oEyWVr3nbkFPpJfAynr4TJCIEioSoVHC8aGCaIq22B8vh1WP/tzVm5zdsESjNxDt/FN9NNiySVnKAolRumEFQf0YP40PRHwcPH75ufKPd791iqIn2UggxRBKMxRvSPlSxR3F25TD0lg6MQ58p+oUQNuhmMMlB8rfU59OtLNnaB3WHPBBLzDOBS8+RLq1BS9o7IfAwpqTkWZNBwXaMlQFBEJ0fLQpXPmXCv5hXu4IlrNA/WidUh9W+HECW1zn4QO6ebr/4wMeirIR/OjDuopeW3hj4H7AX1YJOj/w8Yp7F73c+48clYrqQxlWDFhtjSBS58jrBjvj/XC/LlM9+xiriCjwuH8wJgpK0wwV/T2nBG8KdNCgtxptg9VkwrzlYTfHjL2Ei96Gnbu11wEKQ5nBDzPu5xeuHyzXqyCK6W+l9OphYV2vLO3GcoBy+CiAtdw8m+j4shVvKBXGOoia8D7YtHOfivBaSlth8F57aFhf3YFllNLMnieOgzHd5j6HcoRzCyaI7G+/9xANFp0c4L10U3qnAOpYpMbqueXvSgk970zkdCge+NDfq7yI4EKIj1gcH1HGb1Njgg3b+9RHHNwawxXclz+qmSts+Uy5QiN6M+6J3irKLzqyQgkUCqN049lYpFwu8Ww3VeOX8bzgg/Cpq/rL7f8ZH7AqKN04T3SY4CMY7wE8J/hgROeqO9J6Ru6DgAfP4R0maB2agXO3BYoIBGMrNybvke17DuprAz547+F98qCylv/r85+dYpm990xF4f7+oR145iKRWco6F8wrCpZkvEMgUDTxjslNAk8XKN7wmPuPzNDRsNG+mSs2SHHL2mm3uXh8mhUUzwh+w7eqzl48JzXV84zvKby7YPG8/51vfb4BXlYd0a/fMlRfb0SzhjHBBPpChzXG2kLQsfXGD9PtQ2Z6HcG8jMCzC8F3r+jVTieho9RL8e6ouNjxdeDRgw4J3LPouAkmkX4fZPbeM4YE/A5VVO+pc1VwPLQTHQPoQFmg3rvfKg8C8441bTeKLLYRO8jIVX3a6+cT77JT6tsO1zTQMC10rKIe5H0rjFki5qzaqGYe6aB/R+A19uHUP7VHJo6Nb452qt0Q1IfvKiP2b4L97YiOarxHIbg++P6C4N2P3ymI/T2F31oj6HSH2OXKJqQbZbBP3eYBxNphrQbIXKCTqXhnweXfm7RM8Gek3z8+l5iiypVsy0pZ8MVzJtlzeb0KnlBI/TvteiXA+hurerggweb2g/vtf4YP86zbKxGujfiD4KMP40kgGHcVbOwVHuCXv/5N58V/CPAACyE+MOx0J0OQlTE/zXKsllB0nlYfczgP/EAbly8Uh8urES+3U+yz0716D015/OjhBweCnsPRt1ykFS1YY6BqReO98bWah90o1rDCuKfqaad6HfECh2Bu9pwUuDP9vU8H/VGMj+o3hl+srd5/KgUcnIJ5AcB6ZZRu9HQjurNxI0Wv+jNXnS/4kACLr5Xrsl0XXNwuOROhHsrZiHE/+/WuQgEwLsVZwQjnC4X7qf8pK67V+wzLm/0c3qjiB0BpgGC8pq004McNzw4sBtf366yt7HYPdFa0O1idv/21RivcyIOPBgz/wMfGgrVbtDUtWKAnXO9f1DsBlgL3cwBrFSz76GSDq6pXB8PDajwdhgg8eHFfZxq+Jz75SX+UwmqA+wBWFSN43jDlCgQfr09+Okm5daZ/9EBxf+zyc/SHCTpv7I6xzJwnjvfFjPSOULjtIeBMMMHHmP1B9u5dl+uPuTVqappQ7z14YJgYCfiw+ef73ztKP455hep8Gqg6odDhM1C9L8z9BRdH3FfhSkXlzeFWvOFxhOcbnSoYXxtK8cY1gaUOgmvyfx+lR8bFO/ox1SkK6x8+4OAu7eVVgrJ4BtB5amIM4GNxtBo/iM6Kvi0bOueIvJm5D1A+NwnOxcybjXa5LYDgj2fHtooj3/+3dzZgu01lHn9UNIVRSiEcp0jpmEwfEiXK6KiEvq5yVFcXdelD6ai5jEyiFErN1JArTCGKGKpDjvI1UxQqV5OjLxl05KCkE8fXYdZvv+9/v/e7z97Ps5+Pdz/veZ7/fV3vu/ezP9be+7fXXmvd97rXvTjvmDSzCG7lvHcUENVp/eQ90o5Sp/7DEE893I38efmKtor3O1JZhJCnoidRN9eYyWN5T7RhUNBoz2AQQwh2JXff4vVvXnZ3NusJxs2igYU0NI0rU6fFuDMYKD951sWto9/5uqx38l+Tcn5Q8owjqNbHklcV3wjK1idTechykPL8VLchGDGpC/gjn8noc8rFP1nlcgsmFXPe3ZHJ00XlIHXB5/ffMyu3VjkpbeilfdBv3pNLOMb/Y9PME2pncX/U1RiFmWbs4yni9z33Tg0DoLNGQhmN8C1qnP/paQz1HqlsRrHWNXQ8S8p4FG/k7OT9xpCTeO1sR+Ef16dtiPGFNP/zQ2/NOowYroAxFiGvHJ+ML1Kc2ca1JHgWIbRlCcKGYNi+J3WeKKo77WG1vdZLdQzCu1TewiAsY+Gnzvp+PsNRVNI557Cvl+si37jiZ9kQIo558OHZZVDjnmaTTLQiZ9Mdjfm9YAGmECxagvnwVEAOtggeLnB6m6KrML35zFkowcVUEq2Ry1OBViZqpLCvWGDoeMYoSulmG0riJWFu6tizrnN6WVLIqXeOximNqigEO0Io/NoZOeI5M7WO62/RFRxlmR4vphj7ygfeklcoxXtQbzWNjmPPvTTjqWMo1E+95Fr9zCq7/Eda2SvNCSmXN+ZgL3NpYmzSmalQnymB/+Fnfm+a0s21iC6qXlmsxbxDhN4AKUXZhvSPSlp5iEZbdHXVMU0uz7z8p1lkf12TCp1xtii4BIhBcaJBUSY0IBmXWFbOnPOj6/JTMFKVCUo3Ej1dbko9QXEbwz0kjB+WVZ7gX1Hp5hgs8kpzq6Tsxe+on+fU9Zta8p1oCMBnknFKPe26/reSEUCNoF222VKbs155FIK6f1VKsIwMsFZezi9SWKGnTp4P16QYDbFHhTIaN1xJjEGhbVpe/PNf5Uo32zBsKS29cx3bTz5QGsNa4vlAjyDfGMMIjk+GS/UCUr7IuK37Y7rOotLNPr45xsVL4lh1bet3Wbf+o9e2bp7Tce2GzdColxcMXnFSbPp9nkGfr3gkH07Dj/he+U7LxgjrujwzEaGLSjf74aLnnFvSK0xMF/ICgiJFcNgPJsUJBRihx1RGq2zDAP5R7lOfIXi2SYiGjWD4i0od2zZKU9DKG4hnktLNPjqC2hlRemkf9JP38CZRm0IeBxjWGQJGva02Is9zwO4TBl+eA2FomUTvjWFoCHUQHhH33T/Ra4wRPtZFHIOLOXkGT5bvXn09m2oJhlGm/aKsQCg7pHRTJ2DM1owbSjC2h3WveBjxbjF4EiBXCjnnxI6rdSfzlzoHKIuZzxuh/qeM0L0Uy+kqXYT7lI6ieixL0P9WITDV+llllzesjgRwMzx58VWr3DrzFWps1So7h7ghFvy6DdzIMTygwMgCxz71NrKOJbNMomtw2X62UXEUBfcjCb0yUpi1rdclwWP23eWFWY8VAS2k8BN8DSUCuSH1olFglckd6X0uPPn8VMBPFPEPzKAlkQbHB048N+sdfUka16PKn/tinQYl2w89bVGuILBPwxiwtr4/9UhOq4ym/Wjlgfw4DyFfIhTyi7qoqLKTBvQPF9po9S5LVo1o9q2frN2MZ88fbXJFlRnHoJTG8chsQwgs9tMwXUusGCeOGMx/Kr7Dz7goUwTwtsCIIqFhwP0dkwwqcWYA7deSMX/P3ezp2dg9hq/kzzt5AG5wRYkVrvI071Zf6/0PTeTz2AsQe7+fl3r5COiWX2tyRa653DvPoqERg3jO4jPM1O85T3tynvTeyeCUPyNbJ3/QqHlsKvfUyGVXVHL5XUciUx1P3sNVlHKV3qsqBZ3j5Q7M+uUpQF5RUAZQSGikx3stHoeHRVHuTL1s3B/BF6PEe+42H8R0Pp88sdZNnjQSAkDNtGg2jbLrnHbptVlDtriPV47XE/kZjx56+RD1RrGOR9CgpW79R2/dUanna1CyYOeJhj3pnXl5PUNqk/WfnhPlCgOKlNO6Y4RRVl+U3idDVlhXW0TeKo9P312ZcD3i2uAirIBcHMcwwB8u+f0qpxyYpqjqxrBL6XtgGg6iMjheAxd6CV5vPDdCLylGUImUQH7HeD3aj/dG2TzU7O+lfdBP3otGXa6Pgevw5LGj58fA/x+TLv4wx6ggw8qaKbq7hA4ZhsMwpIY6THNar3x0Kk4NwfFU58FM7YR/73JGneLYeYwD1HUYPzEiMMTttGSguSh5okqK7WEMKgq2RsR2OlOkWHNOrHNpqyEatqox4SjwGLMn9qUe9FRI4YFhGSyB8pJgsNdwag0S+Gsan1rWa/jgypUN3kX9Sy27Z3npwfc+8EDWQKRhJ4lBfNQbo31axspt+YopFyLtZ6lxVHFbdN+PhW88ppd1emsX7DzR0/Xa1MMtxZsCkoIVYaxRlVBZYExpSih4cTPjTw0JAinh8o9QAb9px21zCzeNbj0HFQG9Pu2EYDlRZFhZkQwtqsDi/ibWb01jiTuJDAQch2t6p+esUkboFVEl3+mag9hP4BT+qGiJ2k6wHxpXNAZ5b+9L434ZZxx7axg28JE37DLN6FV2L6q84z7Gv0nkbhZtZA+mCPBIakvkEht1Vb3o+cFpheCMUry1vZfn1LlNLddfZ8o1sFP+obHF3yC/CRpZ30m9qbia820zDvAPfyrP+xuGSO9VPW6UFZTPa7dRDomhURSVtSo3tH8Q+YC0aLSqV0tpN7nEePLXVPfQs396UrrLjLi8//fM3yFX7qrubyYavU3Wf3ouDHcK2IgHS1We0vFaNl3/cV16c2X45/fiDsPAKEsX7rVzNnUTx1eJFPGy/V84//LW8e99U+5lglHr+EU/LDs0jR1/clYHle6ssVFlD2VL9C4iJgUKJt8ldURUvDWUjOTLvmkUPNJTT7Nuo9/2gdLpZonSHoXx8eQjCYFvz09tLjpEkK2SEVp18l/uvU+HZR5hMhYx04vy7BPXmjCQ8bwqnzHS7Dc5TIn6NHLNE6xYwYiisfP0lDMsS98oyjSxjmjvEh/kVylvqu4jNoiE70s983RcyYs0dgbEYXSUj6SJQZs4PAxrQTBa6pn0Lpenct4yWAJWvAfL06l1SaDoUq/TV66cKCplLWb7n0JEx1ig6ByWcTs9K2USrYBl+we5DYUGd2UKN8ZE0kuIJZL5EREaoe3c8wZ5L92mRYORHnv+qKzp5UWY/kyuZTGQH8HjrvnNrW0vo8pLBylgjXpCtb3JZZXxJ96DgrWwjUiluGK1k7Le7nbHz/Q+rPfcE39f/cHVrc++6/WZAosVHLdjRdTleztiwfxpDcAltyxL3969rYcfmVCaFb170m5UeeupDbeKyMIed8Rvtl1EeJ1DlO4qqfucVefP5Hb18DJOj97ndkIvlbx66EFbq9A73O7cqjKVcxZdc32Kvr5N1vvB2P/PpJgKZRLfyX0Plk93KQVaDbSydFBC60q8Zr/5oO41B3XcAcd/K3cp7pQmvWIfSrEOZHjA3ZggUDS6H0m9aSgrGDuRTt9Yp2uV7a9b/2Eb22RyjGlZOmXb8ByS22vc/7adXpD/xBgx24UhEvQMEyhNSlDVPTOGG+8ghPxOfY5yqu9jtxTYCyWnneJNUYnSK5koJ6d+aztLhi3EKajivrJ10lJKuA1jdEP4bhXTR+cpT+LxgmeMyhLWJQ+mNk1d6bV90G/eI4/TEYASWdZxEYd5YMiQxDYm3nsw4rtkvLZELB4K3od7bDcv71GmHRTjASg2E+fTu84+2oW0qxDNac/60ef8YFp+o53x+WSUYfw/wrEM50NiNHTi4FB3k4eOO+/ybD//YgdVNAAy0wM9+bzvDyYPCgTjtQwGeka2/yWMgee3pX8CU19T/2k5BRPomgC9h2WiDz9aL6PLYHF6FqWxQZiOIR6v/cNYMv4LxRvBdYnIr6r8LiuZg3oY99jpmowvoiHBWOHYQF5618R4Xs7/Q1qXQt4pPe3HiwFrenQN1b52yzIFLh4v1+S4rWodZa2TLA0R6YlqLUW103mzcT+NwwuvXZJF8Of+YsODecxVWROg6+spwmoUuErxjtv7WadhpHuoGivZS/rtnrOX9Po9h2EFNHwfTt5H3XwnxFiIBshO98H4yKPT9EVlQoOUeBIEcaNxzZz1ZXJHciWXMJawbCjG309OQRi9JXROL8uZyge93MtMnkOgQyk4TDOlOBK6Jr2NUry1bRhLZnY4JgWm6kYwSh533mXTTqHO2HHSkDBhZKg2nE07cYg/vplmAeCvk2AkkdLNs/3LqYty912du3OK1zDl66Kt05cHJUNMHNpFfJoDkjdSWa93P/FgdkqBUKNUeWZxzPZbbZ73nEbllaFWZcbPMgNcr+2DfvMebRV4Vhn+6PyQqL7jd/SqVJlLfpbhAoOAPHziMLFoGFXsHqUfl7R36d1GQZbivfGkdxFlM3moKES7lydCHAIUFWndK3E84nZ5FJImgdYkMb4I3ydlOEGOJZs85UlaTYaHqZ71fKNX+iJgxbsvfKN1crS4lrmRtntanasGRbtj4z41uOM2CnAVbtE95v9CT9e8zSdcY+J5rGs6NNZjoc/vQYlcaHEvwordSQn8zdI7s14AGt1YJqV0cz/FIF1l98j4QSmSFM6xgCw7fqa2/SEFF1EjQ9dgHK+sy6pAtK/OkoAlKN70vNII6NS7oDTV2F8zBOnSPpbKP3FbP+sx7zFNTK/Cu48W7ltSRTuMse03hClENJaRZ1IUX9Y11ot1SRyHq239Lm9NQQjl/sh4V1nd+02X86uecxBpxzRir0bcHtfJ25QB5E3KOLn0xWOaWP+vq37R2j0Ne+EeiKReJn9M01tJGGahgGjaxlJG07Ieznhc3fVB5QNmI9hh683zy2LoJKL/bJHNJsf6E/CpqHRzj0yh2I3UyXvdpDfoY98QAmieMTl+tJtrzJb6r+yet04xMCTMdFFsC9Dr+qSS6V11DkuGnTHGG2H+dhRB3I93TEEnr0sxEgh0OShhJgpJ2RSTtPsUwXunec/MFW96/iU8M/cZRUPR4jbW+20fFNOr+xuPAxRvOnDK2mhxlpQ4zetvU1stCgb2WPY9Jw3XkoGBultydwoaGSOOazvLVMxmHRas005mWJ3aL2xTW7td21n74tATjAukI6Ubhfu8NJOOhOdW+xpjrIwH7KfHX3Uuv09IwTLjPWkedPbRfrUMloAV78HyXK1Ti5atTZ46Mddm3QeSgkwhgBJVZWkspse0FhQ8sdeR6LYq3KJLEFY6FDWsfliEUdhioUnhL+slhYWCOxWv2e/vP6ZKiPGRFIZbJvfxGOGzKm0CqBCcjMaqgpswFidaHqvOZdqLKDOheMOU8URVAZcIBjdn0iUrWnq5L8YcoZBzPopZ2RygHFd8z2wj+BJzpiL77faSbCqy7EfhH5VoHLepYQTkk6LCjuu08k8hmZ5/Lk1jYcnT5O1/2nar1GN5XWUeL3tOXXjD5GoWe7NofM+E4k1jDi+FKqWIRp0kNixiwBbep6Yf0bEaF6ffg1gS1O+N6dtASP/jKRBOlRTZ9vqcVel3u12xKNr1HClNlD++D/LmnttvM20MpY7RMj4n03EVAwbpuLIlwzZidN7iMbiPXpE8bV75/C0rA6P9Nk2PJmEe+EvDrA9sZ55pNfg05lDH97rsJx/Ea+JdFL8x4grMJsWbd4tQFxSVAsqXXZNxto50k/fqpFc8Bq+Hg0/+dt47X9xf9rtY3vCsr56ctx4PtF6GVTVR/5U9S51tilnBsUSgZ3xvFKaWktIUt2udMvZdu26X/aR+I9glzE5I471RGun1/s1td9Y2SCvdsiV5S3U4SlqVyz91A+2oLTd+Wp4/GQohAzszLjB1FL8lDF+pkl7aB/3mPbwC3pvYIeS/opEh5qmb77g7v3XGesNGnSPFyOR4LEoYtiNh7vqq+evhfuqH98kOJZDup9JUbFEI7Kt6gTgs9HBH+cdJb0m2FTuTcA9Xe/KyNEVhlJcnw4nyHtNuRmG4wtvSdJHsp13zs2BIoX5S+wDjcFmAv5iW17sn4HB13TMb2TP4yGT1evnzntV6cRrXixtKHYljXg/ee+esQYdbTifhI2dMqXp06fHaf7fts9OwDp535ZQFj40XpAJOcuS+u2dBv7gO46c1Dob9sVDU8YNaxki9H07jnolmSUHNnxqjxWtdlKZokFeA9l1wzQ1aHfoSowXjDpm/u9ggx/rO3LJUIIimHdFNE7xEclga71acqojGxftf97LW11LlU+wxJQiIerkxZhy89y7T8hxjoj7zztdmQcB0DZY33nZX/nPhXq/IuZMPDth9h3zfoFb4Nk6fdLuGw3H77Zlbk7kGDWjun2m6mIdz2IKR58vpXRIBlyl89H3xPdPLGafpI3qu5HeBKz1NUihRyBnj3+28vkq33RK3RTVYMeAw/3eM5sw3RePi3969d+vIfedPS6rX55yWSB8/liXDCQKnvZIyTY92lXw7DTmh5wFhmj5cDqOBiHPZdvIH35oZ6ZQODUEMjHX/ZATV+WVL3GiL5VE8blly/1dPB0Y5ymTyOEJZoXGB/K4boZpj20k/+aBdurNtn+pKypEFydCEURPBmEzsBZWzne67m7zXKa2y/fSQoYjUzXccF4eGkeZrXvTc/HnO+u/ryi6zWm+LHQPzk4EqeivgckyZUCW854+nsbsoP3yLR539g0wJoifzmHMnhopQPhy+z6unlRNV6XXavl0ycEsRU3lbdo7qd65NnYagnNF5gGAQODblU56VGWAI+oUhrkp6aR/0m/eIRC/DwD5pBocXTHoUcI8oz/IwoJf6f9OY/Ch6TrYd8uZXZVHqYcH7VCcB5XidDpeYbtU6U+tJPpqCmtKGkaCIa15uthWnFIsek2/Y4fmtrdPxCOftv9tLs3X+Lbp6qt3Mb/LYr5fewWr2fR60585ZoEe83wgUqHqMfCKO2cH+NxAC7vEeCMbRSQTFFistBQ1KZZRjz7k0m9s4btM6hdWbX7Zt9hFTWMegHfTqHXTSeTp0lSUNOZQy9SjqgO+l4BPFivx/rr8xa4RPBCpbs/Wpt79Gh+dLCotrw5RN+Y4BrWC1ZywOUXgpoKKih2W1zJJMAY8lU67wFGZX/eqmjnekxm7HAwd0AFGKo+FDFbWSp8I5KYwFYjvjv85NY4votURJQoGnISE3qGIaSktL5g//xD7zs7xD5FsUV859XJrag3yI3P236T0JVKz7JWWARgDGmq8e9LbMdZfjuTaKss7VdfpdYiXGG4PI2xhZGHvLdci33IeEbVWyZlJgo7RTfuJxvazDnfGi/CFlTHCPjJ4EROFnDCoKOkow3zE9pHo+Kuy6xrjsojX/nZjmq/1cmjIFzwamePnKgW/JuHJ6VERuvmNCcY3J9vKcnE8jRw2wmB7rX9h/r2mbmEe+zDOBnp9PJgMgwhCCOIyAXuKTL/5xng78yeuHvHnXLG8SZIc/+PKMg86v+YVLVihXMbgob5Qc0jrl+z9uffodr8vuC2McQRUpt+L7YGqhYsDEsrTqbusnH+ga8f7YNhVaSkcMd0meOeodr81uAm8C/uI3Rhkrz612d9pN3muXzkzto+TGswPhmXrpOWu6/stutot/GI2J0o5xmnd25ILds3ILQyXlEuV78ZtwkilMAAAP6UlEQVRR8ig4lHfIN1PwLjzgJCh1KFV7pKkgMci8LwX6Yl7mfuRlYXw3U4dVCXXr9slrDNlpm2flbb5zfnRdUjw3zYyMjB3mWSXF+lrbWfbbPohp1V2nrGVKrffMf2lWfjFLB9toTsT2yFcuujLbHtOlk2TH526etSuIb/GFd0+vC3inlOODEgJJvmLeFtksItSttIWk7EYPNDzTqJ+jYBijzUkZQv1x2GQQtngM477LPCu/fOGV2ZSiXJN2FwbfKHyzp4T6K+7zen8EprcC+0vLZ3cg8GiY/6/DoV3tjo334hgjJZTKilzi8fnGyRUUqK9f9tPsQ6WgqitM0XDwKd/O5nhEEakrjCOVe1psMJ2dXHmLgZ1Ik3s6Ik23QKOx+Bz8vizNOauoj/Ee4rFljBRBmHPisTGNuP6x0y/IGhIoIlHanXtJcNfEylmHL1NdRMHlayYEowBMaQBKYgXFNtyaeMe866Kcm+b8/MSZi/N3ybkU6EqDipmp1Moa6fR0vT/NM7okzK+OAi9FhPxxRRprFYWcedTZ3889NNjH8eQ9ooD+eXLu3qpGN9GDJfHb0Laq5ZHfWJxFBVce55pSSjmHe20X/KYYm+DKGsaXqntpt53KlmEZUcSTbdwnc41Giznbebe8R3pZJXo+orv+81e/mzcKIjd9P/Hb0regJelVvQ/u570nnJMFrdPxlAexTGCIB8a4KL0+J2nEtGOaZetV42gZVgEvGt91vmfmUD7wxHOzKNa6Dnz1bnh2xrjHXhAd181SDCfOKS/Hz0jlfJT4TbAd4+LCk8/P8wLfspiRPmV32Rzj8dpl71v5Jh6n++g1H+h8lrHHiN/UCTMh8f6V/+tch/IOJYoyUaJvjHz06VSuScRKv+Oym7w37V5LEo33H4+N1+t2HaVN8SPOS3EFepEm6j99HZ2eO5Zt8VmY3znOYsE3wrfC+/1s2ndzimGBxPMZCoGBEaHXvFgOsx2jqMpwDGSajo19vYimaqSc+nWI8VFMi44LsdhmcpopjqFtsDANPZgItDqRdzmOe6Re1FSSxTYR5/bTPuD8XgRvus+mCOD6zihj1R7hHpmjvtiDzHVQeg87/cJW2Xz3nHfENy4u3Vd1j2LJ/rgejz/0tEWtS5OruPajcEvpZhvK9RGJcZnQ0UNQ0mL9w2/K6DgtXDwfo9FH0jCmsiDEeDzR1itT2GMaXu+NwBpz5sxRudNbCjXPmjt3bnbkTTfdVPMMHzaqBOjhVk/1CRf8KFNg6UFkLkEseL9LY5qKhUgZCyzqc1NaTM9yY7IGRotx2fHD3saYo5dPWp0P+dqiVcbPlt0fblzzJ8fIsf/QUy/I53EsO34Q23CbxcX7qeut3VqReuoJrIIboZTNTtfAdZJ3vFGK1onbK+fGqKjtzqdy3PSpT24R0Ikx+rek8VfkiSphPNzcDddvbZbOwXVKDZWq4we5He8AXOeZMgWvDlxIO1VUn9vv9VlsAu6DBsG7v3RWrsgO8t6UFg16YiEwCwBT2WH4uC01lGL0Vh1bXDJEgGlreA/X33z7jMVMKF6X75qx8LB9TMoPjIFDCWwXs6Gf5yxev6nf5N05KdAW5de9KcoujZ1bUx6K8S6aupdO18H1f8vkWrpeyvMoCkvTfc50w6GXfED5cdrCBXkDm3ttFzOg03PP5H4a1pRzlF3k8V+nuCSz8d33yoB5qRnHTjm3/xe/WatOL15rGPVf8R7q/sbtmjKL+g9FvM6Qj7ppz8bjKBPuTZ4zlAN8q2d89O3ZbX7nJ79sGxG+n/ZBrxyoo7fedMPsdMoEDW/rlB5lNAaLp6T26S/StLCd6vdO6XXaj9FmkzS0Z9MUTwdjGPUB8WXUA97pfLz/iDVAXAANael0Dvt5J/+QDEGUP+Td2AFT53wf0x2BKf/I7s7z0SYwUAL0sGGh7EYo8HG/icGhujm/yWOx/OOmjGBhLAatqroXIvRK6AkbVCAjpVm2pFKqWzGVnZ8paqlnr8xiXHZ83IbBhWes+5xUFIxLjmOTY3ozuU4lXIzu2u56VOIYNCRYqetWqDqn2yUVaK/fCBV3N5V3t/dWdTzfNcaWdgaX4rn9PGcxraZ+k3d7fTdN3aOug2t60wHKeskHz9tso1zp5t5PWjw1RY6eZbYs+faHVXbNNAMCQinqPdMm1TGkl93TMOq/svuosw1F+8/Lb6lz6EgcE4cBRjf2GKys7EH7aR+UpVdnG9Mh4rHXrVBG99KO6fY6Op7ODTxi+OtF6HzqpQOKd1IVWLeX+/A57QlY8W7Px3tNoGcC9L4QXRgr+FtDIKXzr/plrTTpEYnTXpy0eGq8aK0EfNCsIjBvzoa5UoCiWDZmeFbdsG/GBFYzAi9+9qb5HS9Jw2fK5sXND/DKjBFAcSAmDLLk1tt7uo7rv56wzehJBF9lfDjDqWScxziiuDDEsrECN6OvwImPAAEr3iPwEv0Is5MAQeY++sZXTrs5rJHFaR+mHVD4oXlPGV/bpBt14Tb8cwAEbk9u3opbgLtbr71AA7gVJ2ECI0mAObuJBYCUjd8cyYeehQ+FN9B1N00PiNnLbbr+64XazJ3D8Coi1fOn8cgaN81VCVYWx7LP3J04ZRNYfQlY8V59391qe+cxkAuuPKMqsQLCEkw09OMX/bB2xYQr4oXXzp4px0b1PTX1XIzh9ftsiravM44E6OXmz7L6E3D9N/veIcPdmFJSAeS4QxRwYrgQrLPuELrZ92S+IxNojoCDqzXH2lcyARMwARMwARMwARMwgdWWADOWPCUFkyNwXpwBY7V9IN+4CTRIwD3eDcL2pUzABEzABEzABEzABExgdSXAtFoe+ra6vj3f97AJeB7vYb8BX98ETMAETMAETMAETMAETMAETGCkCVjxHunX64czARMwARMwARMwARMwARMwARMYNgEr3sN+A76+CZiACZiACZiACZiACZiACZjASBNoLLjaSFP0w5mACZiACZiACZiACZiACZiACZhABQH3eFeA8WYTMAETMAETMAETMAETMAETMAETGAQBK96DoOg0TMAETMAETMAETMAETMAETMAETKCCgBXvCjDebAImYAImYAImYAImYAImYAImYAKDIGDFexAUnYYJmIAJmIAJmIAJmIAJmIAJmIAJVBCw4l0BxptNwARMwARMwARMwARMwARMwARMYBAEhqJ4v3DeE1uXfG2L1uJTtmitt85jB/EcTsMETMAETMAETMAETMAETMAETMAEZiWBoSjeS357f+sZG67VmrvJWq3jDnnGrATjmzIBEzABEzABEzABEzABEzABEzCBQRAYiuK94oFHWldcvTy7/51evE5ri80eP4hncRomYAImYAImYAImYAImYAImYAImMOsIDEXxhsKnT1yWwzhq4cb5uldMwARMwARMwARMwARMwARMwARMYJQIDE3xvvm2B1u/u+WBjOW2z3lCa921h3Yro/Q+/SwmYAImYAImYAImYAImYAImYAKzjMBQtd1jT5ro9V5jjVbrA/tuMMvQ+HZMwARMwARMwARMwARMwARMwARMoH8CQ1W8L7/6b61HHp14iF1fum7/T+MUTMAETMAETMAETMAETMAETMAETGCWERiq4g2L5feuzJAQ5dxiAiZgAiZgAiZgAiZgAiZgAiZgAqNGYOiK97K7Hs6YPia5m8979hNGja+fxwRMwARMwARMwARMwARMwARMYMwJDF3xviUFWZNs/gz3eouFlyZgAiZgAiZgAiZgAiZgAiZgAqNBYOiK9w2/vz8nufEGa+brXjEBEzABEzABEzABEzABEzABEzCBUSAwdMX7vhWP5Bwfv1byN7eYgAmYgAmYgAmYgAmYgAmYgAmYwAgRGLrivdUz/y7HeftdD+XrXjEBEzABEzABEzABEzABEzABEzCBUSAwdMX7mZtMjeteusyK9yhkKj+DCZiACZiACZiACZiACZiACZjAFIGhK94bPW1qXPfPl6yYujOvmYAJmIAJmIAJmIAJmIAJmIAJmMAIEBi64v2kdR+bYbz7npWtFQ9MjfceAbZ+BBMwARMwARMwARMwARMwARMwARNoDVXxnrPxWq01HzcRUO1nS+7z6zABEzABEzABEzABEzABEzABEzCBkSMwVMX70AOengP94ul35uteMQETMAETMAETMAETMAETMAETMIFRITA0xZupw16x3boZxz/e+VDrhhun5vMeFbh+DhMwARMwARMwARMwARMwARMwARMYmuJ94Ns3aD1mctruL7m32znRBEzABEzABEzABEzABEzABExgRAkMTfFesMf6GdLb7niodc7iv4woXj+WCZiACZiACZiACZiACZiACZjAuBMYiuK904vWaa39hIlLLzx66bi/Az+/CZiACZiACZiACZiACZiACZjACBNYY86cOY+O8PP50UzABEzABEzABEzABEzABEzABExgqASG0uM91Cf2xU3ABEzABEzABEzABEzABEzABEygQQJWvBuE7UuZgAmYgAmYgAmYgAmYgAmYgAmMHwEr3uP3zv3EJmACJmACJmACJmACJmACJmACDRKw4t0gbF/KBEzABEzABEzABEzABEzABExg/AhY8R6/d+4nNgETMAETMAETMAETMAETMAETaJCAFe8GYftSJmACJmACJmACJmACJmACJmAC40fAivf4vXM/sQmYgAmYgAmYgAmYgAmYgAmYQIMErHg3CNuXMgETMAETMAETMAETMAETMAETGD8CVrzH7537iU3ABEzABEzABEzABEzABEzABBokYMW7Qdi+lAmYgAmYgAmYgAmYgAmYgAmYwPgRsOI9fu/cT2wCJmACJmACJmACJmACJmACJtAgASveDcL2pUzABEzABEzABEzABEzABEzABMaPgBXv8XvnfmITMAETMAETMAETMAETMAETMIEGCVjxbhC2L2UCJmACJmACJmACJmACJmACJjB+BKx4j9879xObgAmYgAmYgAmYgAmYgAmYgAk0SMCKd4OwfSkTMAETMAETMAETMAETMAETMIHxI2DFe/zeuZ/YBEzABEzABEzABEzABEzABEygQQJWvBuE7UuZgAmYgAmYgAmYgAmYgAmYgAmMHwEr3uP3zv3EJmACJmACJmACJmACJmACJmACDRKw4t0gbF/KBEzABEzABEzABEzABEzABExg/AhY8R6/d+4nNgETMAETMAETMAETMAETMAETaJCAFe8GYftSJmACJmACJmACJmACJmACJmAC40fAivf4vXM/sQmYgAmYgAmYgAmYgAmYgAmYQIMErHg3CNuXMgETMAETMAETMAETMAETMAETGD8CVrzH7537iU3ABEzABEzABEzABEzABEzABBokYMW7Qdi+lAmYgAmYgAmYgAmYgAmYgAmYwPgRsOI9fu/cT2wCJmACJmACJmACJmACJmACJtAggf8Hipb/7zOtEQkAAAAASUVORK5CYII=;" vertex="1" parent="1">
          <mxGeometry x="794.22" y="260" width="233.49" height="50" as="geometry" />
        </mxCell>
      </root>
    </mxGraphModel>
  </diagram>
</mxfile>
